%TF.GenerationSoftware,KiCad,Pcbnew,5.1.9-73d0e3b20d~88~ubuntu20.10.1*%
%TF.CreationDate,2021-01-08T13:25:03-06:00*%
%TF.ProjectId,serafino l432kc,73657261-6669-46e6-9f20-6c3433326b63,rev?*%
%TF.SameCoordinates,Original*%
%TF.FileFunction,Legend,Bot*%
%TF.FilePolarity,Positive*%
%FSLAX46Y46*%
G04 Gerber Fmt 4.6, Leading zero omitted, Abs format (unit mm)*
G04 Created by KiCad (PCBNEW 5.1.9-73d0e3b20d~88~ubuntu20.10.1) date 2021-01-08 13:25:03*
%MOMM*%
%LPD*%
G01*
G04 APERTURE LIST*
%ADD10C,0.080000*%
%ADD11C,0.150000*%
G04 APERTURE END LIST*
D10*
X201394190Y-113955428D02*
X200894190Y-113955428D01*
X201394190Y-114169714D02*
X201132285Y-114169714D01*
X201084666Y-114145904D01*
X201060857Y-114098285D01*
X201060857Y-114026857D01*
X201084666Y-113979238D01*
X201108476Y-113955428D01*
X201060857Y-114336380D02*
X201060857Y-114526857D01*
X200894190Y-114407809D02*
X201322761Y-114407809D01*
X201370380Y-114431619D01*
X201394190Y-114479238D01*
X201394190Y-114526857D01*
X201060857Y-114622095D02*
X201060857Y-114812571D01*
X200894190Y-114693523D02*
X201322761Y-114693523D01*
X201370380Y-114717333D01*
X201394190Y-114764952D01*
X201394190Y-114812571D01*
X201060857Y-114979238D02*
X201560857Y-114979238D01*
X201084666Y-114979238D02*
X201060857Y-115026857D01*
X201060857Y-115122095D01*
X201084666Y-115169714D01*
X201108476Y-115193523D01*
X201156095Y-115217333D01*
X201298952Y-115217333D01*
X201346571Y-115193523D01*
X201370380Y-115169714D01*
X201394190Y-115122095D01*
X201394190Y-115026857D01*
X201370380Y-114979238D01*
X201346571Y-115431619D02*
X201370380Y-115455428D01*
X201394190Y-115431619D01*
X201370380Y-115407809D01*
X201346571Y-115431619D01*
X201394190Y-115431619D01*
X201084666Y-115431619D02*
X201108476Y-115455428D01*
X201132285Y-115431619D01*
X201108476Y-115407809D01*
X201084666Y-115431619D01*
X201132285Y-115431619D01*
X200870380Y-116026857D02*
X201513238Y-115598285D01*
X200870380Y-116550666D02*
X201513238Y-116122095D01*
X201394190Y-116717333D02*
X201060857Y-116717333D01*
X201108476Y-116717333D02*
X201084666Y-116741142D01*
X201060857Y-116788761D01*
X201060857Y-116860190D01*
X201084666Y-116907809D01*
X201132285Y-116931619D01*
X201394190Y-116931619D01*
X201132285Y-116931619D02*
X201084666Y-116955428D01*
X201060857Y-117003047D01*
X201060857Y-117074476D01*
X201084666Y-117122095D01*
X201132285Y-117145904D01*
X201394190Y-117145904D01*
X201394190Y-117598285D02*
X201132285Y-117598285D01*
X201084666Y-117574476D01*
X201060857Y-117526857D01*
X201060857Y-117431619D01*
X201084666Y-117384000D01*
X201370380Y-117598285D02*
X201394190Y-117550666D01*
X201394190Y-117431619D01*
X201370380Y-117384000D01*
X201322761Y-117360190D01*
X201275142Y-117360190D01*
X201227523Y-117384000D01*
X201203714Y-117431619D01*
X201203714Y-117550666D01*
X201179904Y-117598285D01*
X201060857Y-117764952D02*
X201060857Y-117955428D01*
X200894190Y-117836380D02*
X201322761Y-117836380D01*
X201370380Y-117860190D01*
X201394190Y-117907809D01*
X201394190Y-117955428D01*
X201370380Y-118312571D02*
X201394190Y-118264952D01*
X201394190Y-118169714D01*
X201370380Y-118122095D01*
X201322761Y-118098285D01*
X201132285Y-118098285D01*
X201084666Y-118122095D01*
X201060857Y-118169714D01*
X201060857Y-118264952D01*
X201084666Y-118312571D01*
X201132285Y-118336380D01*
X201179904Y-118336380D01*
X201227523Y-118098285D01*
X201394190Y-118550666D02*
X201060857Y-118550666D01*
X201156095Y-118550666D02*
X201108476Y-118574476D01*
X201084666Y-118598285D01*
X201060857Y-118645904D01*
X201060857Y-118693523D01*
X201394190Y-118860190D02*
X201060857Y-118860190D01*
X200894190Y-118860190D02*
X200918000Y-118836380D01*
X200941809Y-118860190D01*
X200918000Y-118884000D01*
X200894190Y-118860190D01*
X200941809Y-118860190D01*
X201394190Y-119312571D02*
X201132285Y-119312571D01*
X201084666Y-119288761D01*
X201060857Y-119241142D01*
X201060857Y-119145904D01*
X201084666Y-119098285D01*
X201370380Y-119312571D02*
X201394190Y-119264952D01*
X201394190Y-119145904D01*
X201370380Y-119098285D01*
X201322761Y-119074476D01*
X201275142Y-119074476D01*
X201227523Y-119098285D01*
X201203714Y-119145904D01*
X201203714Y-119264952D01*
X201179904Y-119312571D01*
X201394190Y-119550666D02*
X201060857Y-119550666D01*
X201108476Y-119550666D02*
X201084666Y-119574476D01*
X201060857Y-119622095D01*
X201060857Y-119693523D01*
X201084666Y-119741142D01*
X201132285Y-119764952D01*
X201394190Y-119764952D01*
X201132285Y-119764952D02*
X201084666Y-119788761D01*
X201060857Y-119836380D01*
X201060857Y-119907809D01*
X201084666Y-119955428D01*
X201132285Y-119979238D01*
X201394190Y-119979238D01*
X201346571Y-120217333D02*
X201370380Y-120241142D01*
X201394190Y-120217333D01*
X201370380Y-120193523D01*
X201346571Y-120217333D01*
X201394190Y-120217333D01*
X201370380Y-120669714D02*
X201394190Y-120622095D01*
X201394190Y-120526857D01*
X201370380Y-120479238D01*
X201346571Y-120455428D01*
X201298952Y-120431619D01*
X201156095Y-120431619D01*
X201108476Y-120455428D01*
X201084666Y-120479238D01*
X201060857Y-120526857D01*
X201060857Y-120622095D01*
X201084666Y-120669714D01*
X201394190Y-120955428D02*
X201370380Y-120907809D01*
X201346571Y-120884000D01*
X201298952Y-120860190D01*
X201156095Y-120860190D01*
X201108476Y-120884000D01*
X201084666Y-120907809D01*
X201060857Y-120955428D01*
X201060857Y-121026857D01*
X201084666Y-121074476D01*
X201108476Y-121098285D01*
X201156095Y-121122095D01*
X201298952Y-121122095D01*
X201346571Y-121098285D01*
X201370380Y-121074476D01*
X201394190Y-121026857D01*
X201394190Y-120955428D01*
X201394190Y-121336380D02*
X201060857Y-121336380D01*
X201108476Y-121336380D02*
X201084666Y-121360190D01*
X201060857Y-121407809D01*
X201060857Y-121479238D01*
X201084666Y-121526857D01*
X201132285Y-121550666D01*
X201394190Y-121550666D01*
X201132285Y-121550666D02*
X201084666Y-121574476D01*
X201060857Y-121622095D01*
X201060857Y-121693523D01*
X201084666Y-121741142D01*
X201132285Y-121764952D01*
X201394190Y-121764952D01*
X200870380Y-122360190D02*
X201513238Y-121931619D01*
X201370380Y-122503047D02*
X201394190Y-122550666D01*
X201394190Y-122645904D01*
X201370380Y-122693523D01*
X201322761Y-122717333D01*
X201298952Y-122717333D01*
X201251333Y-122693523D01*
X201227523Y-122645904D01*
X201227523Y-122574476D01*
X201203714Y-122526857D01*
X201156095Y-122503047D01*
X201132285Y-122503047D01*
X201084666Y-122526857D01*
X201060857Y-122574476D01*
X201060857Y-122645904D01*
X201084666Y-122693523D01*
X201370380Y-123122095D02*
X201394190Y-123074476D01*
X201394190Y-122979238D01*
X201370380Y-122931619D01*
X201322761Y-122907809D01*
X201132285Y-122907809D01*
X201084666Y-122931619D01*
X201060857Y-122979238D01*
X201060857Y-123074476D01*
X201084666Y-123122095D01*
X201132285Y-123145904D01*
X201179904Y-123145904D01*
X201227523Y-122907809D01*
X201394190Y-123360190D02*
X201060857Y-123360190D01*
X201156095Y-123360190D02*
X201108476Y-123384000D01*
X201084666Y-123407809D01*
X201060857Y-123455428D01*
X201060857Y-123503047D01*
X201394190Y-123884000D02*
X201132285Y-123884000D01*
X201084666Y-123860190D01*
X201060857Y-123812571D01*
X201060857Y-123717333D01*
X201084666Y-123669714D01*
X201370380Y-123884000D02*
X201394190Y-123836380D01*
X201394190Y-123717333D01*
X201370380Y-123669714D01*
X201322761Y-123645904D01*
X201275142Y-123645904D01*
X201227523Y-123669714D01*
X201203714Y-123717333D01*
X201203714Y-123836380D01*
X201179904Y-123884000D01*
X201060857Y-124050666D02*
X201060857Y-124241142D01*
X201394190Y-124122095D02*
X200965619Y-124122095D01*
X200918000Y-124145904D01*
X200894190Y-124193523D01*
X200894190Y-124241142D01*
X201394190Y-124407809D02*
X201060857Y-124407809D01*
X200894190Y-124407809D02*
X200918000Y-124384000D01*
X200941809Y-124407809D01*
X200918000Y-124431619D01*
X200894190Y-124407809D01*
X200941809Y-124407809D01*
X201060857Y-124645904D02*
X201394190Y-124645904D01*
X201108476Y-124645904D02*
X201084666Y-124669714D01*
X201060857Y-124717333D01*
X201060857Y-124788761D01*
X201084666Y-124836380D01*
X201132285Y-124860190D01*
X201394190Y-124860190D01*
X201394190Y-125169714D02*
X201370380Y-125122095D01*
X201346571Y-125098285D01*
X201298952Y-125074476D01*
X201156095Y-125074476D01*
X201108476Y-125098285D01*
X201084666Y-125122095D01*
X201060857Y-125169714D01*
X201060857Y-125241142D01*
X201084666Y-125288761D01*
X201108476Y-125312571D01*
X201156095Y-125336380D01*
X201298952Y-125336380D01*
X201346571Y-125312571D01*
X201370380Y-125288761D01*
X201394190Y-125241142D01*
X201394190Y-125169714D01*
X193646190Y-115812476D02*
X193765238Y-115812476D01*
X193717619Y-115693428D02*
X193765238Y-115812476D01*
X193717619Y-115931523D01*
X193860476Y-115741047D02*
X193765238Y-115812476D01*
X193860476Y-115883904D01*
X193646190Y-116502952D02*
X194050952Y-116502952D01*
X194098571Y-116526761D01*
X194122380Y-116550571D01*
X194146190Y-116598190D01*
X194146190Y-116693428D01*
X194122380Y-116741047D01*
X194098571Y-116764857D01*
X194050952Y-116788666D01*
X193646190Y-116788666D01*
X194146190Y-117098190D02*
X194122380Y-117050571D01*
X194074761Y-117026761D01*
X193646190Y-117026761D01*
X193812857Y-117217238D02*
X193812857Y-117407714D01*
X193646190Y-117288666D02*
X194074761Y-117288666D01*
X194122380Y-117312476D01*
X194146190Y-117360095D01*
X194146190Y-117407714D01*
X194146190Y-117574380D02*
X193812857Y-117574380D01*
X193908095Y-117574380D02*
X193860476Y-117598190D01*
X193836666Y-117622000D01*
X193812857Y-117669619D01*
X193812857Y-117717238D01*
X194146190Y-118098190D02*
X193884285Y-118098190D01*
X193836666Y-118074380D01*
X193812857Y-118026761D01*
X193812857Y-117931523D01*
X193836666Y-117883904D01*
X194122380Y-118098190D02*
X194146190Y-118050571D01*
X194146190Y-117931523D01*
X194122380Y-117883904D01*
X194074761Y-117860095D01*
X194027142Y-117860095D01*
X193979523Y-117883904D01*
X193955714Y-117931523D01*
X193955714Y-118050571D01*
X193931904Y-118098190D01*
X193955714Y-118336285D02*
X193955714Y-118717238D01*
X194146190Y-119026761D02*
X194122380Y-118979142D01*
X194074761Y-118955333D01*
X193646190Y-118955333D01*
X194146190Y-119288666D02*
X194122380Y-119241047D01*
X194098571Y-119217238D01*
X194050952Y-119193428D01*
X193908095Y-119193428D01*
X193860476Y-119217238D01*
X193836666Y-119241047D01*
X193812857Y-119288666D01*
X193812857Y-119360095D01*
X193836666Y-119407714D01*
X193860476Y-119431523D01*
X193908095Y-119455333D01*
X194050952Y-119455333D01*
X194098571Y-119431523D01*
X194122380Y-119407714D01*
X194146190Y-119360095D01*
X194146190Y-119288666D01*
X193812857Y-119621999D02*
X194146190Y-119717238D01*
X193908095Y-119812476D01*
X194146190Y-119907714D01*
X193812857Y-120002952D01*
X193955714Y-120193428D02*
X193955714Y-120574380D01*
X193812857Y-120812476D02*
X194312857Y-120812476D01*
X193836666Y-120812476D02*
X193812857Y-120860095D01*
X193812857Y-120955333D01*
X193836666Y-121002952D01*
X193860476Y-121026761D01*
X193908095Y-121050571D01*
X194050952Y-121050571D01*
X194098571Y-121026761D01*
X194122380Y-121002952D01*
X194146190Y-120955333D01*
X194146190Y-120860095D01*
X194122380Y-120812476D01*
X194146190Y-121336285D02*
X194122380Y-121288666D01*
X194098571Y-121264857D01*
X194050952Y-121241047D01*
X193908095Y-121241047D01*
X193860476Y-121264857D01*
X193836666Y-121288666D01*
X193812857Y-121336285D01*
X193812857Y-121407714D01*
X193836666Y-121455333D01*
X193860476Y-121479142D01*
X193908095Y-121502952D01*
X194050952Y-121502952D01*
X194098571Y-121479142D01*
X194122380Y-121455333D01*
X194146190Y-121407714D01*
X194146190Y-121336285D01*
X193812857Y-121669619D02*
X194146190Y-121764857D01*
X193908095Y-121860095D01*
X194146190Y-121955333D01*
X193812857Y-122050571D01*
X194122380Y-122431523D02*
X194146190Y-122383904D01*
X194146190Y-122288666D01*
X194122380Y-122241047D01*
X194074761Y-122217238D01*
X193884285Y-122217238D01*
X193836666Y-122241047D01*
X193812857Y-122288666D01*
X193812857Y-122383904D01*
X193836666Y-122431523D01*
X193884285Y-122455333D01*
X193931904Y-122455333D01*
X193979523Y-122217238D01*
X194146190Y-122669619D02*
X193812857Y-122669619D01*
X193908095Y-122669619D02*
X193860476Y-122693428D01*
X193836666Y-122717238D01*
X193812857Y-122764857D01*
X193812857Y-122812476D01*
X194476190Y-115812476D02*
X194595238Y-115812476D01*
X194547619Y-115693428D02*
X194595238Y-115812476D01*
X194547619Y-115931523D01*
X194690476Y-115741047D02*
X194595238Y-115812476D01*
X194690476Y-115883904D01*
X194833333Y-116479142D02*
X194833333Y-116717238D01*
X194976190Y-116431523D02*
X194476190Y-116598190D01*
X194976190Y-116764857D01*
X194976190Y-116931523D02*
X194642857Y-116931523D01*
X194738095Y-116931523D02*
X194690476Y-116955333D01*
X194666666Y-116979142D01*
X194642857Y-117026761D01*
X194642857Y-117074380D01*
X194976190Y-117241047D02*
X194642857Y-117241047D01*
X194690476Y-117241047D02*
X194666666Y-117264857D01*
X194642857Y-117312476D01*
X194642857Y-117383904D01*
X194666666Y-117431523D01*
X194714285Y-117455333D01*
X194976190Y-117455333D01*
X194714285Y-117455333D02*
X194666666Y-117479142D01*
X194642857Y-117526761D01*
X194642857Y-117598190D01*
X194666666Y-117645809D01*
X194714285Y-117669619D01*
X194976190Y-117669619D01*
X194904761Y-118717238D02*
X194761904Y-118598190D01*
X194904761Y-118502952D02*
X194571428Y-118502952D01*
X194571428Y-118645809D01*
X194595238Y-118693428D01*
X194642857Y-118717238D01*
X194690476Y-118717238D01*
X194738095Y-118693428D01*
X194761904Y-118645809D01*
X194761904Y-118502952D01*
X194404761Y-118598190D02*
X194428571Y-118479142D01*
X194500000Y-118360095D01*
X194619047Y-118288666D01*
X194738095Y-118264857D01*
X194857142Y-118288666D01*
X194976190Y-118360095D01*
X195047619Y-118479142D01*
X195071428Y-118598190D01*
X195047619Y-118717238D01*
X194976190Y-118836285D01*
X194857142Y-118907714D01*
X194738095Y-118931523D01*
X194619047Y-118907714D01*
X194500000Y-118836285D01*
X194428571Y-118717238D01*
X194404761Y-118598190D01*
X194928571Y-119812476D02*
X194952380Y-119788666D01*
X194976190Y-119717238D01*
X194976190Y-119669619D01*
X194952380Y-119598190D01*
X194904761Y-119550571D01*
X194857142Y-119526761D01*
X194761904Y-119502952D01*
X194690476Y-119502952D01*
X194595238Y-119526761D01*
X194547619Y-119550571D01*
X194500000Y-119598190D01*
X194476190Y-119669619D01*
X194476190Y-119717238D01*
X194500000Y-119788666D01*
X194523809Y-119812476D01*
X194976190Y-120098190D02*
X194952380Y-120050571D01*
X194928571Y-120026761D01*
X194880952Y-120002952D01*
X194738095Y-120002952D01*
X194690476Y-120026761D01*
X194666666Y-120050571D01*
X194642857Y-120098190D01*
X194642857Y-120169619D01*
X194666666Y-120217238D01*
X194690476Y-120241047D01*
X194738095Y-120264857D01*
X194880952Y-120264857D01*
X194928571Y-120241047D01*
X194952380Y-120217238D01*
X194976190Y-120169619D01*
X194976190Y-120098190D01*
X194976190Y-120479142D02*
X194642857Y-120479142D01*
X194738095Y-120479142D02*
X194690476Y-120502952D01*
X194666666Y-120526761D01*
X194642857Y-120574380D01*
X194642857Y-120622000D01*
X194642857Y-120717238D02*
X194642857Y-120907714D01*
X194476190Y-120788666D02*
X194904761Y-120788666D01*
X194952380Y-120812476D01*
X194976190Y-120860095D01*
X194976190Y-120907714D01*
X194952380Y-121264857D02*
X194976190Y-121217238D01*
X194976190Y-121122000D01*
X194952380Y-121074380D01*
X194904761Y-121050571D01*
X194714285Y-121050571D01*
X194666666Y-121074380D01*
X194642857Y-121122000D01*
X194642857Y-121217238D01*
X194666666Y-121264857D01*
X194714285Y-121288666D01*
X194761904Y-121288666D01*
X194809523Y-121050571D01*
X194976190Y-121455333D02*
X194642857Y-121717238D01*
X194642857Y-121455333D02*
X194976190Y-121717238D01*
X194904761Y-122717238D02*
X194761904Y-122598190D01*
X194904761Y-122502952D02*
X194571428Y-122502952D01*
X194571428Y-122645809D01*
X194595238Y-122693428D01*
X194642857Y-122717238D01*
X194690476Y-122717238D01*
X194738095Y-122693428D01*
X194761904Y-122645809D01*
X194761904Y-122502952D01*
X194404761Y-122598190D02*
X194428571Y-122479142D01*
X194500000Y-122360095D01*
X194619047Y-122288666D01*
X194738095Y-122264857D01*
X194857142Y-122288666D01*
X194976190Y-122360095D01*
X195047619Y-122479142D01*
X195071428Y-122598190D01*
X195047619Y-122717238D01*
X194976190Y-122836285D01*
X194857142Y-122907714D01*
X194738095Y-122931523D01*
X194619047Y-122907714D01*
X194500000Y-122836285D01*
X194428571Y-122717238D01*
X194404761Y-122598190D01*
X194976190Y-123526761D02*
X194476190Y-123526761D01*
X194833333Y-123693428D01*
X194476190Y-123860095D01*
X194976190Y-123860095D01*
X194642857Y-124312476D02*
X194976190Y-124312476D01*
X194452380Y-124193428D02*
X194809523Y-124074380D01*
X194809523Y-124383904D01*
X195306190Y-115812476D02*
X195425238Y-115812476D01*
X195377619Y-115693428D02*
X195425238Y-115812476D01*
X195377619Y-115931523D01*
X195520476Y-115741047D02*
X195425238Y-115812476D01*
X195520476Y-115883904D01*
X195306190Y-116455333D02*
X195306190Y-116764857D01*
X195496666Y-116598190D01*
X195496666Y-116669619D01*
X195520476Y-116717238D01*
X195544285Y-116741047D01*
X195591904Y-116764857D01*
X195710952Y-116764857D01*
X195758571Y-116741047D01*
X195782380Y-116717238D01*
X195806190Y-116669619D01*
X195806190Y-116526761D01*
X195782380Y-116479142D01*
X195758571Y-116455333D01*
X195353809Y-116955333D02*
X195330000Y-116979142D01*
X195306190Y-117026761D01*
X195306190Y-117145809D01*
X195330000Y-117193428D01*
X195353809Y-117217238D01*
X195401428Y-117241047D01*
X195449047Y-117241047D01*
X195520476Y-117217238D01*
X195806190Y-116931523D01*
X195806190Y-117241047D01*
X195615714Y-117455333D02*
X195615714Y-117836285D01*
X195806190Y-118074380D02*
X195306190Y-118074380D01*
X195496666Y-118074380D02*
X195472857Y-118122000D01*
X195472857Y-118217238D01*
X195496666Y-118264857D01*
X195520476Y-118288666D01*
X195568095Y-118312476D01*
X195710952Y-118312476D01*
X195758571Y-118288666D01*
X195782380Y-118264857D01*
X195806190Y-118217238D01*
X195806190Y-118122000D01*
X195782380Y-118074380D01*
X195806190Y-118526761D02*
X195472857Y-118526761D01*
X195306190Y-118526761D02*
X195330000Y-118502952D01*
X195353809Y-118526761D01*
X195330000Y-118550571D01*
X195306190Y-118526761D01*
X195353809Y-118526761D01*
X195472857Y-118693428D02*
X195472857Y-118883904D01*
X195306190Y-118764857D02*
X195734761Y-118764857D01*
X195782380Y-118788666D01*
X195806190Y-118836285D01*
X195806190Y-118883904D01*
X195806190Y-119431523D02*
X195306190Y-119431523D01*
X195663333Y-119598190D01*
X195306190Y-119764857D01*
X195806190Y-119764857D01*
X195758571Y-120288666D02*
X195782380Y-120264857D01*
X195806190Y-120193428D01*
X195806190Y-120145809D01*
X195782380Y-120074380D01*
X195734761Y-120026761D01*
X195687142Y-120002952D01*
X195591904Y-119979142D01*
X195520476Y-119979142D01*
X195425238Y-120002952D01*
X195377619Y-120026761D01*
X195330000Y-120074380D01*
X195306190Y-120145809D01*
X195306190Y-120193428D01*
X195330000Y-120264857D01*
X195353809Y-120288666D01*
X195306190Y-120502952D02*
X195710952Y-120502952D01*
X195758571Y-120526761D01*
X195782380Y-120550571D01*
X195806190Y-120598190D01*
X195806190Y-120693428D01*
X195782380Y-120741047D01*
X195758571Y-120764857D01*
X195710952Y-120788666D01*
X195306190Y-120788666D01*
X195615714Y-121026761D02*
X195615714Y-121407714D01*
X195806190Y-121217238D02*
X195425238Y-121217238D01*
X195544285Y-121812476D02*
X195544285Y-121645809D01*
X195806190Y-121645809D02*
X195306190Y-121645809D01*
X195306190Y-121883904D01*
X195806190Y-122074380D02*
X195306190Y-122074380D01*
X195306190Y-122264857D01*
X195330000Y-122312476D01*
X195353809Y-122336285D01*
X195401428Y-122360095D01*
X195472857Y-122360095D01*
X195520476Y-122336285D01*
X195544285Y-122312476D01*
X195568095Y-122264857D01*
X195568095Y-122074380D01*
X195306190Y-122574380D02*
X195710952Y-122574380D01*
X195758571Y-122598190D01*
X195782380Y-122622000D01*
X195806190Y-122669619D01*
X195806190Y-122764857D01*
X195782380Y-122812476D01*
X195758571Y-122836285D01*
X195710952Y-122860095D01*
X195306190Y-122860095D01*
X195568095Y-123407714D02*
X195544285Y-123383904D01*
X195520476Y-123336285D01*
X195520476Y-123288666D01*
X195544285Y-123241047D01*
X195568095Y-123217238D01*
X195615714Y-123193428D01*
X195663333Y-123193428D01*
X195710952Y-123217238D01*
X195734761Y-123241047D01*
X195758571Y-123288666D01*
X195758571Y-123336285D01*
X195734761Y-123383904D01*
X195710952Y-123407714D01*
X195520476Y-123407714D02*
X195710952Y-123407714D01*
X195734761Y-123431523D01*
X195734761Y-123455333D01*
X195710952Y-123502952D01*
X195663333Y-123526761D01*
X195544285Y-123526761D01*
X195472857Y-123479142D01*
X195425238Y-123407714D01*
X195401428Y-123312476D01*
X195425238Y-123217238D01*
X195472857Y-123145809D01*
X195544285Y-123098190D01*
X195639523Y-123074380D01*
X195734761Y-123098190D01*
X195806190Y-123145809D01*
X195853809Y-123217238D01*
X195877619Y-123312476D01*
X195853809Y-123407714D01*
X195806190Y-123479142D01*
X195520476Y-123812476D02*
X195496666Y-123764857D01*
X195472857Y-123741047D01*
X195425238Y-123717238D01*
X195401428Y-123717238D01*
X195353809Y-123741047D01*
X195330000Y-123764857D01*
X195306190Y-123812476D01*
X195306190Y-123907714D01*
X195330000Y-123955333D01*
X195353809Y-123979142D01*
X195401428Y-124002952D01*
X195425238Y-124002952D01*
X195472857Y-123979142D01*
X195496666Y-123955333D01*
X195520476Y-123907714D01*
X195520476Y-123812476D01*
X195544285Y-123764857D01*
X195568095Y-123741047D01*
X195615714Y-123717238D01*
X195710952Y-123717238D01*
X195758571Y-123741047D01*
X195782380Y-123764857D01*
X195806190Y-123812476D01*
X195806190Y-123907714D01*
X195782380Y-123955333D01*
X195758571Y-123979142D01*
X195710952Y-124002952D01*
X195615714Y-124002952D01*
X195568095Y-123979142D01*
X195544285Y-123955333D01*
X195520476Y-123907714D01*
X195306190Y-124312476D02*
X195306190Y-124360095D01*
X195330000Y-124407714D01*
X195353809Y-124431523D01*
X195401428Y-124455333D01*
X195496666Y-124479142D01*
X195615714Y-124479142D01*
X195710952Y-124455333D01*
X195758571Y-124431523D01*
X195782380Y-124407714D01*
X195806190Y-124360095D01*
X195806190Y-124312476D01*
X195782380Y-124264857D01*
X195758571Y-124241047D01*
X195710952Y-124217238D01*
X195615714Y-124193428D01*
X195496666Y-124193428D01*
X195401428Y-124217238D01*
X195353809Y-124241047D01*
X195330000Y-124264857D01*
X195306190Y-124312476D01*
X195806190Y-124693428D02*
X195306190Y-124693428D01*
X195663333Y-124860095D01*
X195306190Y-125026761D01*
X195806190Y-125026761D01*
X195806190Y-125264857D02*
X195306190Y-125264857D01*
X195806190Y-125479142D02*
X195544285Y-125479142D01*
X195496666Y-125455333D01*
X195472857Y-125407714D01*
X195472857Y-125336285D01*
X195496666Y-125288666D01*
X195520476Y-125264857D01*
X195472857Y-125669619D02*
X195472857Y-125931523D01*
X195806190Y-125669619D01*
X195806190Y-125931523D01*
X196136190Y-115812476D02*
X196255238Y-115812476D01*
X196207619Y-115693428D02*
X196255238Y-115812476D01*
X196207619Y-115931523D01*
X196350476Y-115741047D02*
X196255238Y-115812476D01*
X196350476Y-115883904D01*
X196183809Y-116479142D02*
X196160000Y-116502952D01*
X196136190Y-116550571D01*
X196136190Y-116669619D01*
X196160000Y-116717238D01*
X196183809Y-116741047D01*
X196231428Y-116764857D01*
X196279047Y-116764857D01*
X196350476Y-116741047D01*
X196636190Y-116455333D01*
X196636190Y-116764857D01*
X196136190Y-117217238D02*
X196136190Y-116979142D01*
X196374285Y-116955333D01*
X196350476Y-116979142D01*
X196326666Y-117026761D01*
X196326666Y-117145809D01*
X196350476Y-117193428D01*
X196374285Y-117217238D01*
X196421904Y-117241047D01*
X196540952Y-117241047D01*
X196588571Y-117217238D01*
X196612380Y-117193428D01*
X196636190Y-117145809D01*
X196636190Y-117026761D01*
X196612380Y-116979142D01*
X196588571Y-116955333D01*
X196136190Y-117669619D02*
X196136190Y-117574380D01*
X196160000Y-117526761D01*
X196183809Y-117502952D01*
X196255238Y-117455333D01*
X196350476Y-117431523D01*
X196540952Y-117431523D01*
X196588571Y-117455333D01*
X196612380Y-117479142D01*
X196636190Y-117526761D01*
X196636190Y-117622000D01*
X196612380Y-117669619D01*
X196588571Y-117693428D01*
X196540952Y-117717238D01*
X196421904Y-117717238D01*
X196374285Y-117693428D01*
X196350476Y-117669619D01*
X196326666Y-117622000D01*
X196326666Y-117526761D01*
X196350476Y-117479142D01*
X196374285Y-117455333D01*
X196421904Y-117431523D01*
X196636190Y-117931523D02*
X196136190Y-117931523D01*
X196636190Y-118217238D02*
X196350476Y-118002952D01*
X196136190Y-118217238D02*
X196421904Y-117931523D01*
X196374285Y-118598190D02*
X196398095Y-118669619D01*
X196421904Y-118693428D01*
X196469523Y-118717238D01*
X196540952Y-118717238D01*
X196588571Y-118693428D01*
X196612380Y-118669619D01*
X196636190Y-118622000D01*
X196636190Y-118431523D01*
X196136190Y-118431523D01*
X196136190Y-118598190D01*
X196160000Y-118645809D01*
X196183809Y-118669619D01*
X196231428Y-118693428D01*
X196279047Y-118693428D01*
X196326666Y-118669619D01*
X196350476Y-118645809D01*
X196374285Y-118598190D01*
X196374285Y-118431523D01*
X196374285Y-119479142D02*
X196374285Y-119312476D01*
X196636190Y-119312476D02*
X196136190Y-119312476D01*
X196136190Y-119550571D01*
X196636190Y-119812476D02*
X196612380Y-119764857D01*
X196564761Y-119741047D01*
X196136190Y-119741047D01*
X196636190Y-120217238D02*
X196374285Y-120217238D01*
X196326666Y-120193428D01*
X196302857Y-120145809D01*
X196302857Y-120050571D01*
X196326666Y-120002952D01*
X196612380Y-120217238D02*
X196636190Y-120169619D01*
X196636190Y-120050571D01*
X196612380Y-120002952D01*
X196564761Y-119979142D01*
X196517142Y-119979142D01*
X196469523Y-120002952D01*
X196445714Y-120050571D01*
X196445714Y-120169619D01*
X196421904Y-120217238D01*
X196612380Y-120431523D02*
X196636190Y-120479142D01*
X196636190Y-120574380D01*
X196612380Y-120622000D01*
X196564761Y-120645809D01*
X196540952Y-120645809D01*
X196493333Y-120622000D01*
X196469523Y-120574380D01*
X196469523Y-120502952D01*
X196445714Y-120455333D01*
X196398095Y-120431523D01*
X196374285Y-120431523D01*
X196326666Y-120455333D01*
X196302857Y-120502952D01*
X196302857Y-120574380D01*
X196326666Y-120622000D01*
X196636190Y-120860095D02*
X196136190Y-120860095D01*
X196636190Y-121074380D02*
X196374285Y-121074380D01*
X196326666Y-121050571D01*
X196302857Y-121002952D01*
X196302857Y-120931523D01*
X196326666Y-120883904D01*
X196350476Y-120860095D01*
X196966190Y-115812476D02*
X197085238Y-115812476D01*
X197037619Y-115693428D02*
X197085238Y-115812476D01*
X197037619Y-115931523D01*
X197180476Y-115741047D02*
X197085238Y-115812476D01*
X197180476Y-115883904D01*
X196966190Y-116717238D02*
X196966190Y-116622000D01*
X196990000Y-116574380D01*
X197013809Y-116550571D01*
X197085238Y-116502952D01*
X197180476Y-116479142D01*
X197370952Y-116479142D01*
X197418571Y-116502952D01*
X197442380Y-116526761D01*
X197466190Y-116574380D01*
X197466190Y-116669619D01*
X197442380Y-116717238D01*
X197418571Y-116741047D01*
X197370952Y-116764857D01*
X197251904Y-116764857D01*
X197204285Y-116741047D01*
X197180476Y-116717238D01*
X197156666Y-116669619D01*
X197156666Y-116574380D01*
X197180476Y-116526761D01*
X197204285Y-116502952D01*
X197251904Y-116479142D01*
X197132857Y-117193428D02*
X197466190Y-117193428D01*
X196942380Y-117074380D02*
X197299523Y-116955333D01*
X197299523Y-117264857D01*
X197466190Y-117455333D02*
X196966190Y-117455333D01*
X197466190Y-117741047D02*
X197180476Y-117526761D01*
X196966190Y-117741047D02*
X197251904Y-117455333D01*
X197204285Y-118122000D02*
X197228095Y-118193428D01*
X197251904Y-118217238D01*
X197299523Y-118241047D01*
X197370952Y-118241047D01*
X197418571Y-118217238D01*
X197442380Y-118193428D01*
X197466190Y-118145809D01*
X197466190Y-117955333D01*
X196966190Y-117955333D01*
X196966190Y-118122000D01*
X196990000Y-118169619D01*
X197013809Y-118193428D01*
X197061428Y-118217238D01*
X197109047Y-118217238D01*
X197156666Y-118193428D01*
X197180476Y-118169619D01*
X197204285Y-118122000D01*
X197204285Y-117955333D01*
X197442380Y-118812476D02*
X197466190Y-118883904D01*
X197466190Y-119002952D01*
X197442380Y-119050571D01*
X197418571Y-119074380D01*
X197370952Y-119098190D01*
X197323333Y-119098190D01*
X197275714Y-119074380D01*
X197251904Y-119050571D01*
X197228095Y-119002952D01*
X197204285Y-118907714D01*
X197180476Y-118860095D01*
X197156666Y-118836285D01*
X197109047Y-118812476D01*
X197061428Y-118812476D01*
X197013809Y-118836285D01*
X196990000Y-118860095D01*
X196966190Y-118907714D01*
X196966190Y-119026761D01*
X196990000Y-119098190D01*
X197466190Y-119598190D02*
X197228095Y-119431523D01*
X197466190Y-119312476D02*
X196966190Y-119312476D01*
X196966190Y-119502952D01*
X196990000Y-119550571D01*
X197013809Y-119574380D01*
X197061428Y-119598190D01*
X197132857Y-119598190D01*
X197180476Y-119574380D01*
X197204285Y-119550571D01*
X197228095Y-119502952D01*
X197228095Y-119312476D01*
X197323333Y-119788666D02*
X197323333Y-120026761D01*
X197466190Y-119741047D02*
X196966190Y-119907714D01*
X197466190Y-120074380D01*
X197466190Y-120241047D02*
X196966190Y-120241047D01*
X197323333Y-120407714D01*
X196966190Y-120574380D01*
X197466190Y-120574380D01*
D11*
X191666761Y-115626190D02*
X191714380Y-115769047D01*
X191714380Y-116007142D01*
X191666761Y-116102380D01*
X191619142Y-116150000D01*
X191523904Y-116197619D01*
X191428666Y-116197619D01*
X191333428Y-116150000D01*
X191285809Y-116102380D01*
X191238190Y-116007142D01*
X191190571Y-115816666D01*
X191142952Y-115721428D01*
X191095333Y-115673809D01*
X191000095Y-115626190D01*
X190904857Y-115626190D01*
X190809619Y-115673809D01*
X190762000Y-115721428D01*
X190714380Y-115816666D01*
X190714380Y-116054761D01*
X190762000Y-116197619D01*
X190714380Y-116483333D02*
X190714380Y-117054761D01*
X191714380Y-116769047D02*
X190714380Y-116769047D01*
X191714380Y-117388095D02*
X190714380Y-117388095D01*
X191428666Y-117721428D01*
X190714380Y-118054761D01*
X191714380Y-118054761D01*
X190714380Y-118435714D02*
X190714380Y-119054761D01*
X191095333Y-118721428D01*
X191095333Y-118864285D01*
X191142952Y-118959523D01*
X191190571Y-119007142D01*
X191285809Y-119054761D01*
X191523904Y-119054761D01*
X191619142Y-119007142D01*
X191666761Y-118959523D01*
X191714380Y-118864285D01*
X191714380Y-118578571D01*
X191666761Y-118483333D01*
X191619142Y-118435714D01*
X190809619Y-119435714D02*
X190762000Y-119483333D01*
X190714380Y-119578571D01*
X190714380Y-119816666D01*
X190762000Y-119911904D01*
X190809619Y-119959523D01*
X190904857Y-120007142D01*
X191000095Y-120007142D01*
X191142952Y-119959523D01*
X191714380Y-119388095D01*
X191714380Y-120007142D01*
X191714380Y-120911904D02*
X191714380Y-120435714D01*
X190714380Y-120435714D01*
X191047714Y-121673809D02*
X191714380Y-121673809D01*
X190666761Y-121435714D02*
X191381047Y-121197619D01*
X191381047Y-121816666D01*
X190714380Y-122102380D02*
X190714380Y-122721428D01*
X191095333Y-122388095D01*
X191095333Y-122530952D01*
X191142952Y-122626190D01*
X191190571Y-122673809D01*
X191285809Y-122721428D01*
X191523904Y-122721428D01*
X191619142Y-122673809D01*
X191666761Y-122626190D01*
X191714380Y-122530952D01*
X191714380Y-122245238D01*
X191666761Y-122150000D01*
X191619142Y-122102380D01*
X190809619Y-123102380D02*
X190762000Y-123150000D01*
X190714380Y-123245238D01*
X190714380Y-123483333D01*
X190762000Y-123578571D01*
X190809619Y-123626190D01*
X190904857Y-123673809D01*
X191000095Y-123673809D01*
X191142952Y-123626190D01*
X191714380Y-123054761D01*
X191714380Y-123673809D01*
X191714380Y-124102380D02*
X190714380Y-124102380D01*
X191714380Y-124673809D02*
X191142952Y-124245238D01*
X190714380Y-124673809D02*
X191285809Y-124102380D01*
X191619142Y-125673809D02*
X191666761Y-125626190D01*
X191714380Y-125483333D01*
X191714380Y-125388095D01*
X191666761Y-125245238D01*
X191571523Y-125150000D01*
X191476285Y-125102380D01*
X191285809Y-125054761D01*
X191142952Y-125054761D01*
X190952476Y-125102380D01*
X190857238Y-125150000D01*
X190762000Y-125245238D01*
X190714380Y-125388095D01*
X190714380Y-125483333D01*
X190762000Y-125626190D01*
X190809619Y-125673809D01*
M02*
