%TF.GenerationSoftware,KiCad,Pcbnew,5.1.9-73d0e3b20d~88~ubuntu20.10.1*%
%TF.CreationDate,2021-02-25T18:00:18-06:00*%
%TF.ProjectId,serafino l432kc,73657261-6669-46e6-9f20-6c3433326b63,rev?*%
%TF.SameCoordinates,Original*%
%TF.FileFunction,Copper,L1,Top*%
%TF.FilePolarity,Positive*%
%FSLAX46Y46*%
G04 Gerber Fmt 4.6, Leading zero omitted, Abs format (unit mm)*
G04 Created by KiCad (PCBNEW 5.1.9-73d0e3b20d~88~ubuntu20.10.1) date 2021-02-25 18:00:18*
%MOMM*%
%LPD*%
G01*
G04 APERTURE LIST*
%TA.AperFunction,SMDPad,CuDef*%
%ADD10R,1.060000X0.650000*%
%TD*%
%TA.AperFunction,SMDPad,CuDef*%
%ADD11R,0.650000X1.060000*%
%TD*%
%TA.AperFunction,SMDPad,CuDef*%
%ADD12R,1.050000X0.650000*%
%TD*%
%TA.AperFunction,SMDPad,CuDef*%
%ADD13R,1.200000X0.900000*%
%TD*%
%TA.AperFunction,ComponentPad*%
%ADD14O,1.700000X1.700000*%
%TD*%
%TA.AperFunction,ComponentPad*%
%ADD15R,1.700000X1.700000*%
%TD*%
%TA.AperFunction,SMDPad,CuDef*%
%ADD16R,1.500000X1.900000*%
%TD*%
%TA.AperFunction,ComponentPad*%
%ADD17C,1.450000*%
%TD*%
%TA.AperFunction,SMDPad,CuDef*%
%ADD18R,0.400000X1.350000*%
%TD*%
%TA.AperFunction,ComponentPad*%
%ADD19O,1.200000X1.900000*%
%TD*%
%TA.AperFunction,SMDPad,CuDef*%
%ADD20R,1.200000X1.900000*%
%TD*%
%TA.AperFunction,SMDPad,CuDef*%
%ADD21R,3.450000X3.450000*%
%TD*%
%TA.AperFunction,SMDPad,CuDef*%
%ADD22R,1.000000X1.800000*%
%TD*%
%TA.AperFunction,SMDPad,CuDef*%
%ADD23R,0.900000X0.800000*%
%TD*%
%TA.AperFunction,ViaPad*%
%ADD24C,0.800000*%
%TD*%
%TA.AperFunction,Conductor*%
%ADD25C,0.250000*%
%TD*%
%TA.AperFunction,Conductor*%
%ADD26C,0.500000*%
%TD*%
%TA.AperFunction,Conductor*%
%ADD27C,0.300000*%
%TD*%
%TA.AperFunction,Conductor*%
%ADD28C,0.750000*%
%TD*%
%TA.AperFunction,Conductor*%
%ADD29C,1.000000*%
%TD*%
%TA.AperFunction,Conductor*%
%ADD30C,0.200000*%
%TD*%
%TA.AperFunction,Conductor*%
%ADD31C,0.261112*%
%TD*%
G04 APERTURE END LIST*
%TO.P,F1,2*%
%TO.N,Net-(D2-Pad1)*%
%TA.AperFunction,SMDPad,CuDef*%
G36*
G01*
X192077500Y-97650000D02*
X190827500Y-97650000D01*
G75*
G02*
X190577500Y-97400000I0J250000D01*
G01*
X190577500Y-96650000D01*
G75*
G02*
X190827500Y-96400000I250000J0D01*
G01*
X192077500Y-96400000D01*
G75*
G02*
X192327500Y-96650000I0J-250000D01*
G01*
X192327500Y-97400000D01*
G75*
G02*
X192077500Y-97650000I-250000J0D01*
G01*
G37*
%TD.AperFunction*%
%TO.P,F1,1*%
%TO.N,Net-(F1-Pad1)*%
%TA.AperFunction,SMDPad,CuDef*%
G36*
G01*
X192077500Y-100450000D02*
X190827500Y-100450000D01*
G75*
G02*
X190577500Y-100200000I0J250000D01*
G01*
X190577500Y-99450000D01*
G75*
G02*
X190827500Y-99200000I250000J0D01*
G01*
X192077500Y-99200000D01*
G75*
G02*
X192327500Y-99450000I0J-250000D01*
G01*
X192327500Y-100200000D01*
G75*
G02*
X192077500Y-100450000I-250000J0D01*
G01*
G37*
%TD.AperFunction*%
%TD*%
D10*
%TO.P,U1,5*%
%TO.N,+3V3*%
X197188000Y-102174000D03*
%TO.P,U1,4*%
%TO.N,N/C*%
X197188000Y-104074000D03*
%TO.P,U1,3*%
%TO.N,Net-(R5-Pad2)*%
X194988000Y-104074000D03*
%TO.P,U1,2*%
%TO.N,GND*%
X194988000Y-103124000D03*
%TO.P,U1,1*%
%TO.N,VHIGH*%
X194988000Y-102174000D03*
%TD*%
D11*
%TO.P,U2,1*%
%TO.N,USB_CONN_D-*%
X200784500Y-100119000D03*
%TO.P,U2,2*%
%TO.N,GND*%
X199834500Y-100119000D03*
%TO.P,U2,3*%
%TO.N,USB_CONN_D+*%
X198884500Y-100119000D03*
%TO.P,U2,4*%
%TO.N,CAN_TD*%
X198884500Y-102319000D03*
%TO.P,U2,6*%
%TO.N,CAN_RD*%
X200784500Y-102319000D03*
%TO.P,U2,5*%
%TO.N,+5V*%
X199834500Y-102319000D03*
%TD*%
D12*
%TO.P,SW1,2*%
%TO.N,NRST*%
X195242400Y-125789000D03*
%TO.P,SW1,1*%
%TO.N,GND*%
X195267400Y-123639000D03*
%TO.P,SW1,2*%
%TO.N,NRST*%
X191117400Y-125789000D03*
%TO.P,SW1,1*%
%TO.N,GND*%
X191117400Y-123639000D03*
%TD*%
%TO.P,SW2,2*%
%TO.N,+3V3*%
X195242400Y-122106000D03*
%TO.P,SW2,1*%
%TO.N,BOOT0*%
X195267400Y-119956000D03*
%TO.P,SW2,2*%
%TO.N,+3V3*%
X191117400Y-122106000D03*
%TO.P,SW2,1*%
%TO.N,BOOT0*%
X191117400Y-119956000D03*
%TD*%
%TO.P,C8,1*%
%TO.N,+3V3*%
%TA.AperFunction,SMDPad,CuDef*%
G36*
G01*
X201083499Y-105684000D02*
X201633501Y-105684000D01*
G75*
G02*
X201883500Y-105933999I0J-249999D01*
G01*
X201883500Y-106509001D01*
G75*
G02*
X201633501Y-106759000I-249999J0D01*
G01*
X201083499Y-106759000D01*
G75*
G02*
X200833500Y-106509001I0J249999D01*
G01*
X200833500Y-105933999D01*
G75*
G02*
X201083499Y-105684000I249999J0D01*
G01*
G37*
%TD.AperFunction*%
%TO.P,C8,2*%
%TO.N,GND*%
%TA.AperFunction,SMDPad,CuDef*%
G36*
G01*
X201083499Y-107109000D02*
X201633501Y-107109000D01*
G75*
G02*
X201883500Y-107358999I0J-249999D01*
G01*
X201883500Y-107934001D01*
G75*
G02*
X201633501Y-108184000I-249999J0D01*
G01*
X201083499Y-108184000D01*
G75*
G02*
X200833500Y-107934001I0J249999D01*
G01*
X200833500Y-107358999D01*
G75*
G02*
X201083499Y-107109000I249999J0D01*
G01*
G37*
%TD.AperFunction*%
%TD*%
D13*
%TO.P,D2,1*%
%TO.N,Net-(D2-Pad1)*%
X191452500Y-95185500D03*
%TO.P,D2,2*%
%TO.N,+5V*%
X191452500Y-91885500D03*
%TD*%
D14*
%TO.P,J3,14*%
%TO.N,PA0*%
X203962000Y-125349000D03*
%TO.P,J3,13*%
%TO.N,PA1*%
X203962000Y-122809000D03*
%TO.P,J3,12*%
%TO.N,PA2*%
X203962000Y-120269000D03*
%TO.P,J3,11*%
%TO.N,PA3*%
X203962000Y-117729000D03*
%TO.P,J3,10*%
%TO.N,SAI1_FS_B*%
X203962000Y-115189000D03*
%TO.P,J3,9*%
%TO.N,SPI1_SCK*%
X203962000Y-112649000D03*
%TO.P,J3,8*%
%TO.N,SPI1_MISO*%
X203962000Y-110109000D03*
%TO.P,J3,7*%
%TO.N,SPI1_MOSI*%
X203962000Y-107569000D03*
%TO.P,J3,6*%
%TO.N,SPI1_SS*%
X203962000Y-105029000D03*
%TO.P,J3,5*%
%TO.N,PB1*%
X203962000Y-102489000D03*
%TO.P,J3,4*%
%TO.N,CAN_RD*%
X203962000Y-99949000D03*
%TO.P,J3,3*%
%TO.N,I2C1_SCL*%
X203962000Y-97409000D03*
%TO.P,J3,2*%
%TO.N,I2C1_SDA*%
X203962000Y-94869000D03*
D15*
%TO.P,J3,1*%
%TO.N,+3V3*%
X203962000Y-92329000D03*
%TD*%
%TO.P,J2,1*%
%TO.N,GND*%
X188722000Y-92329000D03*
D14*
%TO.P,J2,2*%
%TO.N,VHIGH*%
X188722000Y-94869000D03*
%TO.P,J2,3*%
%TO.N,CAN_TD*%
X188722000Y-97409000D03*
%TO.P,J2,4*%
%TO.N,+VIN*%
X188722000Y-99949000D03*
%TO.P,J2,5*%
%TO.N,SWDIO*%
X188722000Y-102489000D03*
%TO.P,J2,6*%
%TO.N,SWCLK*%
X188722000Y-105029000D03*
%TO.P,J2,7*%
%TO.N,PA15*%
X188722000Y-107569000D03*
%TO.P,J2,8*%
%TO.N,SAI1_SCK_B*%
X188722000Y-110109000D03*
%TO.P,J2,9*%
%TO.N,PB4*%
X188722000Y-112649000D03*
%TO.P,J2,10*%
%TO.N,SAI1_SD_B*%
X188722000Y-115189000D03*
%TO.P,J2,11*%
%TO.N,USART1_TX*%
X188722000Y-117729000D03*
%TO.P,J2,12*%
%TO.N,USART1_RX*%
X188722000Y-120269000D03*
%TO.P,J2,13*%
%TO.N,PA8*%
X188722000Y-122809000D03*
%TO.P,J2,14*%
%TO.N,NRST*%
X188722000Y-125349000D03*
%TD*%
%TO.P,R1,2*%
%TO.N,GND*%
%TA.AperFunction,SMDPad,CuDef*%
G36*
G01*
X197187000Y-125175600D02*
X197187000Y-125725600D01*
G75*
G02*
X196987000Y-125925600I-200000J0D01*
G01*
X196587000Y-125925600D01*
G75*
G02*
X196387000Y-125725600I0J200000D01*
G01*
X196387000Y-125175600D01*
G75*
G02*
X196587000Y-124975600I200000J0D01*
G01*
X196987000Y-124975600D01*
G75*
G02*
X197187000Y-125175600I0J-200000D01*
G01*
G37*
%TD.AperFunction*%
%TO.P,R1,1*%
%TO.N,Net-(D1-Pad1)*%
%TA.AperFunction,SMDPad,CuDef*%
G36*
G01*
X198837000Y-125175600D02*
X198837000Y-125725600D01*
G75*
G02*
X198637000Y-125925600I-200000J0D01*
G01*
X198237000Y-125925600D01*
G75*
G02*
X198037000Y-125725600I0J200000D01*
G01*
X198037000Y-125175600D01*
G75*
G02*
X198237000Y-124975600I200000J0D01*
G01*
X198637000Y-124975600D01*
G75*
G02*
X198837000Y-125175600I0J-200000D01*
G01*
G37*
%TD.AperFunction*%
%TD*%
%TO.P,R3,2*%
%TO.N,GND*%
%TA.AperFunction,SMDPad,CuDef*%
G36*
G01*
X197187000Y-122534000D02*
X197187000Y-123084000D01*
G75*
G02*
X196987000Y-123284000I-200000J0D01*
G01*
X196587000Y-123284000D01*
G75*
G02*
X196387000Y-123084000I0J200000D01*
G01*
X196387000Y-122534000D01*
G75*
G02*
X196587000Y-122334000I200000J0D01*
G01*
X196987000Y-122334000D01*
G75*
G02*
X197187000Y-122534000I0J-200000D01*
G01*
G37*
%TD.AperFunction*%
%TO.P,R3,1*%
%TO.N,Net-(D3-Pad1)*%
%TA.AperFunction,SMDPad,CuDef*%
G36*
G01*
X198837000Y-122534000D02*
X198837000Y-123084000D01*
G75*
G02*
X198637000Y-123284000I-200000J0D01*
G01*
X198237000Y-123284000D01*
G75*
G02*
X198037000Y-123084000I0J200000D01*
G01*
X198037000Y-122534000D01*
G75*
G02*
X198237000Y-122334000I200000J0D01*
G01*
X198637000Y-122334000D01*
G75*
G02*
X198837000Y-122534000I0J-200000D01*
G01*
G37*
%TD.AperFunction*%
%TD*%
%TO.P,R4,1*%
%TO.N,Net-(D4-Pad1)*%
%TA.AperFunction,SMDPad,CuDef*%
G36*
G01*
X198837000Y-119892400D02*
X198837000Y-120442400D01*
G75*
G02*
X198637000Y-120642400I-200000J0D01*
G01*
X198237000Y-120642400D01*
G75*
G02*
X198037000Y-120442400I0J200000D01*
G01*
X198037000Y-119892400D01*
G75*
G02*
X198237000Y-119692400I200000J0D01*
G01*
X198637000Y-119692400D01*
G75*
G02*
X198837000Y-119892400I0J-200000D01*
G01*
G37*
%TD.AperFunction*%
%TO.P,R4,2*%
%TO.N,GND*%
%TA.AperFunction,SMDPad,CuDef*%
G36*
G01*
X197187000Y-119892400D02*
X197187000Y-120442400D01*
G75*
G02*
X196987000Y-120642400I-200000J0D01*
G01*
X196587000Y-120642400D01*
G75*
G02*
X196387000Y-120442400I0J200000D01*
G01*
X196387000Y-119892400D01*
G75*
G02*
X196587000Y-119692400I200000J0D01*
G01*
X196987000Y-119692400D01*
G75*
G02*
X197187000Y-119892400I0J-200000D01*
G01*
G37*
%TD.AperFunction*%
%TD*%
%TO.P,D4,1*%
%TO.N,Net-(D4-Pad1)*%
%TA.AperFunction,SMDPad,CuDef*%
G36*
G01*
X199460400Y-120423650D02*
X199460400Y-119911150D01*
G75*
G02*
X199679150Y-119692400I218750J0D01*
G01*
X200116650Y-119692400D01*
G75*
G02*
X200335400Y-119911150I0J-218750D01*
G01*
X200335400Y-120423650D01*
G75*
G02*
X200116650Y-120642400I-218750J0D01*
G01*
X199679150Y-120642400D01*
G75*
G02*
X199460400Y-120423650I0J218750D01*
G01*
G37*
%TD.AperFunction*%
%TO.P,D4,2*%
%TO.N,PA3*%
%TA.AperFunction,SMDPad,CuDef*%
G36*
G01*
X201035400Y-120423650D02*
X201035400Y-119911150D01*
G75*
G02*
X201254150Y-119692400I218750J0D01*
G01*
X201691650Y-119692400D01*
G75*
G02*
X201910400Y-119911150I0J-218750D01*
G01*
X201910400Y-120423650D01*
G75*
G02*
X201691650Y-120642400I-218750J0D01*
G01*
X201254150Y-120642400D01*
G75*
G02*
X201035400Y-120423650I0J218750D01*
G01*
G37*
%TD.AperFunction*%
%TD*%
%TO.P,D3,2*%
%TO.N,PA2*%
%TA.AperFunction,SMDPad,CuDef*%
G36*
G01*
X201035400Y-123065250D02*
X201035400Y-122552750D01*
G75*
G02*
X201254150Y-122334000I218750J0D01*
G01*
X201691650Y-122334000D01*
G75*
G02*
X201910400Y-122552750I0J-218750D01*
G01*
X201910400Y-123065250D01*
G75*
G02*
X201691650Y-123284000I-218750J0D01*
G01*
X201254150Y-123284000D01*
G75*
G02*
X201035400Y-123065250I0J218750D01*
G01*
G37*
%TD.AperFunction*%
%TO.P,D3,1*%
%TO.N,Net-(D3-Pad1)*%
%TA.AperFunction,SMDPad,CuDef*%
G36*
G01*
X199460400Y-123065250D02*
X199460400Y-122552750D01*
G75*
G02*
X199679150Y-122334000I218750J0D01*
G01*
X200116650Y-122334000D01*
G75*
G02*
X200335400Y-122552750I0J-218750D01*
G01*
X200335400Y-123065250D01*
G75*
G02*
X200116650Y-123284000I-218750J0D01*
G01*
X199679150Y-123284000D01*
G75*
G02*
X199460400Y-123065250I0J218750D01*
G01*
G37*
%TD.AperFunction*%
%TD*%
%TO.P,D1,1*%
%TO.N,Net-(D1-Pad1)*%
%TA.AperFunction,SMDPad,CuDef*%
G36*
G01*
X199460400Y-125706850D02*
X199460400Y-125194350D01*
G75*
G02*
X199679150Y-124975600I218750J0D01*
G01*
X200116650Y-124975600D01*
G75*
G02*
X200335400Y-125194350I0J-218750D01*
G01*
X200335400Y-125706850D01*
G75*
G02*
X200116650Y-125925600I-218750J0D01*
G01*
X199679150Y-125925600D01*
G75*
G02*
X199460400Y-125706850I0J218750D01*
G01*
G37*
%TD.AperFunction*%
%TO.P,D1,2*%
%TO.N,PA1*%
%TA.AperFunction,SMDPad,CuDef*%
G36*
G01*
X201035400Y-125706850D02*
X201035400Y-125194350D01*
G75*
G02*
X201254150Y-124975600I218750J0D01*
G01*
X201691650Y-124975600D01*
G75*
G02*
X201910400Y-125194350I0J-218750D01*
G01*
X201910400Y-125706850D01*
G75*
G02*
X201691650Y-125925600I-218750J0D01*
G01*
X201254150Y-125925600D01*
G75*
G02*
X201035400Y-125706850I0J218750D01*
G01*
G37*
%TD.AperFunction*%
%TD*%
%TO.P,C1,2*%
%TO.N,GND*%
%TA.AperFunction,SMDPad,CuDef*%
G36*
G01*
X194302500Y-100016500D02*
X194302500Y-100516500D01*
G75*
G02*
X194077500Y-100741500I-225000J0D01*
G01*
X193627500Y-100741500D01*
G75*
G02*
X193402500Y-100516500I0J225000D01*
G01*
X193402500Y-100016500D01*
G75*
G02*
X193627500Y-99791500I225000J0D01*
G01*
X194077500Y-99791500D01*
G75*
G02*
X194302500Y-100016500I0J-225000D01*
G01*
G37*
%TD.AperFunction*%
%TO.P,C1,1*%
%TO.N,VHIGH*%
%TA.AperFunction,SMDPad,CuDef*%
G36*
G01*
X195852500Y-100016500D02*
X195852500Y-100516500D01*
G75*
G02*
X195627500Y-100741500I-225000J0D01*
G01*
X195177500Y-100741500D01*
G75*
G02*
X194952500Y-100516500I0J225000D01*
G01*
X194952500Y-100016500D01*
G75*
G02*
X195177500Y-99791500I225000J0D01*
G01*
X195627500Y-99791500D01*
G75*
G02*
X195852500Y-100016500I0J-225000D01*
G01*
G37*
%TD.AperFunction*%
%TD*%
%TO.P,C3,2*%
%TO.N,GND*%
%TA.AperFunction,SMDPad,CuDef*%
G36*
G01*
X197544500Y-99497000D02*
X197044500Y-99497000D01*
G75*
G02*
X196819500Y-99272000I0J225000D01*
G01*
X196819500Y-98822000D01*
G75*
G02*
X197044500Y-98597000I225000J0D01*
G01*
X197544500Y-98597000D01*
G75*
G02*
X197769500Y-98822000I0J-225000D01*
G01*
X197769500Y-99272000D01*
G75*
G02*
X197544500Y-99497000I-225000J0D01*
G01*
G37*
%TD.AperFunction*%
%TO.P,C3,1*%
%TO.N,+3V3*%
%TA.AperFunction,SMDPad,CuDef*%
G36*
G01*
X197544500Y-101047000D02*
X197044500Y-101047000D01*
G75*
G02*
X196819500Y-100822000I0J225000D01*
G01*
X196819500Y-100372000D01*
G75*
G02*
X197044500Y-100147000I225000J0D01*
G01*
X197544500Y-100147000D01*
G75*
G02*
X197769500Y-100372000I0J-225000D01*
G01*
X197769500Y-100822000D01*
G75*
G02*
X197544500Y-101047000I-225000J0D01*
G01*
G37*
%TD.AperFunction*%
%TD*%
%TO.P,C4,2*%
%TO.N,GND*%
%TA.AperFunction,SMDPad,CuDef*%
G36*
G01*
X193667500Y-118114000D02*
X193667500Y-118614000D01*
G75*
G02*
X193442500Y-118839000I-225000J0D01*
G01*
X192992500Y-118839000D01*
G75*
G02*
X192767500Y-118614000I0J225000D01*
G01*
X192767500Y-118114000D01*
G75*
G02*
X192992500Y-117889000I225000J0D01*
G01*
X193442500Y-117889000D01*
G75*
G02*
X193667500Y-118114000I0J-225000D01*
G01*
G37*
%TD.AperFunction*%
%TO.P,C4,1*%
%TO.N,HSE_IN*%
%TA.AperFunction,SMDPad,CuDef*%
G36*
G01*
X195217500Y-118114000D02*
X195217500Y-118614000D01*
G75*
G02*
X194992500Y-118839000I-225000J0D01*
G01*
X194542500Y-118839000D01*
G75*
G02*
X194317500Y-118614000I0J225000D01*
G01*
X194317500Y-118114000D01*
G75*
G02*
X194542500Y-117889000I225000J0D01*
G01*
X194992500Y-117889000D01*
G75*
G02*
X195217500Y-118114000I0J-225000D01*
G01*
G37*
%TD.AperFunction*%
%TD*%
%TO.P,C5,1*%
%TO.N,HSE_OUT*%
%TA.AperFunction,SMDPad,CuDef*%
G36*
G01*
X195815500Y-118614000D02*
X195815500Y-118114000D01*
G75*
G02*
X196040500Y-117889000I225000J0D01*
G01*
X196490500Y-117889000D01*
G75*
G02*
X196715500Y-118114000I0J-225000D01*
G01*
X196715500Y-118614000D01*
G75*
G02*
X196490500Y-118839000I-225000J0D01*
G01*
X196040500Y-118839000D01*
G75*
G02*
X195815500Y-118614000I0J225000D01*
G01*
G37*
%TD.AperFunction*%
%TO.P,C5,2*%
%TO.N,GND*%
%TA.AperFunction,SMDPad,CuDef*%
G36*
G01*
X197365500Y-118614000D02*
X197365500Y-118114000D01*
G75*
G02*
X197590500Y-117889000I225000J0D01*
G01*
X198040500Y-117889000D01*
G75*
G02*
X198265500Y-118114000I0J-225000D01*
G01*
X198265500Y-118614000D01*
G75*
G02*
X198040500Y-118839000I-225000J0D01*
G01*
X197590500Y-118839000D01*
G75*
G02*
X197365500Y-118614000I0J225000D01*
G01*
G37*
%TD.AperFunction*%
%TD*%
%TO.P,C6,1*%
%TO.N,+3V3*%
%TA.AperFunction,SMDPad,CuDef*%
G36*
G01*
X199918500Y-106809000D02*
X200258500Y-106809000D01*
G75*
G02*
X200398500Y-106949000I0J-140000D01*
G01*
X200398500Y-107229000D01*
G75*
G02*
X200258500Y-107369000I-140000J0D01*
G01*
X199918500Y-107369000D01*
G75*
G02*
X199778500Y-107229000I0J140000D01*
G01*
X199778500Y-106949000D01*
G75*
G02*
X199918500Y-106809000I140000J0D01*
G01*
G37*
%TD.AperFunction*%
%TO.P,C6,2*%
%TO.N,GND*%
%TA.AperFunction,SMDPad,CuDef*%
G36*
G01*
X199918500Y-107769000D02*
X200258500Y-107769000D01*
G75*
G02*
X200398500Y-107909000I0J-140000D01*
G01*
X200398500Y-108189000D01*
G75*
G02*
X200258500Y-108329000I-140000J0D01*
G01*
X199918500Y-108329000D01*
G75*
G02*
X199778500Y-108189000I0J140000D01*
G01*
X199778500Y-107909000D01*
G75*
G02*
X199918500Y-107769000I140000J0D01*
G01*
G37*
%TD.AperFunction*%
%TD*%
%TO.P,C7,2*%
%TO.N,GND*%
%TA.AperFunction,SMDPad,CuDef*%
G36*
G01*
X193729000Y-113749000D02*
X193729000Y-114089000D01*
G75*
G02*
X193589000Y-114229000I-140000J0D01*
G01*
X193309000Y-114229000D01*
G75*
G02*
X193169000Y-114089000I0J140000D01*
G01*
X193169000Y-113749000D01*
G75*
G02*
X193309000Y-113609000I140000J0D01*
G01*
X193589000Y-113609000D01*
G75*
G02*
X193729000Y-113749000I0J-140000D01*
G01*
G37*
%TD.AperFunction*%
%TO.P,C7,1*%
%TO.N,+3V3*%
%TA.AperFunction,SMDPad,CuDef*%
G36*
G01*
X194689000Y-113749000D02*
X194689000Y-114089000D01*
G75*
G02*
X194549000Y-114229000I-140000J0D01*
G01*
X194269000Y-114229000D01*
G75*
G02*
X194129000Y-114089000I0J140000D01*
G01*
X194129000Y-113749000D01*
G75*
G02*
X194269000Y-113609000I140000J0D01*
G01*
X194549000Y-113609000D01*
G75*
G02*
X194689000Y-113749000I0J-140000D01*
G01*
G37*
%TD.AperFunction*%
%TD*%
%TO.P,C9,1*%
%TO.N,+3.3VA*%
%TA.AperFunction,SMDPad,CuDef*%
G36*
G01*
X199104800Y-118766400D02*
X199104800Y-118266400D01*
G75*
G02*
X199329800Y-118041400I225000J0D01*
G01*
X199779800Y-118041400D01*
G75*
G02*
X200004800Y-118266400I0J-225000D01*
G01*
X200004800Y-118766400D01*
G75*
G02*
X199779800Y-118991400I-225000J0D01*
G01*
X199329800Y-118991400D01*
G75*
G02*
X199104800Y-118766400I0J225000D01*
G01*
G37*
%TD.AperFunction*%
%TO.P,C9,2*%
%TO.N,GND*%
%TA.AperFunction,SMDPad,CuDef*%
G36*
G01*
X200654800Y-118766400D02*
X200654800Y-118266400D01*
G75*
G02*
X200879800Y-118041400I225000J0D01*
G01*
X201329800Y-118041400D01*
G75*
G02*
X201554800Y-118266400I0J-225000D01*
G01*
X201554800Y-118766400D01*
G75*
G02*
X201329800Y-118991400I-225000J0D01*
G01*
X200879800Y-118991400D01*
G75*
G02*
X200654800Y-118766400I0J225000D01*
G01*
G37*
%TD.AperFunction*%
%TD*%
%TO.P,C10,2*%
%TO.N,GND*%
%TA.AperFunction,SMDPad,CuDef*%
G36*
G01*
X200654800Y-117242400D02*
X200654800Y-116742400D01*
G75*
G02*
X200879800Y-116517400I225000J0D01*
G01*
X201329800Y-116517400D01*
G75*
G02*
X201554800Y-116742400I0J-225000D01*
G01*
X201554800Y-117242400D01*
G75*
G02*
X201329800Y-117467400I-225000J0D01*
G01*
X200879800Y-117467400D01*
G75*
G02*
X200654800Y-117242400I0J225000D01*
G01*
G37*
%TD.AperFunction*%
%TO.P,C10,1*%
%TO.N,+3.3VA*%
%TA.AperFunction,SMDPad,CuDef*%
G36*
G01*
X199104800Y-117242400D02*
X199104800Y-116742400D01*
G75*
G02*
X199329800Y-116517400I225000J0D01*
G01*
X199779800Y-116517400D01*
G75*
G02*
X200004800Y-116742400I0J-225000D01*
G01*
X200004800Y-117242400D01*
G75*
G02*
X199779800Y-117467400I-225000J0D01*
G01*
X199329800Y-117467400D01*
G75*
G02*
X199104800Y-117242400I0J225000D01*
G01*
G37*
%TD.AperFunction*%
%TD*%
%TO.P,FB1,2*%
%TO.N,VHIGH*%
%TA.AperFunction,SMDPad,CuDef*%
G36*
G01*
X195189000Y-98996750D02*
X195189000Y-98234250D01*
G75*
G02*
X195407750Y-98015500I218750J0D01*
G01*
X195845250Y-98015500D01*
G75*
G02*
X196064000Y-98234250I0J-218750D01*
G01*
X196064000Y-98996750D01*
G75*
G02*
X195845250Y-99215500I-218750J0D01*
G01*
X195407750Y-99215500D01*
G75*
G02*
X195189000Y-98996750I0J218750D01*
G01*
G37*
%TD.AperFunction*%
%TO.P,FB1,1*%
%TO.N,Net-(F1-Pad1)*%
%TA.AperFunction,SMDPad,CuDef*%
G36*
G01*
X193064000Y-98996750D02*
X193064000Y-98234250D01*
G75*
G02*
X193282750Y-98015500I218750J0D01*
G01*
X193720250Y-98015500D01*
G75*
G02*
X193939000Y-98234250I0J-218750D01*
G01*
X193939000Y-98996750D01*
G75*
G02*
X193720250Y-99215500I-218750J0D01*
G01*
X193282750Y-99215500D01*
G75*
G02*
X193064000Y-98996750I0J218750D01*
G01*
G37*
%TD.AperFunction*%
%TD*%
D16*
%TO.P,J1,6*%
%TO.N,Net-(J1-Pad6)*%
X195977000Y-94012500D03*
D17*
X199477000Y-96712500D03*
D18*
%TO.P,J1,2*%
%TO.N,USB_CONN_D-*%
X197627000Y-96712500D03*
%TO.P,J1,1*%
%TO.N,+5V*%
X198277000Y-96712500D03*
%TO.P,J1,5*%
%TO.N,GND*%
X195677000Y-96712500D03*
%TO.P,J1,4*%
%TO.N,N/C*%
X196327000Y-96712500D03*
%TO.P,J1,3*%
%TO.N,USB_CONN_D+*%
X196977000Y-96712500D03*
D17*
%TO.P,J1,6*%
%TO.N,Net-(J1-Pad6)*%
X194477000Y-96712500D03*
D16*
X197977000Y-94012500D03*
D19*
X200477000Y-94012500D03*
X193477000Y-94012500D03*
D20*
X194077000Y-94012500D03*
X199877000Y-94012500D03*
%TD*%
%TO.P,L1,1*%
%TO.N,+3V3*%
%TA.AperFunction,SMDPad,CuDef*%
G36*
G01*
X201554800Y-115212150D02*
X201554800Y-115724650D01*
G75*
G02*
X201336050Y-115943400I-218750J0D01*
G01*
X200898550Y-115943400D01*
G75*
G02*
X200679800Y-115724650I0J218750D01*
G01*
X200679800Y-115212150D01*
G75*
G02*
X200898550Y-114993400I218750J0D01*
G01*
X201336050Y-114993400D01*
G75*
G02*
X201554800Y-115212150I0J-218750D01*
G01*
G37*
%TD.AperFunction*%
%TO.P,L1,2*%
%TO.N,+3.3VA*%
%TA.AperFunction,SMDPad,CuDef*%
G36*
G01*
X199979800Y-115212150D02*
X199979800Y-115724650D01*
G75*
G02*
X199761050Y-115943400I-218750J0D01*
G01*
X199323550Y-115943400D01*
G75*
G02*
X199104800Y-115724650I0J218750D01*
G01*
X199104800Y-115212150D01*
G75*
G02*
X199323550Y-114993400I218750J0D01*
G01*
X199761050Y-114993400D01*
G75*
G02*
X199979800Y-115212150I0J-218750D01*
G01*
G37*
%TD.AperFunction*%
%TD*%
%TO.P,R2,1*%
%TO.N,GND*%
%TA.AperFunction,SMDPad,CuDef*%
G36*
G01*
X192426000Y-117176000D02*
X191876000Y-117176000D01*
G75*
G02*
X191676000Y-116976000I0J200000D01*
G01*
X191676000Y-116576000D01*
G75*
G02*
X191876000Y-116376000I200000J0D01*
G01*
X192426000Y-116376000D01*
G75*
G02*
X192626000Y-116576000I0J-200000D01*
G01*
X192626000Y-116976000D01*
G75*
G02*
X192426000Y-117176000I-200000J0D01*
G01*
G37*
%TD.AperFunction*%
%TO.P,R2,2*%
%TO.N,BOOT0*%
%TA.AperFunction,SMDPad,CuDef*%
G36*
G01*
X192426000Y-115526000D02*
X191876000Y-115526000D01*
G75*
G02*
X191676000Y-115326000I0J200000D01*
G01*
X191676000Y-114926000D01*
G75*
G02*
X191876000Y-114726000I200000J0D01*
G01*
X192426000Y-114726000D01*
G75*
G02*
X192626000Y-114926000I0J-200000D01*
G01*
X192626000Y-115326000D01*
G75*
G02*
X192426000Y-115526000I-200000J0D01*
G01*
G37*
%TD.AperFunction*%
%TD*%
D21*
%TO.P,U3,33*%
%TO.N,GND*%
X196469000Y-110299500D03*
%TO.P,U3,32*%
%TA.AperFunction,SMDPad,CuDef*%
G36*
G01*
X194406500Y-112174500D02*
X193656500Y-112174500D01*
G75*
G02*
X193594000Y-112112000I0J62500D01*
G01*
X193594000Y-111987000D01*
G75*
G02*
X193656500Y-111924500I62500J0D01*
G01*
X194406500Y-111924500D01*
G75*
G02*
X194469000Y-111987000I0J-62500D01*
G01*
X194469000Y-112112000D01*
G75*
G02*
X194406500Y-112174500I-62500J0D01*
G01*
G37*
%TD.AperFunction*%
%TO.P,U3,31*%
%TO.N,BOOT0*%
%TA.AperFunction,SMDPad,CuDef*%
G36*
G01*
X194406500Y-111674500D02*
X193656500Y-111674500D01*
G75*
G02*
X193594000Y-111612000I0J62500D01*
G01*
X193594000Y-111487000D01*
G75*
G02*
X193656500Y-111424500I62500J0D01*
G01*
X194406500Y-111424500D01*
G75*
G02*
X194469000Y-111487000I0J-62500D01*
G01*
X194469000Y-111612000D01*
G75*
G02*
X194406500Y-111674500I-62500J0D01*
G01*
G37*
%TD.AperFunction*%
%TO.P,U3,30*%
%TO.N,USART1_RX*%
%TA.AperFunction,SMDPad,CuDef*%
G36*
G01*
X194406500Y-111174500D02*
X193656500Y-111174500D01*
G75*
G02*
X193594000Y-111112000I0J62500D01*
G01*
X193594000Y-110987000D01*
G75*
G02*
X193656500Y-110924500I62500J0D01*
G01*
X194406500Y-110924500D01*
G75*
G02*
X194469000Y-110987000I0J-62500D01*
G01*
X194469000Y-111112000D01*
G75*
G02*
X194406500Y-111174500I-62500J0D01*
G01*
G37*
%TD.AperFunction*%
%TO.P,U3,29*%
%TO.N,USART1_TX*%
%TA.AperFunction,SMDPad,CuDef*%
G36*
G01*
X194406500Y-110674500D02*
X193656500Y-110674500D01*
G75*
G02*
X193594000Y-110612000I0J62500D01*
G01*
X193594000Y-110487000D01*
G75*
G02*
X193656500Y-110424500I62500J0D01*
G01*
X194406500Y-110424500D01*
G75*
G02*
X194469000Y-110487000I0J-62500D01*
G01*
X194469000Y-110612000D01*
G75*
G02*
X194406500Y-110674500I-62500J0D01*
G01*
G37*
%TD.AperFunction*%
%TO.P,U3,28*%
%TO.N,SAI1_SD_B*%
%TA.AperFunction,SMDPad,CuDef*%
G36*
G01*
X194406500Y-110174500D02*
X193656500Y-110174500D01*
G75*
G02*
X193594000Y-110112000I0J62500D01*
G01*
X193594000Y-109987000D01*
G75*
G02*
X193656500Y-109924500I62500J0D01*
G01*
X194406500Y-109924500D01*
G75*
G02*
X194469000Y-109987000I0J-62500D01*
G01*
X194469000Y-110112000D01*
G75*
G02*
X194406500Y-110174500I-62500J0D01*
G01*
G37*
%TD.AperFunction*%
%TO.P,U3,27*%
%TO.N,PB4*%
%TA.AperFunction,SMDPad,CuDef*%
G36*
G01*
X194406500Y-109674500D02*
X193656500Y-109674500D01*
G75*
G02*
X193594000Y-109612000I0J62500D01*
G01*
X193594000Y-109487000D01*
G75*
G02*
X193656500Y-109424500I62500J0D01*
G01*
X194406500Y-109424500D01*
G75*
G02*
X194469000Y-109487000I0J-62500D01*
G01*
X194469000Y-109612000D01*
G75*
G02*
X194406500Y-109674500I-62500J0D01*
G01*
G37*
%TD.AperFunction*%
%TO.P,U3,26*%
%TO.N,SAI1_SCK_B*%
%TA.AperFunction,SMDPad,CuDef*%
G36*
G01*
X194406500Y-109174500D02*
X193656500Y-109174500D01*
G75*
G02*
X193594000Y-109112000I0J62500D01*
G01*
X193594000Y-108987000D01*
G75*
G02*
X193656500Y-108924500I62500J0D01*
G01*
X194406500Y-108924500D01*
G75*
G02*
X194469000Y-108987000I0J-62500D01*
G01*
X194469000Y-109112000D01*
G75*
G02*
X194406500Y-109174500I-62500J0D01*
G01*
G37*
%TD.AperFunction*%
%TO.P,U3,25*%
%TO.N,PA15*%
%TA.AperFunction,SMDPad,CuDef*%
G36*
G01*
X194406500Y-108674500D02*
X193656500Y-108674500D01*
G75*
G02*
X193594000Y-108612000I0J62500D01*
G01*
X193594000Y-108487000D01*
G75*
G02*
X193656500Y-108424500I62500J0D01*
G01*
X194406500Y-108424500D01*
G75*
G02*
X194469000Y-108487000I0J-62500D01*
G01*
X194469000Y-108612000D01*
G75*
G02*
X194406500Y-108674500I-62500J0D01*
G01*
G37*
%TD.AperFunction*%
%TO.P,U3,24*%
%TO.N,SWCLK*%
%TA.AperFunction,SMDPad,CuDef*%
G36*
G01*
X194781500Y-108299500D02*
X194656500Y-108299500D01*
G75*
G02*
X194594000Y-108237000I0J62500D01*
G01*
X194594000Y-107487000D01*
G75*
G02*
X194656500Y-107424500I62500J0D01*
G01*
X194781500Y-107424500D01*
G75*
G02*
X194844000Y-107487000I0J-62500D01*
G01*
X194844000Y-108237000D01*
G75*
G02*
X194781500Y-108299500I-62500J0D01*
G01*
G37*
%TD.AperFunction*%
%TO.P,U3,23*%
%TO.N,SWDIO*%
%TA.AperFunction,SMDPad,CuDef*%
G36*
G01*
X195281500Y-108299500D02*
X195156500Y-108299500D01*
G75*
G02*
X195094000Y-108237000I0J62500D01*
G01*
X195094000Y-107487000D01*
G75*
G02*
X195156500Y-107424500I62500J0D01*
G01*
X195281500Y-107424500D01*
G75*
G02*
X195344000Y-107487000I0J-62500D01*
G01*
X195344000Y-108237000D01*
G75*
G02*
X195281500Y-108299500I-62500J0D01*
G01*
G37*
%TD.AperFunction*%
%TO.P,U3,22*%
%TO.N,CAN_TD*%
%TA.AperFunction,SMDPad,CuDef*%
G36*
G01*
X195781500Y-108299500D02*
X195656500Y-108299500D01*
G75*
G02*
X195594000Y-108237000I0J62500D01*
G01*
X195594000Y-107487000D01*
G75*
G02*
X195656500Y-107424500I62500J0D01*
G01*
X195781500Y-107424500D01*
G75*
G02*
X195844000Y-107487000I0J-62500D01*
G01*
X195844000Y-108237000D01*
G75*
G02*
X195781500Y-108299500I-62500J0D01*
G01*
G37*
%TD.AperFunction*%
%TO.P,U3,21*%
%TO.N,CAN_RD*%
%TA.AperFunction,SMDPad,CuDef*%
G36*
G01*
X196281500Y-108299500D02*
X196156500Y-108299500D01*
G75*
G02*
X196094000Y-108237000I0J62500D01*
G01*
X196094000Y-107487000D01*
G75*
G02*
X196156500Y-107424500I62500J0D01*
G01*
X196281500Y-107424500D01*
G75*
G02*
X196344000Y-107487000I0J-62500D01*
G01*
X196344000Y-108237000D01*
G75*
G02*
X196281500Y-108299500I-62500J0D01*
G01*
G37*
%TD.AperFunction*%
%TO.P,U3,20*%
%TO.N,I2C1_SDA*%
%TA.AperFunction,SMDPad,CuDef*%
G36*
G01*
X196781500Y-108299500D02*
X196656500Y-108299500D01*
G75*
G02*
X196594000Y-108237000I0J62500D01*
G01*
X196594000Y-107487000D01*
G75*
G02*
X196656500Y-107424500I62500J0D01*
G01*
X196781500Y-107424500D01*
G75*
G02*
X196844000Y-107487000I0J-62500D01*
G01*
X196844000Y-108237000D01*
G75*
G02*
X196781500Y-108299500I-62500J0D01*
G01*
G37*
%TD.AperFunction*%
%TO.P,U3,19*%
%TO.N,I2C1_SCL*%
%TA.AperFunction,SMDPad,CuDef*%
G36*
G01*
X197281500Y-108299500D02*
X197156500Y-108299500D01*
G75*
G02*
X197094000Y-108237000I0J62500D01*
G01*
X197094000Y-107487000D01*
G75*
G02*
X197156500Y-107424500I62500J0D01*
G01*
X197281500Y-107424500D01*
G75*
G02*
X197344000Y-107487000I0J-62500D01*
G01*
X197344000Y-108237000D01*
G75*
G02*
X197281500Y-108299500I-62500J0D01*
G01*
G37*
%TD.AperFunction*%
%TO.P,U3,18*%
%TO.N,PA8*%
%TA.AperFunction,SMDPad,CuDef*%
G36*
G01*
X197781500Y-108299500D02*
X197656500Y-108299500D01*
G75*
G02*
X197594000Y-108237000I0J62500D01*
G01*
X197594000Y-107487000D01*
G75*
G02*
X197656500Y-107424500I62500J0D01*
G01*
X197781500Y-107424500D01*
G75*
G02*
X197844000Y-107487000I0J-62500D01*
G01*
X197844000Y-108237000D01*
G75*
G02*
X197781500Y-108299500I-62500J0D01*
G01*
G37*
%TD.AperFunction*%
%TO.P,U3,17*%
%TO.N,+3V3*%
%TA.AperFunction,SMDPad,CuDef*%
G36*
G01*
X198281500Y-108299500D02*
X198156500Y-108299500D01*
G75*
G02*
X198094000Y-108237000I0J62500D01*
G01*
X198094000Y-107487000D01*
G75*
G02*
X198156500Y-107424500I62500J0D01*
G01*
X198281500Y-107424500D01*
G75*
G02*
X198344000Y-107487000I0J-62500D01*
G01*
X198344000Y-108237000D01*
G75*
G02*
X198281500Y-108299500I-62500J0D01*
G01*
G37*
%TD.AperFunction*%
%TO.P,U3,16*%
%TO.N,GND*%
%TA.AperFunction,SMDPad,CuDef*%
G36*
G01*
X199281500Y-108674500D02*
X198531500Y-108674500D01*
G75*
G02*
X198469000Y-108612000I0J62500D01*
G01*
X198469000Y-108487000D01*
G75*
G02*
X198531500Y-108424500I62500J0D01*
G01*
X199281500Y-108424500D01*
G75*
G02*
X199344000Y-108487000I0J-62500D01*
G01*
X199344000Y-108612000D01*
G75*
G02*
X199281500Y-108674500I-62500J0D01*
G01*
G37*
%TD.AperFunction*%
%TO.P,U3,15*%
%TO.N,PB1*%
%TA.AperFunction,SMDPad,CuDef*%
G36*
G01*
X199281500Y-109174500D02*
X198531500Y-109174500D01*
G75*
G02*
X198469000Y-109112000I0J62500D01*
G01*
X198469000Y-108987000D01*
G75*
G02*
X198531500Y-108924500I62500J0D01*
G01*
X199281500Y-108924500D01*
G75*
G02*
X199344000Y-108987000I0J-62500D01*
G01*
X199344000Y-109112000D01*
G75*
G02*
X199281500Y-109174500I-62500J0D01*
G01*
G37*
%TD.AperFunction*%
%TO.P,U3,14*%
%TO.N,SPI1_SS*%
%TA.AperFunction,SMDPad,CuDef*%
G36*
G01*
X199281500Y-109674500D02*
X198531500Y-109674500D01*
G75*
G02*
X198469000Y-109612000I0J62500D01*
G01*
X198469000Y-109487000D01*
G75*
G02*
X198531500Y-109424500I62500J0D01*
G01*
X199281500Y-109424500D01*
G75*
G02*
X199344000Y-109487000I0J-62500D01*
G01*
X199344000Y-109612000D01*
G75*
G02*
X199281500Y-109674500I-62500J0D01*
G01*
G37*
%TD.AperFunction*%
%TO.P,U3,13*%
%TO.N,SPI1_MOSI*%
%TA.AperFunction,SMDPad,CuDef*%
G36*
G01*
X199281500Y-110174500D02*
X198531500Y-110174500D01*
G75*
G02*
X198469000Y-110112000I0J62500D01*
G01*
X198469000Y-109987000D01*
G75*
G02*
X198531500Y-109924500I62500J0D01*
G01*
X199281500Y-109924500D01*
G75*
G02*
X199344000Y-109987000I0J-62500D01*
G01*
X199344000Y-110112000D01*
G75*
G02*
X199281500Y-110174500I-62500J0D01*
G01*
G37*
%TD.AperFunction*%
%TO.P,U3,12*%
%TO.N,SPI1_MISO*%
%TA.AperFunction,SMDPad,CuDef*%
G36*
G01*
X199281500Y-110674500D02*
X198531500Y-110674500D01*
G75*
G02*
X198469000Y-110612000I0J62500D01*
G01*
X198469000Y-110487000D01*
G75*
G02*
X198531500Y-110424500I62500J0D01*
G01*
X199281500Y-110424500D01*
G75*
G02*
X199344000Y-110487000I0J-62500D01*
G01*
X199344000Y-110612000D01*
G75*
G02*
X199281500Y-110674500I-62500J0D01*
G01*
G37*
%TD.AperFunction*%
%TO.P,U3,11*%
%TO.N,SPI1_SCK*%
%TA.AperFunction,SMDPad,CuDef*%
G36*
G01*
X199281500Y-111174500D02*
X198531500Y-111174500D01*
G75*
G02*
X198469000Y-111112000I0J62500D01*
G01*
X198469000Y-110987000D01*
G75*
G02*
X198531500Y-110924500I62500J0D01*
G01*
X199281500Y-110924500D01*
G75*
G02*
X199344000Y-110987000I0J-62500D01*
G01*
X199344000Y-111112000D01*
G75*
G02*
X199281500Y-111174500I-62500J0D01*
G01*
G37*
%TD.AperFunction*%
%TO.P,U3,10*%
%TO.N,SAI1_FS_B*%
%TA.AperFunction,SMDPad,CuDef*%
G36*
G01*
X199281500Y-111674500D02*
X198531500Y-111674500D01*
G75*
G02*
X198469000Y-111612000I0J62500D01*
G01*
X198469000Y-111487000D01*
G75*
G02*
X198531500Y-111424500I62500J0D01*
G01*
X199281500Y-111424500D01*
G75*
G02*
X199344000Y-111487000I0J-62500D01*
G01*
X199344000Y-111612000D01*
G75*
G02*
X199281500Y-111674500I-62500J0D01*
G01*
G37*
%TD.AperFunction*%
%TO.P,U3,9*%
%TO.N,PA3*%
%TA.AperFunction,SMDPad,CuDef*%
G36*
G01*
X199281500Y-112174500D02*
X198531500Y-112174500D01*
G75*
G02*
X198469000Y-112112000I0J62500D01*
G01*
X198469000Y-111987000D01*
G75*
G02*
X198531500Y-111924500I62500J0D01*
G01*
X199281500Y-111924500D01*
G75*
G02*
X199344000Y-111987000I0J-62500D01*
G01*
X199344000Y-112112000D01*
G75*
G02*
X199281500Y-112174500I-62500J0D01*
G01*
G37*
%TD.AperFunction*%
%TO.P,U3,8*%
%TO.N,PA2*%
%TA.AperFunction,SMDPad,CuDef*%
G36*
G01*
X198281500Y-113174500D02*
X198156500Y-113174500D01*
G75*
G02*
X198094000Y-113112000I0J62500D01*
G01*
X198094000Y-112362000D01*
G75*
G02*
X198156500Y-112299500I62500J0D01*
G01*
X198281500Y-112299500D01*
G75*
G02*
X198344000Y-112362000I0J-62500D01*
G01*
X198344000Y-113112000D01*
G75*
G02*
X198281500Y-113174500I-62500J0D01*
G01*
G37*
%TD.AperFunction*%
%TO.P,U3,7*%
%TO.N,PA1*%
%TA.AperFunction,SMDPad,CuDef*%
G36*
G01*
X197781500Y-113174500D02*
X197656500Y-113174500D01*
G75*
G02*
X197594000Y-113112000I0J62500D01*
G01*
X197594000Y-112362000D01*
G75*
G02*
X197656500Y-112299500I62500J0D01*
G01*
X197781500Y-112299500D01*
G75*
G02*
X197844000Y-112362000I0J-62500D01*
G01*
X197844000Y-113112000D01*
G75*
G02*
X197781500Y-113174500I-62500J0D01*
G01*
G37*
%TD.AperFunction*%
%TO.P,U3,6*%
%TO.N,PA0*%
%TA.AperFunction,SMDPad,CuDef*%
G36*
G01*
X197281500Y-113174500D02*
X197156500Y-113174500D01*
G75*
G02*
X197094000Y-113112000I0J62500D01*
G01*
X197094000Y-112362000D01*
G75*
G02*
X197156500Y-112299500I62500J0D01*
G01*
X197281500Y-112299500D01*
G75*
G02*
X197344000Y-112362000I0J-62500D01*
G01*
X197344000Y-113112000D01*
G75*
G02*
X197281500Y-113174500I-62500J0D01*
G01*
G37*
%TD.AperFunction*%
%TO.P,U3,5*%
%TO.N,+3.3VA*%
%TA.AperFunction,SMDPad,CuDef*%
G36*
G01*
X196781500Y-113174500D02*
X196656500Y-113174500D01*
G75*
G02*
X196594000Y-113112000I0J62500D01*
G01*
X196594000Y-112362000D01*
G75*
G02*
X196656500Y-112299500I62500J0D01*
G01*
X196781500Y-112299500D01*
G75*
G02*
X196844000Y-112362000I0J-62500D01*
G01*
X196844000Y-113112000D01*
G75*
G02*
X196781500Y-113174500I-62500J0D01*
G01*
G37*
%TD.AperFunction*%
%TO.P,U3,4*%
%TO.N,NRST*%
%TA.AperFunction,SMDPad,CuDef*%
G36*
G01*
X196281500Y-113174500D02*
X196156500Y-113174500D01*
G75*
G02*
X196094000Y-113112000I0J62500D01*
G01*
X196094000Y-112362000D01*
G75*
G02*
X196156500Y-112299500I62500J0D01*
G01*
X196281500Y-112299500D01*
G75*
G02*
X196344000Y-112362000I0J-62500D01*
G01*
X196344000Y-113112000D01*
G75*
G02*
X196281500Y-113174500I-62500J0D01*
G01*
G37*
%TD.AperFunction*%
%TO.P,U3,3*%
%TO.N,HSE_OUT*%
%TA.AperFunction,SMDPad,CuDef*%
G36*
G01*
X195781500Y-113174500D02*
X195656500Y-113174500D01*
G75*
G02*
X195594000Y-113112000I0J62500D01*
G01*
X195594000Y-112362000D01*
G75*
G02*
X195656500Y-112299500I62500J0D01*
G01*
X195781500Y-112299500D01*
G75*
G02*
X195844000Y-112362000I0J-62500D01*
G01*
X195844000Y-113112000D01*
G75*
G02*
X195781500Y-113174500I-62500J0D01*
G01*
G37*
%TD.AperFunction*%
%TO.P,U3,2*%
%TO.N,HSE_IN*%
%TA.AperFunction,SMDPad,CuDef*%
G36*
G01*
X195281500Y-113174500D02*
X195156500Y-113174500D01*
G75*
G02*
X195094000Y-113112000I0J62500D01*
G01*
X195094000Y-112362000D01*
G75*
G02*
X195156500Y-112299500I62500J0D01*
G01*
X195281500Y-112299500D01*
G75*
G02*
X195344000Y-112362000I0J-62500D01*
G01*
X195344000Y-113112000D01*
G75*
G02*
X195281500Y-113174500I-62500J0D01*
G01*
G37*
%TD.AperFunction*%
%TO.P,U3,1*%
%TO.N,+3V3*%
%TA.AperFunction,SMDPad,CuDef*%
G36*
G01*
X194781500Y-113174500D02*
X194656500Y-113174500D01*
G75*
G02*
X194594000Y-113112000I0J62500D01*
G01*
X194594000Y-112362000D01*
G75*
G02*
X194656500Y-112299500I62500J0D01*
G01*
X194781500Y-112299500D01*
G75*
G02*
X194844000Y-112362000I0J-62500D01*
G01*
X194844000Y-113112000D01*
G75*
G02*
X194781500Y-113174500I-62500J0D01*
G01*
G37*
%TD.AperFunction*%
%TD*%
D22*
%TO.P,Y1,1*%
%TO.N,HSE_IN*%
X193703000Y-116459000D03*
%TO.P,Y1,2*%
%TO.N,HSE_OUT*%
X197203000Y-116459000D03*
%TD*%
%TO.P,R5,1*%
%TO.N,VHIGH*%
%TA.AperFunction,SMDPad,CuDef*%
G36*
G01*
X195281000Y-105389000D02*
X195281000Y-105939000D01*
G75*
G02*
X195081000Y-106139000I-200000J0D01*
G01*
X194681000Y-106139000D01*
G75*
G02*
X194481000Y-105939000I0J200000D01*
G01*
X194481000Y-105389000D01*
G75*
G02*
X194681000Y-105189000I200000J0D01*
G01*
X195081000Y-105189000D01*
G75*
G02*
X195281000Y-105389000I0J-200000D01*
G01*
G37*
%TD.AperFunction*%
%TO.P,R5,2*%
%TO.N,Net-(R5-Pad2)*%
%TA.AperFunction,SMDPad,CuDef*%
G36*
G01*
X193631000Y-105389000D02*
X193631000Y-105939000D01*
G75*
G02*
X193431000Y-106139000I-200000J0D01*
G01*
X193031000Y-106139000D01*
G75*
G02*
X192831000Y-105939000I0J200000D01*
G01*
X192831000Y-105389000D01*
G75*
G02*
X193031000Y-105189000I200000J0D01*
G01*
X193431000Y-105189000D01*
G75*
G02*
X193631000Y-105389000I0J-200000D01*
G01*
G37*
%TD.AperFunction*%
%TD*%
D23*
%TO.P,Q1,1*%
%TO.N,GND*%
X193340000Y-104020000D03*
%TO.P,Q1,2*%
%TO.N,Net-(D2-Pad1)*%
X193340000Y-102120000D03*
%TO.P,Q1,3*%
%TO.N,+VIN*%
X191340000Y-103070000D03*
%TD*%
D24*
%TO.N,GND*%
X196469000Y-110236000D03*
X195326000Y-111379000D03*
X197612000Y-111379000D03*
X197612000Y-109220000D03*
X195326000Y-109220000D03*
X196476500Y-99695000D03*
X195389500Y-95631000D03*
X194578577Y-99104007D03*
X191135000Y-104076500D03*
X199245903Y-107860403D03*
X193392918Y-114877116D03*
X192087500Y-118491000D03*
X202438000Y-117602000D03*
X193040000Y-124587000D03*
%TO.N,NRST*%
X196574153Y-114804847D03*
X195199000Y-124714000D03*
%TO.N,+3V3*%
X197104000Y-103148998D03*
X196405500Y-101346000D03*
X200410814Y-106430814D03*
X194373500Y-114681000D03*
X201422000Y-91821000D03*
X202057000Y-116332000D03*
X192405000Y-121031000D03*
%TO.N,PA1*%
X199517000Y-114173000D03*
%TO.N,Net-(D2-Pad1)*%
X192913000Y-97155000D03*
X192651768Y-102973464D03*
%TO.N,Net-(J1-Pad6)*%
X200787000Y-96393000D03*
X196977000Y-95250000D03*
%TO.N,PA0*%
X198496347Y-114224510D03*
%TO.N,I2C1_SCL*%
X201269600Y-103454200D03*
%TO.N,I2C1_SDA*%
X200227303Y-103927303D03*
%TO.N,PA2*%
X200469500Y-113538000D03*
%TO.N,PB1*%
X201803000Y-108775500D03*
%TO.N,PA8*%
X202528000Y-105333800D03*
%TO.N,CAN_TD*%
X198394500Y-101749001D03*
%TD*%
D25*
%TO.N,GND*%
X200060500Y-108077000D02*
X200088500Y-108049000D01*
X199379000Y-108077000D02*
X200060500Y-108077000D01*
D26*
X200956000Y-108049000D02*
X200088500Y-108049000D01*
X201358500Y-107646500D02*
X200956000Y-108049000D01*
X194101000Y-103124000D02*
X193278000Y-103947000D01*
X194988000Y-103124000D02*
X194101000Y-103124000D01*
D27*
X198144510Y-100864012D02*
X198144510Y-99897010D01*
X198144510Y-99897010D02*
X197294500Y-99047000D01*
X198279499Y-100999001D02*
X198144510Y-100864012D01*
X199784499Y-100999001D02*
X198279499Y-100999001D01*
X199834500Y-100949000D02*
X199784499Y-100999001D01*
X199834500Y-100119000D02*
X199834500Y-100949000D01*
D25*
X197124500Y-99047000D02*
X196476500Y-99695000D01*
X197294500Y-99047000D02*
X197124500Y-99047000D01*
X195677000Y-95918500D02*
X195389500Y-95631000D01*
X195677000Y-96712500D02*
X195677000Y-95918500D01*
D27*
X193852500Y-99771500D02*
X194310000Y-99314000D01*
X193852500Y-100266500D02*
X193852500Y-99771500D01*
D28*
X193148500Y-104076500D02*
X191135000Y-104076500D01*
X193278000Y-103947000D02*
X193148500Y-104076500D01*
X199434500Y-108049000D02*
X199245903Y-107860403D01*
X200088500Y-108049000D02*
X199434500Y-108049000D01*
X193392918Y-113975082D02*
X193392918Y-114877116D01*
X193449000Y-113919000D02*
X193392918Y-113975082D01*
X192214500Y-118364000D02*
X192087500Y-118491000D01*
X193217500Y-118364000D02*
X192214500Y-118364000D01*
D27*
X193449000Y-112632000D02*
X193449000Y-113919000D01*
X194031500Y-112049500D02*
X193449000Y-112632000D01*
D26*
X193259802Y-114744000D02*
X193392918Y-114877116D01*
X201104800Y-116992400D02*
X201104800Y-118516400D01*
X192151000Y-118427500D02*
X192087500Y-118491000D01*
X192151000Y-116776000D02*
X192151000Y-118427500D01*
X196575600Y-119956000D02*
X196787000Y-120167400D01*
X197815500Y-119138900D02*
X196787000Y-120167400D01*
X197815500Y-118364000D02*
X197815500Y-119138900D01*
X201523600Y-118516400D02*
X202438000Y-117602000D01*
X201104800Y-118516400D02*
X201523600Y-118516400D01*
X195957000Y-123639000D02*
X196787000Y-122809000D01*
X195267400Y-123639000D02*
X195957000Y-123639000D01*
X196787000Y-124133600D02*
X196787000Y-125450600D01*
X196292400Y-123639000D02*
X196787000Y-124133600D01*
X195267400Y-123639000D02*
X196292400Y-123639000D01*
X191117400Y-123639000D02*
X195267400Y-123639000D01*
X192092000Y-123639000D02*
X193040000Y-124587000D01*
X191117400Y-123639000D02*
X192092000Y-123639000D01*
X196787000Y-122809000D02*
X196787000Y-120167400D01*
D27*
X198906500Y-108199806D02*
X199245903Y-107860403D01*
X198906500Y-108549500D02*
X198906500Y-108199806D01*
X199407000Y-108049000D02*
X198906500Y-108549500D01*
X200088500Y-108049000D02*
X199407000Y-108049000D01*
D26*
%TO.N,VHIGH*%
X195626500Y-100042500D02*
X195402500Y-100266500D01*
X195626500Y-98615500D02*
X195626500Y-100042500D01*
X195402500Y-101759500D02*
X194988000Y-102174000D01*
X195402500Y-100266500D02*
X195402500Y-101759500D01*
X195703002Y-102174000D02*
X194988000Y-102174000D01*
X195968001Y-104976999D02*
X195968001Y-102438999D01*
X195968001Y-102438999D02*
X195703002Y-102174000D01*
X195281000Y-105664000D02*
X195968001Y-104976999D01*
X194881000Y-105664000D02*
X195281000Y-105664000D01*
X190829044Y-101191510D02*
X190022001Y-100384467D01*
X194988000Y-101349000D02*
X194830510Y-101191510D01*
X190022001Y-100384467D02*
X190022001Y-96169001D01*
X194830510Y-101191510D02*
X190829044Y-101191510D01*
X190022001Y-96169001D02*
X188722000Y-94869000D01*
X194988000Y-102174000D02*
X194988000Y-101349000D01*
D25*
%TO.N,NRST*%
X196219000Y-114449694D02*
X196574153Y-114804847D01*
X196219000Y-112737000D02*
X196219000Y-114449694D01*
X195199000Y-125745600D02*
X195242400Y-125789000D01*
X195199000Y-124714000D02*
X195199000Y-125745600D01*
X189162000Y-125789000D02*
X188722000Y-125349000D01*
X191117400Y-125789000D02*
X189162000Y-125789000D01*
X194124000Y-125789000D02*
X195199000Y-124714000D01*
X191117400Y-125789000D02*
X194124000Y-125789000D01*
D26*
%TO.N,+3V3*%
X200956000Y-106221500D02*
X201358500Y-106221500D01*
X200088500Y-107089000D02*
X200956000Y-106221500D01*
X197188000Y-100703500D02*
X197294500Y-100597000D01*
X203962000Y-92329000D02*
X203454000Y-92329000D01*
X197104000Y-102258000D02*
X197188000Y-102174000D01*
X197104000Y-103148998D02*
X197104000Y-102258000D01*
D29*
X197294500Y-102067500D02*
X197188000Y-102174000D01*
X197294500Y-100597000D02*
X197294500Y-102067500D01*
X197188000Y-102128500D02*
X196405500Y-101346000D01*
X197188000Y-102174000D02*
X197188000Y-102128500D01*
X197154500Y-100597000D02*
X196405500Y-101346000D01*
X197294500Y-100597000D02*
X197154500Y-100597000D01*
D26*
X200620128Y-106221500D02*
X200410814Y-106430814D01*
X201358500Y-106221500D02*
X200620128Y-106221500D01*
X194409000Y-114645500D02*
X194373500Y-114681000D01*
X194409000Y-113919000D02*
X194409000Y-114645500D01*
X201930000Y-92329000D02*
X201422000Y-91821000D01*
X203962000Y-92329000D02*
X201930000Y-92329000D01*
D27*
X198907304Y-107089000D02*
X200088500Y-107089000D01*
X198219000Y-107777304D02*
X198907304Y-107089000D01*
X198219000Y-107862000D02*
X198219000Y-107777304D01*
X194719000Y-113609000D02*
X194409000Y-113919000D01*
X194719000Y-112737000D02*
X194719000Y-113609000D01*
D26*
X201193400Y-115468400D02*
X202057000Y-116332000D01*
X201117300Y-115468400D02*
X201193400Y-115468400D01*
X191117400Y-122106000D02*
X195242400Y-122106000D01*
X191330000Y-122106000D02*
X192405000Y-121031000D01*
X191117400Y-122106000D02*
X191330000Y-122106000D01*
D25*
%TO.N,HSE_IN*%
X195219000Y-114943000D02*
X193703000Y-116459000D01*
X195219000Y-112737000D02*
X195219000Y-114943000D01*
X193703000Y-117299500D02*
X194767500Y-118364000D01*
X193703000Y-116459000D02*
X193703000Y-117299500D01*
%TO.N,HSE_OUT*%
X195719000Y-114975000D02*
X197203000Y-116459000D01*
X195719000Y-112737000D02*
X195719000Y-114975000D01*
X197203000Y-117426500D02*
X196265500Y-118364000D01*
X197203000Y-116459000D02*
X197203000Y-117426500D01*
D26*
%TO.N,+3.3VA*%
X199542300Y-116979900D02*
X199554800Y-116992400D01*
X199542300Y-115468400D02*
X199542300Y-116979900D01*
X199554800Y-116992400D02*
X199554800Y-118516400D01*
D25*
X198692058Y-115468400D02*
X199542300Y-115468400D01*
X196719000Y-113495342D02*
X198692058Y-115468400D01*
X196719000Y-112737000D02*
X196719000Y-113495342D01*
D26*
%TO.N,Net-(D1-Pad1)*%
X198437000Y-125450600D02*
X199897900Y-125450600D01*
D25*
%TO.N,PA1*%
X198843510Y-113499510D02*
X199517000Y-114173000D01*
X197995988Y-113499510D02*
X198843510Y-113499510D01*
X197719000Y-113222522D02*
X197995988Y-113499510D01*
X197719000Y-112737000D02*
X197719000Y-113222522D01*
X201472900Y-125298100D02*
X201472900Y-125450600D01*
X203962000Y-122809000D02*
X201472900Y-125298100D01*
D26*
%TO.N,Net-(D2-Pad1)*%
X191452500Y-95185500D02*
X191452500Y-97025000D01*
X192783000Y-97025000D02*
X192913000Y-97155000D01*
X191452500Y-97025000D02*
X192783000Y-97025000D01*
X192651768Y-102673232D02*
X193278000Y-102047000D01*
X192651768Y-102973464D02*
X192651768Y-102673232D01*
%TO.N,+5V*%
X200786939Y-95537499D02*
X198912999Y-95537499D01*
X201527010Y-94797428D02*
X200786939Y-95537499D01*
X201527010Y-93227572D02*
X201527010Y-94797428D01*
X200184938Y-91885500D02*
X201527010Y-93227572D01*
X198912999Y-95537499D02*
X198301999Y-96148499D01*
X191452500Y-91885500D02*
X200184938Y-91885500D01*
D27*
X199834500Y-102319000D02*
X199834500Y-101917500D01*
X201537001Y-94807419D02*
X201527010Y-94797428D01*
X201389501Y-100999001D02*
X201537001Y-100851501D01*
X200619497Y-100999001D02*
X201389501Y-100999001D01*
X199834500Y-101783998D02*
X200619497Y-100999001D01*
X199834500Y-102319000D02*
X199834500Y-101783998D01*
X201537001Y-100851501D02*
X201537001Y-94807419D01*
D26*
%TO.N,Net-(F1-Pad1)*%
X192662000Y-98615500D02*
X191452500Y-99825000D01*
X193501500Y-98615500D02*
X192662000Y-98615500D01*
%TO.N,+VIN*%
X188722000Y-100441000D02*
X191278000Y-102997000D01*
X188722000Y-99949000D02*
X188722000Y-100441000D01*
%TO.N,Net-(J1-Pad6)*%
X199877000Y-94012500D02*
X197977000Y-94012500D01*
X197977000Y-94012500D02*
X195977000Y-94012500D01*
X195977000Y-94012500D02*
X194077000Y-94012500D01*
X194077000Y-96312500D02*
X194477000Y-96712500D01*
X194077000Y-94012500D02*
X194077000Y-96312500D01*
X199877000Y-94012500D02*
X193477000Y-94012500D01*
D27*
X200467500Y-96712500D02*
X200787000Y-96393000D01*
X199477000Y-96712500D02*
X200467500Y-96712500D01*
X196977000Y-95012500D02*
X197977000Y-94012500D01*
X196977000Y-95250000D02*
X196977000Y-95012500D01*
D30*
%TO.N,USB_CONN_D-*%
X200459501Y-99794001D02*
X200784500Y-100119000D01*
X200459501Y-99348999D02*
X200459501Y-99794001D01*
X197836999Y-97687501D02*
X198353001Y-97687501D01*
X199954499Y-99288999D02*
X200399501Y-99288999D01*
X198353001Y-97687501D02*
X199954499Y-99288999D01*
X197627000Y-96712500D02*
X197527000Y-96812500D01*
X197527000Y-96812500D02*
X197527000Y-97377502D01*
X197527000Y-97377502D02*
X197836999Y-97687501D01*
X200399501Y-99288999D02*
X200459501Y-99348999D01*
%TO.N,USB_CONN_D+*%
X197077000Y-96812500D02*
X197077000Y-97563885D01*
X197077000Y-97563885D02*
X197650607Y-98137492D01*
X196977000Y-96712500D02*
X197077000Y-96812500D01*
X197650607Y-98137492D02*
X198166596Y-98137492D01*
X198166596Y-98137492D02*
X198884500Y-98855397D01*
X198884500Y-98855397D02*
X198884500Y-100119000D01*
D25*
%TO.N,SPI1_SS*%
X202528001Y-109187001D02*
X202528001Y-106462999D01*
X201113520Y-109222522D02*
X201454999Y-109564001D01*
X199855410Y-109222522D02*
X201113520Y-109222522D01*
X202151001Y-109564001D02*
X202528001Y-109187001D01*
X199528432Y-109549500D02*
X199855410Y-109222522D01*
X202528001Y-106462999D02*
X203962000Y-105029000D01*
X201454999Y-109564001D02*
X202151001Y-109564001D01*
X198906500Y-109549500D02*
X199528432Y-109549500D01*
%TO.N,SPI1_MOSI*%
X198906500Y-110049500D02*
X199957500Y-110049500D01*
X201109588Y-109855000D02*
X201268599Y-110014011D01*
X200152000Y-109855000D02*
X201109588Y-109855000D01*
X199957500Y-110049500D02*
X200152000Y-109855000D01*
X202337402Y-110014010D02*
X202978011Y-109373401D01*
X201268599Y-110014011D02*
X202337402Y-110014010D01*
X202978011Y-108552989D02*
X203962000Y-107569000D01*
X202978011Y-109373401D02*
X202978011Y-108552989D01*
%TO.N,SPI1_MISO*%
X203521500Y-110549500D02*
X203962000Y-110109000D01*
X198906500Y-110549500D02*
X203521500Y-110549500D01*
%TO.N,SAI1_FS_B*%
X200322500Y-111549500D02*
X203962000Y-115189000D01*
X198906500Y-111549500D02*
X200322500Y-111549500D01*
%TO.N,SPI1_SCK*%
X202362500Y-111049500D02*
X203962000Y-112649000D01*
X198906500Y-111049500D02*
X202362500Y-111049500D01*
%TO.N,PA0*%
X198084578Y-114224510D02*
X198496347Y-114224510D01*
X197219000Y-113358932D02*
X198084578Y-114224510D01*
X197219000Y-112737000D02*
X197219000Y-113358932D01*
%TO.N,I2C1_SCL*%
X198359634Y-106099434D02*
X198691582Y-106099434D01*
X197219000Y-107240068D02*
X198359634Y-106099434D01*
X200138711Y-104652305D02*
X200575304Y-104652304D01*
X198691582Y-106099434D02*
X200138711Y-104652305D01*
X201269600Y-103958008D02*
X201269600Y-103454200D01*
X200575304Y-104652304D02*
X201269600Y-103958008D01*
X197219000Y-107862000D02*
X197219000Y-107240068D01*
%TO.N,I2C1_SDA*%
X198505180Y-105649426D02*
X200227303Y-103927303D01*
X198173232Y-105649426D02*
X198505180Y-105649426D01*
X196719000Y-107103658D02*
X198173232Y-105649426D01*
X196719000Y-107862000D02*
X196719000Y-107103658D01*
%TO.N,SAI1_SCK_B*%
X189781500Y-109049500D02*
X188722000Y-110109000D01*
X194031500Y-109049500D02*
X189781500Y-109049500D01*
%TO.N,PB4*%
X191821500Y-109549500D02*
X188722000Y-112649000D01*
X194031500Y-109549500D02*
X191821500Y-109549500D01*
%TO.N,BOOT0*%
X192151000Y-112944478D02*
X192151000Y-115126000D01*
X193545978Y-111549500D02*
X192151000Y-112944478D01*
X194031500Y-111549500D02*
X193545978Y-111549500D01*
X191117400Y-116159600D02*
X191117400Y-119956000D01*
X192151000Y-115126000D02*
X191117400Y-116159600D01*
D27*
X191117400Y-119956000D02*
X195267400Y-119956000D01*
D25*
%TO.N,SWDIO*%
X188722000Y-103181002D02*
X188722000Y-102489000D01*
X192005008Y-106464010D02*
X188722000Y-103181002D01*
X194306532Y-106464010D02*
X192005008Y-106464010D01*
X195219000Y-107376478D02*
X194306532Y-106464010D01*
X195219000Y-107862000D02*
X195219000Y-107376478D01*
%TO.N,SWCLK*%
X190607020Y-106914020D02*
X188722000Y-105029000D01*
X193838020Y-106914020D02*
X190607020Y-106914020D01*
X194719000Y-107795000D02*
X193838020Y-106914020D01*
X194719000Y-107862000D02*
X194719000Y-107795000D01*
D26*
%TO.N,Net-(D3-Pad1)*%
X199897900Y-122809000D02*
X198437000Y-122809000D01*
D25*
%TO.N,PA2*%
X199668500Y-112737000D02*
X200469500Y-113538000D01*
X198219000Y-112737000D02*
X199668500Y-112737000D01*
X201472900Y-122758100D02*
X201472900Y-122809000D01*
X203962000Y-120269000D02*
X201472900Y-122758100D01*
D26*
%TO.N,Net-(D4-Pad1)*%
X198437000Y-120167400D02*
X199897900Y-120167400D01*
D25*
%TO.N,PA15*%
X189702500Y-108549500D02*
X188722000Y-107569000D01*
X194031500Y-108549500D02*
X189702500Y-108549500D01*
%TO.N,PB1*%
X199392022Y-109049500D02*
X199669010Y-108772512D01*
X198906500Y-109049500D02*
X199392022Y-109049500D01*
X201800012Y-108772512D02*
X201803000Y-108775500D01*
X199669010Y-108772512D02*
X201800012Y-108772512D01*
%TO.N,PA8*%
X197719000Y-107862000D02*
X197719000Y-107376478D01*
X197719000Y-107376478D02*
X198546034Y-106549444D01*
X198546034Y-106549444D02*
X198877983Y-106549443D01*
X200093626Y-105333800D02*
X202528000Y-105333800D01*
X198877983Y-106549443D02*
X200093626Y-105333800D01*
%TO.N,USART1_TX*%
X194024510Y-110599490D02*
X192044330Y-110599490D01*
X194031500Y-110592500D02*
X194024510Y-110599490D01*
X194031500Y-110549500D02*
X194031500Y-110592500D01*
X190347011Y-114452989D02*
X189897001Y-114902999D01*
X190347011Y-112296809D02*
X190347011Y-114452989D01*
X192044330Y-110599490D02*
X190347011Y-112296809D01*
X189897001Y-116553999D02*
X188722000Y-117729000D01*
X189897001Y-114902999D02*
X189897001Y-116553999D01*
%TO.N,USART1_RX*%
X194031500Y-111049500D02*
X192230730Y-111049500D01*
X190797021Y-112483209D02*
X190797020Y-114639390D01*
X192230730Y-111049500D02*
X190797021Y-112483209D01*
X190347011Y-118643989D02*
X188722000Y-120269000D01*
X190347011Y-115089399D02*
X190347011Y-118643989D01*
X190797020Y-114639390D02*
X190347011Y-115089399D01*
%TO.N,SAI1_SD_B*%
X194031500Y-110049500D02*
X191957910Y-110049500D01*
X189897001Y-114013999D02*
X188722000Y-115189000D01*
X189897001Y-112110409D02*
X189897001Y-114013999D01*
X191957910Y-110049500D02*
X189897001Y-112110409D01*
D31*
%TO.N,CAN_TD*%
X195719000Y-107862000D02*
X195736844Y-107844156D01*
X195736844Y-107844156D02*
X195736844Y-106575836D01*
X197583123Y-104729557D02*
X197982446Y-104729557D01*
X198048557Y-104663446D02*
X198048557Y-104288844D01*
X197982446Y-104729557D02*
X198048557Y-104663446D01*
X195736844Y-106575836D02*
X197583123Y-104729557D01*
X198048557Y-104288844D02*
X198158019Y-104288844D01*
X198158019Y-104288844D02*
X198884500Y-103562363D01*
X198884500Y-103562363D02*
X198884500Y-102319000D01*
D25*
X198884500Y-102319000D02*
X198884500Y-102564104D01*
X198884500Y-102239001D02*
X198394500Y-101749001D01*
X198884500Y-102319000D02*
X198884500Y-102239001D01*
D31*
%TO.N,CAN_RD*%
X200490057Y-102613443D02*
X200784500Y-102319000D01*
X200490057Y-103113446D02*
X200490057Y-102613443D01*
X200423946Y-103179557D02*
X200490057Y-103113446D01*
X198174766Y-105193860D02*
X198512860Y-104855766D01*
X199923943Y-103179557D02*
X200423946Y-103179557D01*
X198512860Y-104590640D02*
X199923943Y-103179557D01*
X197775460Y-105193860D02*
X198174766Y-105193860D01*
X196201156Y-106768164D02*
X197775460Y-105193860D01*
X196219000Y-107862000D02*
X196201156Y-107844156D01*
X198512860Y-104855766D02*
X198512860Y-104590640D01*
X196201156Y-107844156D02*
X196201156Y-106768164D01*
D25*
X201592000Y-102319000D02*
X203962000Y-99949000D01*
X200784500Y-102319000D02*
X201592000Y-102319000D01*
D26*
%TO.N,Net-(R5-Pad2)*%
X194821000Y-104074000D02*
X193231000Y-105664000D01*
X194988000Y-104074000D02*
X194821000Y-104074000D01*
D25*
%TO.N,PA3*%
X198906500Y-112049500D02*
X200186090Y-112049500D01*
X202786999Y-116553999D02*
X203962000Y-117729000D01*
X202786999Y-114650409D02*
X202786999Y-116553999D01*
X200186090Y-112049500D02*
X202786999Y-114650409D01*
X201523600Y-120167400D02*
X203962000Y-117729000D01*
X201472900Y-120167400D02*
X201523600Y-120167400D01*
%TD*%
M02*
