%TF.GenerationSoftware,KiCad,Pcbnew,5.1.9-73d0e3b20d~88~ubuntu20.10.1*%
%TF.CreationDate,2021-03-03T18:54:08-06:00*%
%TF.ProjectId,serafino l432kc,73657261-6669-46e6-9f20-6c3433326b63,rev?*%
%TF.SameCoordinates,Original*%
%TF.FileFunction,Copper,L2,Inr*%
%TF.FilePolarity,Positive*%
%FSLAX46Y46*%
G04 Gerber Fmt 4.6, Leading zero omitted, Abs format (unit mm)*
G04 Created by KiCad (PCBNEW 5.1.9-73d0e3b20d~88~ubuntu20.10.1) date 2021-03-03 18:54:08*
%MOMM*%
%LPD*%
G01*
G04 APERTURE LIST*
%TA.AperFunction,ComponentPad*%
%ADD10O,1.700000X1.700000*%
%TD*%
%TA.AperFunction,ComponentPad*%
%ADD11R,1.700000X1.700000*%
%TD*%
%TA.AperFunction,ComponentPad*%
%ADD12C,1.450000*%
%TD*%
%TA.AperFunction,ComponentPad*%
%ADD13O,1.200000X1.900000*%
%TD*%
%TA.AperFunction,ViaPad*%
%ADD14C,0.800000*%
%TD*%
%TA.AperFunction,Conductor*%
%ADD15C,0.254000*%
%TD*%
%TA.AperFunction,Conductor*%
%ADD16C,0.100000*%
%TD*%
G04 APERTURE END LIST*
D10*
%TO.N,PA0*%
%TO.C,J3*%
X203962000Y-125349000D03*
%TO.N,PA1*%
X203962000Y-122809000D03*
%TO.N,PA2*%
X203962000Y-120269000D03*
%TO.N,PA3*%
X203962000Y-117729000D03*
%TO.N,SAI1_FS_B*%
X203962000Y-115189000D03*
%TO.N,SPI1_SCK*%
X203962000Y-112649000D03*
%TO.N,SPI1_MISO*%
X203962000Y-110109000D03*
%TO.N,SPI1_MOSI*%
X203962000Y-107569000D03*
%TO.N,SPI1_SS*%
X203962000Y-105029000D03*
%TO.N,PB1*%
X203962000Y-102489000D03*
%TO.N,CAN_RD*%
X203962000Y-99949000D03*
%TO.N,I2C1_SCL*%
X203962000Y-97409000D03*
%TO.N,I2C1_SDA*%
X203962000Y-94869000D03*
D11*
%TO.N,+3V3*%
X203962000Y-92329000D03*
%TD*%
%TO.N,GND*%
%TO.C,J2*%
X188722000Y-92329000D03*
D10*
%TO.N,VHIGH*%
X188722000Y-94869000D03*
%TO.N,CAN_TD*%
X188722000Y-97409000D03*
%TO.N,+VIN*%
X188722000Y-99949000D03*
%TO.N,SWDIO*%
X188722000Y-102489000D03*
%TO.N,SWCLK*%
X188722000Y-105029000D03*
%TO.N,PA15*%
X188722000Y-107569000D03*
%TO.N,SAI1_SCK_B*%
X188722000Y-110109000D03*
%TO.N,PB4*%
X188722000Y-112649000D03*
%TO.N,SAI1_SD_B*%
X188722000Y-115189000D03*
%TO.N,USART1_TX*%
X188722000Y-117729000D03*
%TO.N,USART1_RX*%
X188722000Y-120269000D03*
%TO.N,PA8*%
X188722000Y-122809000D03*
%TO.N,NRST*%
X188722000Y-125349000D03*
%TD*%
D12*
%TO.N,Net-(J1-Pad6)*%
%TO.C,J1*%
X199790000Y-95602500D03*
X194790000Y-95602500D03*
D13*
X200790000Y-92902500D03*
X193790000Y-92902500D03*
%TD*%
D14*
%TO.N,GND*%
X196469000Y-110236000D03*
X195326000Y-111379000D03*
X197612000Y-111379000D03*
X197612000Y-109220000D03*
X195326000Y-109220000D03*
X199245903Y-107860403D03*
X193392918Y-114877116D03*
X192087500Y-118491000D03*
X193040000Y-124587000D03*
X194530000Y-98640000D03*
X192180000Y-103770000D03*
X198160000Y-97750000D03*
X201830000Y-117780000D03*
%TO.N,NRST*%
X196574153Y-114804847D03*
X195199000Y-124714000D03*
%TO.N,+3V3*%
X194373500Y-114681000D03*
X202057000Y-116332000D03*
X192405000Y-121031000D03*
X197160000Y-100350000D03*
X200100000Y-106140000D03*
X203244165Y-93609151D03*
%TO.N,PA0*%
X198496347Y-114224510D03*
%TO.N,I2C1_SCL*%
X201640173Y-103267259D03*
%TO.N,I2C1_SDA*%
X201029842Y-102475110D03*
%TO.N,PB1*%
X201803000Y-108775500D03*
%TO.N,PA8*%
X201078000Y-104770900D03*
%TO.N,PA1*%
X199517000Y-114173000D03*
%TO.N,PA2*%
X200469500Y-113538000D03*
%TO.N,CAN_TD*%
X197360000Y-102090000D03*
%TD*%
D15*
%TO.N,GND*%
X192758168Y-91863051D02*
X192643489Y-92077599D01*
X192572870Y-92310398D01*
X192555000Y-92491835D01*
X192555000Y-93313164D01*
X192572870Y-93494601D01*
X192643489Y-93727400D01*
X192758167Y-93941948D01*
X192912498Y-94130002D01*
X193100551Y-94284333D01*
X193315099Y-94399011D01*
X193547898Y-94469630D01*
X193790000Y-94493475D01*
X194032101Y-94469630D01*
X194042035Y-94466616D01*
X193923051Y-94546119D01*
X193733619Y-94735551D01*
X193584784Y-94958299D01*
X193482264Y-95205803D01*
X193430000Y-95468552D01*
X193430000Y-95736448D01*
X193482264Y-95999197D01*
X193584784Y-96246701D01*
X193733619Y-96469449D01*
X193923051Y-96658881D01*
X194145799Y-96807716D01*
X194393303Y-96910236D01*
X194656052Y-96962500D01*
X194923948Y-96962500D01*
X195186697Y-96910236D01*
X195434201Y-96807716D01*
X195656949Y-96658881D01*
X195846381Y-96469449D01*
X195995216Y-96246701D01*
X196097736Y-95999197D01*
X196150000Y-95736448D01*
X196150000Y-95468552D01*
X196097736Y-95205803D01*
X195995216Y-94958299D01*
X195846381Y-94735551D01*
X195656949Y-94546119D01*
X195434201Y-94397284D01*
X195186697Y-94294764D01*
X194923948Y-94242500D01*
X194656052Y-94242500D01*
X194490231Y-94275484D01*
X194667502Y-94130002D01*
X194821833Y-93941949D01*
X194936511Y-93727401D01*
X195007130Y-93494602D01*
X195025000Y-93313165D01*
X195025000Y-92491836D01*
X195007130Y-92310399D01*
X194936511Y-92077599D01*
X194821833Y-91863051D01*
X194704434Y-91720000D01*
X199875566Y-91720000D01*
X199758167Y-91863052D01*
X199643489Y-92077600D01*
X199572870Y-92310399D01*
X199555000Y-92491836D01*
X199555000Y-93313165D01*
X199572870Y-93494602D01*
X199643489Y-93727401D01*
X199758168Y-93941949D01*
X199912499Y-94130002D01*
X200089769Y-94275484D01*
X199923948Y-94242500D01*
X199656052Y-94242500D01*
X199393303Y-94294764D01*
X199145799Y-94397284D01*
X198923051Y-94546119D01*
X198733619Y-94735551D01*
X198584784Y-94958299D01*
X198482264Y-95205803D01*
X198430000Y-95468552D01*
X198430000Y-95736448D01*
X198482264Y-95999197D01*
X198584784Y-96246701D01*
X198733619Y-96469449D01*
X198923051Y-96658881D01*
X199145799Y-96807716D01*
X199393303Y-96910236D01*
X199656052Y-96962500D01*
X199923948Y-96962500D01*
X200186697Y-96910236D01*
X200434201Y-96807716D01*
X200656949Y-96658881D01*
X200846381Y-96469449D01*
X200995216Y-96246701D01*
X201097736Y-95999197D01*
X201150000Y-95736448D01*
X201150000Y-95468552D01*
X201097736Y-95205803D01*
X200995216Y-94958299D01*
X200846381Y-94735551D01*
X200656949Y-94546119D01*
X200537965Y-94466616D01*
X200547899Y-94469630D01*
X200790000Y-94493475D01*
X201032102Y-94469630D01*
X201264901Y-94399011D01*
X201479449Y-94284333D01*
X201667502Y-94130002D01*
X201821833Y-93941949D01*
X201936511Y-93727401D01*
X202007130Y-93494601D01*
X202025000Y-93313164D01*
X202025000Y-92491835D01*
X202007130Y-92310398D01*
X201936511Y-92077599D01*
X201821833Y-91863051D01*
X201704434Y-91720000D01*
X202473928Y-91720000D01*
X202473928Y-92915677D01*
X202440228Y-92949377D01*
X202326960Y-93118895D01*
X202248939Y-93307253D01*
X202209165Y-93507212D01*
X202209165Y-93711090D01*
X202248939Y-93911049D01*
X202326960Y-94099407D01*
X202440228Y-94268925D01*
X202555472Y-94384169D01*
X202534068Y-94435842D01*
X202477000Y-94722740D01*
X202477000Y-95015260D01*
X202534068Y-95302158D01*
X202646010Y-95572411D01*
X202808525Y-95815632D01*
X203015368Y-96022475D01*
X203189760Y-96139000D01*
X203015368Y-96255525D01*
X202808525Y-96462368D01*
X202646010Y-96705589D01*
X202534068Y-96975842D01*
X202477000Y-97262740D01*
X202477000Y-97555260D01*
X202534068Y-97842158D01*
X202646010Y-98112411D01*
X202808525Y-98355632D01*
X203015368Y-98562475D01*
X203189760Y-98679000D01*
X203015368Y-98795525D01*
X202808525Y-99002368D01*
X202646010Y-99245589D01*
X202534068Y-99515842D01*
X202477000Y-99802740D01*
X202477000Y-100095260D01*
X202534068Y-100382158D01*
X202646010Y-100652411D01*
X202808525Y-100895632D01*
X203015368Y-101102475D01*
X203189760Y-101219000D01*
X203015368Y-101335525D01*
X202808525Y-101542368D01*
X202646010Y-101785589D01*
X202534068Y-102055842D01*
X202477000Y-102342740D01*
X202477000Y-102635260D01*
X202483075Y-102665800D01*
X202444110Y-102607485D01*
X202299947Y-102463322D01*
X202130429Y-102350054D01*
X202053942Y-102318372D01*
X202025068Y-102173212D01*
X201947047Y-101984854D01*
X201833779Y-101815336D01*
X201689616Y-101671173D01*
X201520098Y-101557905D01*
X201331740Y-101479884D01*
X201131781Y-101440110D01*
X200927903Y-101440110D01*
X200727944Y-101479884D01*
X200539586Y-101557905D01*
X200370068Y-101671173D01*
X200225905Y-101815336D01*
X200112637Y-101984854D01*
X200034616Y-102173212D01*
X199994842Y-102373171D01*
X199994842Y-102577049D01*
X200034616Y-102777008D01*
X200112637Y-102965366D01*
X200225905Y-103134884D01*
X200370068Y-103279047D01*
X200539586Y-103392315D01*
X200616073Y-103423997D01*
X200644947Y-103569157D01*
X200722968Y-103757515D01*
X200743989Y-103788976D01*
X200587744Y-103853695D01*
X200418226Y-103966963D01*
X200274063Y-104111126D01*
X200160795Y-104280644D01*
X200082774Y-104469002D01*
X200043000Y-104668961D01*
X200043000Y-104872839D01*
X200082774Y-105072798D01*
X200096113Y-105105000D01*
X199998061Y-105105000D01*
X199798102Y-105144774D01*
X199609744Y-105222795D01*
X199440226Y-105336063D01*
X199296063Y-105480226D01*
X199182795Y-105649744D01*
X199104774Y-105838102D01*
X199065000Y-106038061D01*
X199065000Y-106241939D01*
X199104774Y-106441898D01*
X199182795Y-106630256D01*
X199296063Y-106799774D01*
X199440226Y-106943937D01*
X199609744Y-107057205D01*
X199798102Y-107135226D01*
X199998061Y-107175000D01*
X200201939Y-107175000D01*
X200401898Y-107135226D01*
X200590256Y-107057205D01*
X200759774Y-106943937D01*
X200903937Y-106799774D01*
X201017205Y-106630256D01*
X201095226Y-106441898D01*
X201135000Y-106241939D01*
X201135000Y-106038061D01*
X201095226Y-105838102D01*
X201081887Y-105805900D01*
X201179939Y-105805900D01*
X201379898Y-105766126D01*
X201568256Y-105688105D01*
X201737774Y-105574837D01*
X201881937Y-105430674D01*
X201995205Y-105261156D01*
X202073226Y-105072798D01*
X202113000Y-104872839D01*
X202113000Y-104668961D01*
X202073226Y-104469002D01*
X201995205Y-104280644D01*
X201974184Y-104249183D01*
X202130429Y-104184464D01*
X202299947Y-104071196D01*
X202444110Y-103927033D01*
X202557378Y-103757515D01*
X202635399Y-103569157D01*
X202675173Y-103369198D01*
X202675173Y-103236057D01*
X202808525Y-103435632D01*
X203015368Y-103642475D01*
X203189760Y-103759000D01*
X203015368Y-103875525D01*
X202808525Y-104082368D01*
X202646010Y-104325589D01*
X202534068Y-104595842D01*
X202477000Y-104882740D01*
X202477000Y-105175260D01*
X202534068Y-105462158D01*
X202646010Y-105732411D01*
X202808525Y-105975632D01*
X203015368Y-106182475D01*
X203189760Y-106299000D01*
X203015368Y-106415525D01*
X202808525Y-106622368D01*
X202646010Y-106865589D01*
X202534068Y-107135842D01*
X202477000Y-107422740D01*
X202477000Y-107715260D01*
X202534068Y-108002158D01*
X202562846Y-108071635D01*
X202462774Y-107971563D01*
X202293256Y-107858295D01*
X202104898Y-107780274D01*
X201904939Y-107740500D01*
X201701061Y-107740500D01*
X201501102Y-107780274D01*
X201312744Y-107858295D01*
X201143226Y-107971563D01*
X200999063Y-108115726D01*
X200885795Y-108285244D01*
X200807774Y-108473602D01*
X200768000Y-108673561D01*
X200768000Y-108877439D01*
X200807774Y-109077398D01*
X200885795Y-109265756D01*
X200999063Y-109435274D01*
X201143226Y-109579437D01*
X201312744Y-109692705D01*
X201501102Y-109770726D01*
X201701061Y-109810500D01*
X201904939Y-109810500D01*
X202104898Y-109770726D01*
X202293256Y-109692705D01*
X202462774Y-109579437D01*
X202606937Y-109435274D01*
X202720205Y-109265756D01*
X202798226Y-109077398D01*
X202838000Y-108877439D01*
X202838000Y-108673561D01*
X202805764Y-108511500D01*
X202808525Y-108515632D01*
X203015368Y-108722475D01*
X203189760Y-108839000D01*
X203015368Y-108955525D01*
X202808525Y-109162368D01*
X202646010Y-109405589D01*
X202534068Y-109675842D01*
X202477000Y-109962740D01*
X202477000Y-110255260D01*
X202534068Y-110542158D01*
X202646010Y-110812411D01*
X202808525Y-111055632D01*
X203015368Y-111262475D01*
X203189760Y-111379000D01*
X203015368Y-111495525D01*
X202808525Y-111702368D01*
X202646010Y-111945589D01*
X202534068Y-112215842D01*
X202477000Y-112502740D01*
X202477000Y-112795260D01*
X202534068Y-113082158D01*
X202646010Y-113352411D01*
X202808525Y-113595632D01*
X203015368Y-113802475D01*
X203189760Y-113919000D01*
X203015368Y-114035525D01*
X202808525Y-114242368D01*
X202646010Y-114485589D01*
X202534068Y-114755842D01*
X202477000Y-115042740D01*
X202477000Y-115335260D01*
X202487933Y-115390222D01*
X202358898Y-115336774D01*
X202158939Y-115297000D01*
X201955061Y-115297000D01*
X201755102Y-115336774D01*
X201566744Y-115414795D01*
X201397226Y-115528063D01*
X201253063Y-115672226D01*
X201139795Y-115841744D01*
X201061774Y-116030102D01*
X201022000Y-116230061D01*
X201022000Y-116433939D01*
X201061774Y-116633898D01*
X201139795Y-116822256D01*
X201253063Y-116991774D01*
X201397226Y-117135937D01*
X201566744Y-117249205D01*
X201755102Y-117327226D01*
X201955061Y-117367000D01*
X202158939Y-117367000D01*
X202358898Y-117327226D01*
X202547256Y-117249205D01*
X202555731Y-117243542D01*
X202534068Y-117295842D01*
X202477000Y-117582740D01*
X202477000Y-117875260D01*
X202534068Y-118162158D01*
X202646010Y-118432411D01*
X202808525Y-118675632D01*
X203015368Y-118882475D01*
X203189760Y-118999000D01*
X203015368Y-119115525D01*
X202808525Y-119322368D01*
X202646010Y-119565589D01*
X202534068Y-119835842D01*
X202477000Y-120122740D01*
X202477000Y-120415260D01*
X202534068Y-120702158D01*
X202646010Y-120972411D01*
X202808525Y-121215632D01*
X203015368Y-121422475D01*
X203189760Y-121539000D01*
X203015368Y-121655525D01*
X202808525Y-121862368D01*
X202646010Y-122105589D01*
X202534068Y-122375842D01*
X202477000Y-122662740D01*
X202477000Y-122955260D01*
X202534068Y-123242158D01*
X202646010Y-123512411D01*
X202808525Y-123755632D01*
X203015368Y-123962475D01*
X203189760Y-124079000D01*
X203015368Y-124195525D01*
X202808525Y-124402368D01*
X202646010Y-124645589D01*
X202534068Y-124915842D01*
X202477000Y-125202740D01*
X202477000Y-125495260D01*
X202534068Y-125782158D01*
X202607732Y-125960000D01*
X190076268Y-125960000D01*
X190149932Y-125782158D01*
X190207000Y-125495260D01*
X190207000Y-125202740D01*
X190149932Y-124915842D01*
X190037990Y-124645589D01*
X190015588Y-124612061D01*
X194164000Y-124612061D01*
X194164000Y-124815939D01*
X194203774Y-125015898D01*
X194281795Y-125204256D01*
X194395063Y-125373774D01*
X194539226Y-125517937D01*
X194708744Y-125631205D01*
X194897102Y-125709226D01*
X195097061Y-125749000D01*
X195300939Y-125749000D01*
X195500898Y-125709226D01*
X195689256Y-125631205D01*
X195858774Y-125517937D01*
X196002937Y-125373774D01*
X196116205Y-125204256D01*
X196194226Y-125015898D01*
X196234000Y-124815939D01*
X196234000Y-124612061D01*
X196194226Y-124412102D01*
X196116205Y-124223744D01*
X196002937Y-124054226D01*
X195858774Y-123910063D01*
X195689256Y-123796795D01*
X195500898Y-123718774D01*
X195300939Y-123679000D01*
X195097061Y-123679000D01*
X194897102Y-123718774D01*
X194708744Y-123796795D01*
X194539226Y-123910063D01*
X194395063Y-124054226D01*
X194281795Y-124223744D01*
X194203774Y-124412102D01*
X194164000Y-124612061D01*
X190015588Y-124612061D01*
X189875475Y-124402368D01*
X189668632Y-124195525D01*
X189494240Y-124079000D01*
X189668632Y-123962475D01*
X189875475Y-123755632D01*
X190037990Y-123512411D01*
X190149932Y-123242158D01*
X190207000Y-122955260D01*
X190207000Y-122662740D01*
X190149932Y-122375842D01*
X190037990Y-122105589D01*
X189875475Y-121862368D01*
X189668632Y-121655525D01*
X189494240Y-121539000D01*
X189668632Y-121422475D01*
X189875475Y-121215632D01*
X190037990Y-120972411D01*
X190055946Y-120929061D01*
X191370000Y-120929061D01*
X191370000Y-121132939D01*
X191409774Y-121332898D01*
X191487795Y-121521256D01*
X191601063Y-121690774D01*
X191745226Y-121834937D01*
X191914744Y-121948205D01*
X192103102Y-122026226D01*
X192303061Y-122066000D01*
X192506939Y-122066000D01*
X192706898Y-122026226D01*
X192895256Y-121948205D01*
X193064774Y-121834937D01*
X193208937Y-121690774D01*
X193322205Y-121521256D01*
X193400226Y-121332898D01*
X193440000Y-121132939D01*
X193440000Y-120929061D01*
X193400226Y-120729102D01*
X193322205Y-120540744D01*
X193208937Y-120371226D01*
X193064774Y-120227063D01*
X192895256Y-120113795D01*
X192706898Y-120035774D01*
X192506939Y-119996000D01*
X192303061Y-119996000D01*
X192103102Y-120035774D01*
X191914744Y-120113795D01*
X191745226Y-120227063D01*
X191601063Y-120371226D01*
X191487795Y-120540744D01*
X191409774Y-120729102D01*
X191370000Y-120929061D01*
X190055946Y-120929061D01*
X190149932Y-120702158D01*
X190207000Y-120415260D01*
X190207000Y-120122740D01*
X190149932Y-119835842D01*
X190037990Y-119565589D01*
X189875475Y-119322368D01*
X189668632Y-119115525D01*
X189494240Y-118999000D01*
X189668632Y-118882475D01*
X189875475Y-118675632D01*
X190037990Y-118432411D01*
X190149932Y-118162158D01*
X190207000Y-117875260D01*
X190207000Y-117582740D01*
X190149932Y-117295842D01*
X190037990Y-117025589D01*
X189875475Y-116782368D01*
X189668632Y-116575525D01*
X189494240Y-116459000D01*
X189668632Y-116342475D01*
X189875475Y-116135632D01*
X190037990Y-115892411D01*
X190149932Y-115622158D01*
X190207000Y-115335260D01*
X190207000Y-115042740D01*
X190149932Y-114755842D01*
X190076708Y-114579061D01*
X193338500Y-114579061D01*
X193338500Y-114782939D01*
X193378274Y-114982898D01*
X193456295Y-115171256D01*
X193569563Y-115340774D01*
X193713726Y-115484937D01*
X193883244Y-115598205D01*
X194071602Y-115676226D01*
X194271561Y-115716000D01*
X194475439Y-115716000D01*
X194675398Y-115676226D01*
X194863756Y-115598205D01*
X195033274Y-115484937D01*
X195177437Y-115340774D01*
X195290705Y-115171256D01*
X195368726Y-114982898D01*
X195408500Y-114782939D01*
X195408500Y-114702908D01*
X195539153Y-114702908D01*
X195539153Y-114906786D01*
X195578927Y-115106745D01*
X195656948Y-115295103D01*
X195770216Y-115464621D01*
X195914379Y-115608784D01*
X196083897Y-115722052D01*
X196272255Y-115800073D01*
X196472214Y-115839847D01*
X196676092Y-115839847D01*
X196876051Y-115800073D01*
X197064409Y-115722052D01*
X197233927Y-115608784D01*
X197378090Y-115464621D01*
X197491358Y-115295103D01*
X197569379Y-115106745D01*
X197609153Y-114906786D01*
X197609153Y-114759681D01*
X197692410Y-114884284D01*
X197836573Y-115028447D01*
X198006091Y-115141715D01*
X198194449Y-115219736D01*
X198394408Y-115259510D01*
X198598286Y-115259510D01*
X198798245Y-115219736D01*
X198986603Y-115141715D01*
X199049553Y-115099653D01*
X199215102Y-115168226D01*
X199415061Y-115208000D01*
X199618939Y-115208000D01*
X199818898Y-115168226D01*
X200007256Y-115090205D01*
X200176774Y-114976937D01*
X200320937Y-114832774D01*
X200434205Y-114663256D01*
X200471591Y-114573000D01*
X200571439Y-114573000D01*
X200771398Y-114533226D01*
X200959756Y-114455205D01*
X201129274Y-114341937D01*
X201273437Y-114197774D01*
X201386705Y-114028256D01*
X201464726Y-113839898D01*
X201504500Y-113639939D01*
X201504500Y-113436061D01*
X201464726Y-113236102D01*
X201386705Y-113047744D01*
X201273437Y-112878226D01*
X201129274Y-112734063D01*
X200959756Y-112620795D01*
X200771398Y-112542774D01*
X200571439Y-112503000D01*
X200367561Y-112503000D01*
X200167602Y-112542774D01*
X199979244Y-112620795D01*
X199809726Y-112734063D01*
X199665563Y-112878226D01*
X199552295Y-113047744D01*
X199514909Y-113138000D01*
X199415061Y-113138000D01*
X199215102Y-113177774D01*
X199026744Y-113255795D01*
X198963794Y-113297857D01*
X198798245Y-113229284D01*
X198598286Y-113189510D01*
X198394408Y-113189510D01*
X198194449Y-113229284D01*
X198006091Y-113307305D01*
X197836573Y-113420573D01*
X197692410Y-113564736D01*
X197579142Y-113734254D01*
X197501121Y-113922612D01*
X197461347Y-114122571D01*
X197461347Y-114269676D01*
X197378090Y-114145073D01*
X197233927Y-114000910D01*
X197064409Y-113887642D01*
X196876051Y-113809621D01*
X196676092Y-113769847D01*
X196472214Y-113769847D01*
X196272255Y-113809621D01*
X196083897Y-113887642D01*
X195914379Y-114000910D01*
X195770216Y-114145073D01*
X195656948Y-114314591D01*
X195578927Y-114502949D01*
X195539153Y-114702908D01*
X195408500Y-114702908D01*
X195408500Y-114579061D01*
X195368726Y-114379102D01*
X195290705Y-114190744D01*
X195177437Y-114021226D01*
X195033274Y-113877063D01*
X194863756Y-113763795D01*
X194675398Y-113685774D01*
X194475439Y-113646000D01*
X194271561Y-113646000D01*
X194071602Y-113685774D01*
X193883244Y-113763795D01*
X193713726Y-113877063D01*
X193569563Y-114021226D01*
X193456295Y-114190744D01*
X193378274Y-114379102D01*
X193338500Y-114579061D01*
X190076708Y-114579061D01*
X190037990Y-114485589D01*
X189875475Y-114242368D01*
X189668632Y-114035525D01*
X189494240Y-113919000D01*
X189668632Y-113802475D01*
X189875475Y-113595632D01*
X190037990Y-113352411D01*
X190149932Y-113082158D01*
X190207000Y-112795260D01*
X190207000Y-112502740D01*
X190149932Y-112215842D01*
X190037990Y-111945589D01*
X189875475Y-111702368D01*
X189668632Y-111495525D01*
X189494240Y-111379000D01*
X189668632Y-111262475D01*
X189875475Y-111055632D01*
X190037990Y-110812411D01*
X190149932Y-110542158D01*
X190207000Y-110255260D01*
X190207000Y-109962740D01*
X190149932Y-109675842D01*
X190037990Y-109405589D01*
X189875475Y-109162368D01*
X189668632Y-108955525D01*
X189494240Y-108839000D01*
X189668632Y-108722475D01*
X189875475Y-108515632D01*
X190037990Y-108272411D01*
X190149932Y-108002158D01*
X190207000Y-107715260D01*
X190207000Y-107422740D01*
X190149932Y-107135842D01*
X190037990Y-106865589D01*
X189875475Y-106622368D01*
X189668632Y-106415525D01*
X189494240Y-106299000D01*
X189668632Y-106182475D01*
X189875475Y-105975632D01*
X190037990Y-105732411D01*
X190149932Y-105462158D01*
X190207000Y-105175260D01*
X190207000Y-104882740D01*
X190149932Y-104595842D01*
X190037990Y-104325589D01*
X189875475Y-104082368D01*
X189668632Y-103875525D01*
X189494240Y-103759000D01*
X189668632Y-103642475D01*
X189875475Y-103435632D01*
X190037990Y-103192411D01*
X190149932Y-102922158D01*
X190207000Y-102635260D01*
X190207000Y-102342740D01*
X190149932Y-102055842D01*
X190037990Y-101785589D01*
X189875475Y-101542368D01*
X189668632Y-101335525D01*
X189494240Y-101219000D01*
X189668632Y-101102475D01*
X189875475Y-100895632D01*
X190037990Y-100652411D01*
X190149932Y-100382158D01*
X190176605Y-100248061D01*
X196125000Y-100248061D01*
X196125000Y-100451939D01*
X196164774Y-100651898D01*
X196242795Y-100840256D01*
X196356063Y-101009774D01*
X196500226Y-101153937D01*
X196669744Y-101267205D01*
X196705983Y-101282216D01*
X196700226Y-101286063D01*
X196556063Y-101430226D01*
X196442795Y-101599744D01*
X196364774Y-101788102D01*
X196325000Y-101988061D01*
X196325000Y-102191939D01*
X196364774Y-102391898D01*
X196442795Y-102580256D01*
X196556063Y-102749774D01*
X196700226Y-102893937D01*
X196869744Y-103007205D01*
X197058102Y-103085226D01*
X197258061Y-103125000D01*
X197461939Y-103125000D01*
X197661898Y-103085226D01*
X197850256Y-103007205D01*
X198019774Y-102893937D01*
X198163937Y-102749774D01*
X198277205Y-102580256D01*
X198355226Y-102391898D01*
X198395000Y-102191939D01*
X198395000Y-101988061D01*
X198355226Y-101788102D01*
X198277205Y-101599744D01*
X198163937Y-101430226D01*
X198019774Y-101286063D01*
X197850256Y-101172795D01*
X197814017Y-101157784D01*
X197819774Y-101153937D01*
X197963937Y-101009774D01*
X198077205Y-100840256D01*
X198155226Y-100651898D01*
X198195000Y-100451939D01*
X198195000Y-100248061D01*
X198155226Y-100048102D01*
X198077205Y-99859744D01*
X197963937Y-99690226D01*
X197819774Y-99546063D01*
X197650256Y-99432795D01*
X197461898Y-99354774D01*
X197261939Y-99315000D01*
X197058061Y-99315000D01*
X196858102Y-99354774D01*
X196669744Y-99432795D01*
X196500226Y-99546063D01*
X196356063Y-99690226D01*
X196242795Y-99859744D01*
X196164774Y-100048102D01*
X196125000Y-100248061D01*
X190176605Y-100248061D01*
X190207000Y-100095260D01*
X190207000Y-99802740D01*
X190149932Y-99515842D01*
X190037990Y-99245589D01*
X189875475Y-99002368D01*
X189668632Y-98795525D01*
X189494240Y-98679000D01*
X189668632Y-98562475D01*
X189875475Y-98355632D01*
X190037990Y-98112411D01*
X190149932Y-97842158D01*
X190207000Y-97555260D01*
X190207000Y-97262740D01*
X190149932Y-96975842D01*
X190037990Y-96705589D01*
X189875475Y-96462368D01*
X189668632Y-96255525D01*
X189494240Y-96139000D01*
X189668632Y-96022475D01*
X189875475Y-95815632D01*
X190037990Y-95572411D01*
X190149932Y-95302158D01*
X190207000Y-95015260D01*
X190207000Y-94722740D01*
X190149932Y-94435842D01*
X190037990Y-94165589D01*
X189875475Y-93922368D01*
X189743620Y-93790513D01*
X189816180Y-93768502D01*
X189926494Y-93709537D01*
X190023185Y-93630185D01*
X190102537Y-93533494D01*
X190161502Y-93423180D01*
X190197812Y-93303482D01*
X190210072Y-93179000D01*
X190207000Y-92614750D01*
X190048250Y-92456000D01*
X188849000Y-92456000D01*
X188849000Y-92476000D01*
X188595000Y-92476000D01*
X188595000Y-92456000D01*
X188575000Y-92456000D01*
X188575000Y-92202000D01*
X188595000Y-92202000D01*
X188595000Y-92182000D01*
X188849000Y-92182000D01*
X188849000Y-92202000D01*
X190048250Y-92202000D01*
X190207000Y-92043250D01*
X190208760Y-91720000D01*
X192875567Y-91720000D01*
X192758168Y-91863051D01*
%TA.AperFunction,Conductor*%
D16*
G36*
X192758168Y-91863051D02*
G01*
X192643489Y-92077599D01*
X192572870Y-92310398D01*
X192555000Y-92491835D01*
X192555000Y-93313164D01*
X192572870Y-93494601D01*
X192643489Y-93727400D01*
X192758167Y-93941948D01*
X192912498Y-94130002D01*
X193100551Y-94284333D01*
X193315099Y-94399011D01*
X193547898Y-94469630D01*
X193790000Y-94493475D01*
X194032101Y-94469630D01*
X194042035Y-94466616D01*
X193923051Y-94546119D01*
X193733619Y-94735551D01*
X193584784Y-94958299D01*
X193482264Y-95205803D01*
X193430000Y-95468552D01*
X193430000Y-95736448D01*
X193482264Y-95999197D01*
X193584784Y-96246701D01*
X193733619Y-96469449D01*
X193923051Y-96658881D01*
X194145799Y-96807716D01*
X194393303Y-96910236D01*
X194656052Y-96962500D01*
X194923948Y-96962500D01*
X195186697Y-96910236D01*
X195434201Y-96807716D01*
X195656949Y-96658881D01*
X195846381Y-96469449D01*
X195995216Y-96246701D01*
X196097736Y-95999197D01*
X196150000Y-95736448D01*
X196150000Y-95468552D01*
X196097736Y-95205803D01*
X195995216Y-94958299D01*
X195846381Y-94735551D01*
X195656949Y-94546119D01*
X195434201Y-94397284D01*
X195186697Y-94294764D01*
X194923948Y-94242500D01*
X194656052Y-94242500D01*
X194490231Y-94275484D01*
X194667502Y-94130002D01*
X194821833Y-93941949D01*
X194936511Y-93727401D01*
X195007130Y-93494602D01*
X195025000Y-93313165D01*
X195025000Y-92491836D01*
X195007130Y-92310399D01*
X194936511Y-92077599D01*
X194821833Y-91863051D01*
X194704434Y-91720000D01*
X199875566Y-91720000D01*
X199758167Y-91863052D01*
X199643489Y-92077600D01*
X199572870Y-92310399D01*
X199555000Y-92491836D01*
X199555000Y-93313165D01*
X199572870Y-93494602D01*
X199643489Y-93727401D01*
X199758168Y-93941949D01*
X199912499Y-94130002D01*
X200089769Y-94275484D01*
X199923948Y-94242500D01*
X199656052Y-94242500D01*
X199393303Y-94294764D01*
X199145799Y-94397284D01*
X198923051Y-94546119D01*
X198733619Y-94735551D01*
X198584784Y-94958299D01*
X198482264Y-95205803D01*
X198430000Y-95468552D01*
X198430000Y-95736448D01*
X198482264Y-95999197D01*
X198584784Y-96246701D01*
X198733619Y-96469449D01*
X198923051Y-96658881D01*
X199145799Y-96807716D01*
X199393303Y-96910236D01*
X199656052Y-96962500D01*
X199923948Y-96962500D01*
X200186697Y-96910236D01*
X200434201Y-96807716D01*
X200656949Y-96658881D01*
X200846381Y-96469449D01*
X200995216Y-96246701D01*
X201097736Y-95999197D01*
X201150000Y-95736448D01*
X201150000Y-95468552D01*
X201097736Y-95205803D01*
X200995216Y-94958299D01*
X200846381Y-94735551D01*
X200656949Y-94546119D01*
X200537965Y-94466616D01*
X200547899Y-94469630D01*
X200790000Y-94493475D01*
X201032102Y-94469630D01*
X201264901Y-94399011D01*
X201479449Y-94284333D01*
X201667502Y-94130002D01*
X201821833Y-93941949D01*
X201936511Y-93727401D01*
X202007130Y-93494601D01*
X202025000Y-93313164D01*
X202025000Y-92491835D01*
X202007130Y-92310398D01*
X201936511Y-92077599D01*
X201821833Y-91863051D01*
X201704434Y-91720000D01*
X202473928Y-91720000D01*
X202473928Y-92915677D01*
X202440228Y-92949377D01*
X202326960Y-93118895D01*
X202248939Y-93307253D01*
X202209165Y-93507212D01*
X202209165Y-93711090D01*
X202248939Y-93911049D01*
X202326960Y-94099407D01*
X202440228Y-94268925D01*
X202555472Y-94384169D01*
X202534068Y-94435842D01*
X202477000Y-94722740D01*
X202477000Y-95015260D01*
X202534068Y-95302158D01*
X202646010Y-95572411D01*
X202808525Y-95815632D01*
X203015368Y-96022475D01*
X203189760Y-96139000D01*
X203015368Y-96255525D01*
X202808525Y-96462368D01*
X202646010Y-96705589D01*
X202534068Y-96975842D01*
X202477000Y-97262740D01*
X202477000Y-97555260D01*
X202534068Y-97842158D01*
X202646010Y-98112411D01*
X202808525Y-98355632D01*
X203015368Y-98562475D01*
X203189760Y-98679000D01*
X203015368Y-98795525D01*
X202808525Y-99002368D01*
X202646010Y-99245589D01*
X202534068Y-99515842D01*
X202477000Y-99802740D01*
X202477000Y-100095260D01*
X202534068Y-100382158D01*
X202646010Y-100652411D01*
X202808525Y-100895632D01*
X203015368Y-101102475D01*
X203189760Y-101219000D01*
X203015368Y-101335525D01*
X202808525Y-101542368D01*
X202646010Y-101785589D01*
X202534068Y-102055842D01*
X202477000Y-102342740D01*
X202477000Y-102635260D01*
X202483075Y-102665800D01*
X202444110Y-102607485D01*
X202299947Y-102463322D01*
X202130429Y-102350054D01*
X202053942Y-102318372D01*
X202025068Y-102173212D01*
X201947047Y-101984854D01*
X201833779Y-101815336D01*
X201689616Y-101671173D01*
X201520098Y-101557905D01*
X201331740Y-101479884D01*
X201131781Y-101440110D01*
X200927903Y-101440110D01*
X200727944Y-101479884D01*
X200539586Y-101557905D01*
X200370068Y-101671173D01*
X200225905Y-101815336D01*
X200112637Y-101984854D01*
X200034616Y-102173212D01*
X199994842Y-102373171D01*
X199994842Y-102577049D01*
X200034616Y-102777008D01*
X200112637Y-102965366D01*
X200225905Y-103134884D01*
X200370068Y-103279047D01*
X200539586Y-103392315D01*
X200616073Y-103423997D01*
X200644947Y-103569157D01*
X200722968Y-103757515D01*
X200743989Y-103788976D01*
X200587744Y-103853695D01*
X200418226Y-103966963D01*
X200274063Y-104111126D01*
X200160795Y-104280644D01*
X200082774Y-104469002D01*
X200043000Y-104668961D01*
X200043000Y-104872839D01*
X200082774Y-105072798D01*
X200096113Y-105105000D01*
X199998061Y-105105000D01*
X199798102Y-105144774D01*
X199609744Y-105222795D01*
X199440226Y-105336063D01*
X199296063Y-105480226D01*
X199182795Y-105649744D01*
X199104774Y-105838102D01*
X199065000Y-106038061D01*
X199065000Y-106241939D01*
X199104774Y-106441898D01*
X199182795Y-106630256D01*
X199296063Y-106799774D01*
X199440226Y-106943937D01*
X199609744Y-107057205D01*
X199798102Y-107135226D01*
X199998061Y-107175000D01*
X200201939Y-107175000D01*
X200401898Y-107135226D01*
X200590256Y-107057205D01*
X200759774Y-106943937D01*
X200903937Y-106799774D01*
X201017205Y-106630256D01*
X201095226Y-106441898D01*
X201135000Y-106241939D01*
X201135000Y-106038061D01*
X201095226Y-105838102D01*
X201081887Y-105805900D01*
X201179939Y-105805900D01*
X201379898Y-105766126D01*
X201568256Y-105688105D01*
X201737774Y-105574837D01*
X201881937Y-105430674D01*
X201995205Y-105261156D01*
X202073226Y-105072798D01*
X202113000Y-104872839D01*
X202113000Y-104668961D01*
X202073226Y-104469002D01*
X201995205Y-104280644D01*
X201974184Y-104249183D01*
X202130429Y-104184464D01*
X202299947Y-104071196D01*
X202444110Y-103927033D01*
X202557378Y-103757515D01*
X202635399Y-103569157D01*
X202675173Y-103369198D01*
X202675173Y-103236057D01*
X202808525Y-103435632D01*
X203015368Y-103642475D01*
X203189760Y-103759000D01*
X203015368Y-103875525D01*
X202808525Y-104082368D01*
X202646010Y-104325589D01*
X202534068Y-104595842D01*
X202477000Y-104882740D01*
X202477000Y-105175260D01*
X202534068Y-105462158D01*
X202646010Y-105732411D01*
X202808525Y-105975632D01*
X203015368Y-106182475D01*
X203189760Y-106299000D01*
X203015368Y-106415525D01*
X202808525Y-106622368D01*
X202646010Y-106865589D01*
X202534068Y-107135842D01*
X202477000Y-107422740D01*
X202477000Y-107715260D01*
X202534068Y-108002158D01*
X202562846Y-108071635D01*
X202462774Y-107971563D01*
X202293256Y-107858295D01*
X202104898Y-107780274D01*
X201904939Y-107740500D01*
X201701061Y-107740500D01*
X201501102Y-107780274D01*
X201312744Y-107858295D01*
X201143226Y-107971563D01*
X200999063Y-108115726D01*
X200885795Y-108285244D01*
X200807774Y-108473602D01*
X200768000Y-108673561D01*
X200768000Y-108877439D01*
X200807774Y-109077398D01*
X200885795Y-109265756D01*
X200999063Y-109435274D01*
X201143226Y-109579437D01*
X201312744Y-109692705D01*
X201501102Y-109770726D01*
X201701061Y-109810500D01*
X201904939Y-109810500D01*
X202104898Y-109770726D01*
X202293256Y-109692705D01*
X202462774Y-109579437D01*
X202606937Y-109435274D01*
X202720205Y-109265756D01*
X202798226Y-109077398D01*
X202838000Y-108877439D01*
X202838000Y-108673561D01*
X202805764Y-108511500D01*
X202808525Y-108515632D01*
X203015368Y-108722475D01*
X203189760Y-108839000D01*
X203015368Y-108955525D01*
X202808525Y-109162368D01*
X202646010Y-109405589D01*
X202534068Y-109675842D01*
X202477000Y-109962740D01*
X202477000Y-110255260D01*
X202534068Y-110542158D01*
X202646010Y-110812411D01*
X202808525Y-111055632D01*
X203015368Y-111262475D01*
X203189760Y-111379000D01*
X203015368Y-111495525D01*
X202808525Y-111702368D01*
X202646010Y-111945589D01*
X202534068Y-112215842D01*
X202477000Y-112502740D01*
X202477000Y-112795260D01*
X202534068Y-113082158D01*
X202646010Y-113352411D01*
X202808525Y-113595632D01*
X203015368Y-113802475D01*
X203189760Y-113919000D01*
X203015368Y-114035525D01*
X202808525Y-114242368D01*
X202646010Y-114485589D01*
X202534068Y-114755842D01*
X202477000Y-115042740D01*
X202477000Y-115335260D01*
X202487933Y-115390222D01*
X202358898Y-115336774D01*
X202158939Y-115297000D01*
X201955061Y-115297000D01*
X201755102Y-115336774D01*
X201566744Y-115414795D01*
X201397226Y-115528063D01*
X201253063Y-115672226D01*
X201139795Y-115841744D01*
X201061774Y-116030102D01*
X201022000Y-116230061D01*
X201022000Y-116433939D01*
X201061774Y-116633898D01*
X201139795Y-116822256D01*
X201253063Y-116991774D01*
X201397226Y-117135937D01*
X201566744Y-117249205D01*
X201755102Y-117327226D01*
X201955061Y-117367000D01*
X202158939Y-117367000D01*
X202358898Y-117327226D01*
X202547256Y-117249205D01*
X202555731Y-117243542D01*
X202534068Y-117295842D01*
X202477000Y-117582740D01*
X202477000Y-117875260D01*
X202534068Y-118162158D01*
X202646010Y-118432411D01*
X202808525Y-118675632D01*
X203015368Y-118882475D01*
X203189760Y-118999000D01*
X203015368Y-119115525D01*
X202808525Y-119322368D01*
X202646010Y-119565589D01*
X202534068Y-119835842D01*
X202477000Y-120122740D01*
X202477000Y-120415260D01*
X202534068Y-120702158D01*
X202646010Y-120972411D01*
X202808525Y-121215632D01*
X203015368Y-121422475D01*
X203189760Y-121539000D01*
X203015368Y-121655525D01*
X202808525Y-121862368D01*
X202646010Y-122105589D01*
X202534068Y-122375842D01*
X202477000Y-122662740D01*
X202477000Y-122955260D01*
X202534068Y-123242158D01*
X202646010Y-123512411D01*
X202808525Y-123755632D01*
X203015368Y-123962475D01*
X203189760Y-124079000D01*
X203015368Y-124195525D01*
X202808525Y-124402368D01*
X202646010Y-124645589D01*
X202534068Y-124915842D01*
X202477000Y-125202740D01*
X202477000Y-125495260D01*
X202534068Y-125782158D01*
X202607732Y-125960000D01*
X190076268Y-125960000D01*
X190149932Y-125782158D01*
X190207000Y-125495260D01*
X190207000Y-125202740D01*
X190149932Y-124915842D01*
X190037990Y-124645589D01*
X190015588Y-124612061D01*
X194164000Y-124612061D01*
X194164000Y-124815939D01*
X194203774Y-125015898D01*
X194281795Y-125204256D01*
X194395063Y-125373774D01*
X194539226Y-125517937D01*
X194708744Y-125631205D01*
X194897102Y-125709226D01*
X195097061Y-125749000D01*
X195300939Y-125749000D01*
X195500898Y-125709226D01*
X195689256Y-125631205D01*
X195858774Y-125517937D01*
X196002937Y-125373774D01*
X196116205Y-125204256D01*
X196194226Y-125015898D01*
X196234000Y-124815939D01*
X196234000Y-124612061D01*
X196194226Y-124412102D01*
X196116205Y-124223744D01*
X196002937Y-124054226D01*
X195858774Y-123910063D01*
X195689256Y-123796795D01*
X195500898Y-123718774D01*
X195300939Y-123679000D01*
X195097061Y-123679000D01*
X194897102Y-123718774D01*
X194708744Y-123796795D01*
X194539226Y-123910063D01*
X194395063Y-124054226D01*
X194281795Y-124223744D01*
X194203774Y-124412102D01*
X194164000Y-124612061D01*
X190015588Y-124612061D01*
X189875475Y-124402368D01*
X189668632Y-124195525D01*
X189494240Y-124079000D01*
X189668632Y-123962475D01*
X189875475Y-123755632D01*
X190037990Y-123512411D01*
X190149932Y-123242158D01*
X190207000Y-122955260D01*
X190207000Y-122662740D01*
X190149932Y-122375842D01*
X190037990Y-122105589D01*
X189875475Y-121862368D01*
X189668632Y-121655525D01*
X189494240Y-121539000D01*
X189668632Y-121422475D01*
X189875475Y-121215632D01*
X190037990Y-120972411D01*
X190055946Y-120929061D01*
X191370000Y-120929061D01*
X191370000Y-121132939D01*
X191409774Y-121332898D01*
X191487795Y-121521256D01*
X191601063Y-121690774D01*
X191745226Y-121834937D01*
X191914744Y-121948205D01*
X192103102Y-122026226D01*
X192303061Y-122066000D01*
X192506939Y-122066000D01*
X192706898Y-122026226D01*
X192895256Y-121948205D01*
X193064774Y-121834937D01*
X193208937Y-121690774D01*
X193322205Y-121521256D01*
X193400226Y-121332898D01*
X193440000Y-121132939D01*
X193440000Y-120929061D01*
X193400226Y-120729102D01*
X193322205Y-120540744D01*
X193208937Y-120371226D01*
X193064774Y-120227063D01*
X192895256Y-120113795D01*
X192706898Y-120035774D01*
X192506939Y-119996000D01*
X192303061Y-119996000D01*
X192103102Y-120035774D01*
X191914744Y-120113795D01*
X191745226Y-120227063D01*
X191601063Y-120371226D01*
X191487795Y-120540744D01*
X191409774Y-120729102D01*
X191370000Y-120929061D01*
X190055946Y-120929061D01*
X190149932Y-120702158D01*
X190207000Y-120415260D01*
X190207000Y-120122740D01*
X190149932Y-119835842D01*
X190037990Y-119565589D01*
X189875475Y-119322368D01*
X189668632Y-119115525D01*
X189494240Y-118999000D01*
X189668632Y-118882475D01*
X189875475Y-118675632D01*
X190037990Y-118432411D01*
X190149932Y-118162158D01*
X190207000Y-117875260D01*
X190207000Y-117582740D01*
X190149932Y-117295842D01*
X190037990Y-117025589D01*
X189875475Y-116782368D01*
X189668632Y-116575525D01*
X189494240Y-116459000D01*
X189668632Y-116342475D01*
X189875475Y-116135632D01*
X190037990Y-115892411D01*
X190149932Y-115622158D01*
X190207000Y-115335260D01*
X190207000Y-115042740D01*
X190149932Y-114755842D01*
X190076708Y-114579061D01*
X193338500Y-114579061D01*
X193338500Y-114782939D01*
X193378274Y-114982898D01*
X193456295Y-115171256D01*
X193569563Y-115340774D01*
X193713726Y-115484937D01*
X193883244Y-115598205D01*
X194071602Y-115676226D01*
X194271561Y-115716000D01*
X194475439Y-115716000D01*
X194675398Y-115676226D01*
X194863756Y-115598205D01*
X195033274Y-115484937D01*
X195177437Y-115340774D01*
X195290705Y-115171256D01*
X195368726Y-114982898D01*
X195408500Y-114782939D01*
X195408500Y-114702908D01*
X195539153Y-114702908D01*
X195539153Y-114906786D01*
X195578927Y-115106745D01*
X195656948Y-115295103D01*
X195770216Y-115464621D01*
X195914379Y-115608784D01*
X196083897Y-115722052D01*
X196272255Y-115800073D01*
X196472214Y-115839847D01*
X196676092Y-115839847D01*
X196876051Y-115800073D01*
X197064409Y-115722052D01*
X197233927Y-115608784D01*
X197378090Y-115464621D01*
X197491358Y-115295103D01*
X197569379Y-115106745D01*
X197609153Y-114906786D01*
X197609153Y-114759681D01*
X197692410Y-114884284D01*
X197836573Y-115028447D01*
X198006091Y-115141715D01*
X198194449Y-115219736D01*
X198394408Y-115259510D01*
X198598286Y-115259510D01*
X198798245Y-115219736D01*
X198986603Y-115141715D01*
X199049553Y-115099653D01*
X199215102Y-115168226D01*
X199415061Y-115208000D01*
X199618939Y-115208000D01*
X199818898Y-115168226D01*
X200007256Y-115090205D01*
X200176774Y-114976937D01*
X200320937Y-114832774D01*
X200434205Y-114663256D01*
X200471591Y-114573000D01*
X200571439Y-114573000D01*
X200771398Y-114533226D01*
X200959756Y-114455205D01*
X201129274Y-114341937D01*
X201273437Y-114197774D01*
X201386705Y-114028256D01*
X201464726Y-113839898D01*
X201504500Y-113639939D01*
X201504500Y-113436061D01*
X201464726Y-113236102D01*
X201386705Y-113047744D01*
X201273437Y-112878226D01*
X201129274Y-112734063D01*
X200959756Y-112620795D01*
X200771398Y-112542774D01*
X200571439Y-112503000D01*
X200367561Y-112503000D01*
X200167602Y-112542774D01*
X199979244Y-112620795D01*
X199809726Y-112734063D01*
X199665563Y-112878226D01*
X199552295Y-113047744D01*
X199514909Y-113138000D01*
X199415061Y-113138000D01*
X199215102Y-113177774D01*
X199026744Y-113255795D01*
X198963794Y-113297857D01*
X198798245Y-113229284D01*
X198598286Y-113189510D01*
X198394408Y-113189510D01*
X198194449Y-113229284D01*
X198006091Y-113307305D01*
X197836573Y-113420573D01*
X197692410Y-113564736D01*
X197579142Y-113734254D01*
X197501121Y-113922612D01*
X197461347Y-114122571D01*
X197461347Y-114269676D01*
X197378090Y-114145073D01*
X197233927Y-114000910D01*
X197064409Y-113887642D01*
X196876051Y-113809621D01*
X196676092Y-113769847D01*
X196472214Y-113769847D01*
X196272255Y-113809621D01*
X196083897Y-113887642D01*
X195914379Y-114000910D01*
X195770216Y-114145073D01*
X195656948Y-114314591D01*
X195578927Y-114502949D01*
X195539153Y-114702908D01*
X195408500Y-114702908D01*
X195408500Y-114579061D01*
X195368726Y-114379102D01*
X195290705Y-114190744D01*
X195177437Y-114021226D01*
X195033274Y-113877063D01*
X194863756Y-113763795D01*
X194675398Y-113685774D01*
X194475439Y-113646000D01*
X194271561Y-113646000D01*
X194071602Y-113685774D01*
X193883244Y-113763795D01*
X193713726Y-113877063D01*
X193569563Y-114021226D01*
X193456295Y-114190744D01*
X193378274Y-114379102D01*
X193338500Y-114579061D01*
X190076708Y-114579061D01*
X190037990Y-114485589D01*
X189875475Y-114242368D01*
X189668632Y-114035525D01*
X189494240Y-113919000D01*
X189668632Y-113802475D01*
X189875475Y-113595632D01*
X190037990Y-113352411D01*
X190149932Y-113082158D01*
X190207000Y-112795260D01*
X190207000Y-112502740D01*
X190149932Y-112215842D01*
X190037990Y-111945589D01*
X189875475Y-111702368D01*
X189668632Y-111495525D01*
X189494240Y-111379000D01*
X189668632Y-111262475D01*
X189875475Y-111055632D01*
X190037990Y-110812411D01*
X190149932Y-110542158D01*
X190207000Y-110255260D01*
X190207000Y-109962740D01*
X190149932Y-109675842D01*
X190037990Y-109405589D01*
X189875475Y-109162368D01*
X189668632Y-108955525D01*
X189494240Y-108839000D01*
X189668632Y-108722475D01*
X189875475Y-108515632D01*
X190037990Y-108272411D01*
X190149932Y-108002158D01*
X190207000Y-107715260D01*
X190207000Y-107422740D01*
X190149932Y-107135842D01*
X190037990Y-106865589D01*
X189875475Y-106622368D01*
X189668632Y-106415525D01*
X189494240Y-106299000D01*
X189668632Y-106182475D01*
X189875475Y-105975632D01*
X190037990Y-105732411D01*
X190149932Y-105462158D01*
X190207000Y-105175260D01*
X190207000Y-104882740D01*
X190149932Y-104595842D01*
X190037990Y-104325589D01*
X189875475Y-104082368D01*
X189668632Y-103875525D01*
X189494240Y-103759000D01*
X189668632Y-103642475D01*
X189875475Y-103435632D01*
X190037990Y-103192411D01*
X190149932Y-102922158D01*
X190207000Y-102635260D01*
X190207000Y-102342740D01*
X190149932Y-102055842D01*
X190037990Y-101785589D01*
X189875475Y-101542368D01*
X189668632Y-101335525D01*
X189494240Y-101219000D01*
X189668632Y-101102475D01*
X189875475Y-100895632D01*
X190037990Y-100652411D01*
X190149932Y-100382158D01*
X190176605Y-100248061D01*
X196125000Y-100248061D01*
X196125000Y-100451939D01*
X196164774Y-100651898D01*
X196242795Y-100840256D01*
X196356063Y-101009774D01*
X196500226Y-101153937D01*
X196669744Y-101267205D01*
X196705983Y-101282216D01*
X196700226Y-101286063D01*
X196556063Y-101430226D01*
X196442795Y-101599744D01*
X196364774Y-101788102D01*
X196325000Y-101988061D01*
X196325000Y-102191939D01*
X196364774Y-102391898D01*
X196442795Y-102580256D01*
X196556063Y-102749774D01*
X196700226Y-102893937D01*
X196869744Y-103007205D01*
X197058102Y-103085226D01*
X197258061Y-103125000D01*
X197461939Y-103125000D01*
X197661898Y-103085226D01*
X197850256Y-103007205D01*
X198019774Y-102893937D01*
X198163937Y-102749774D01*
X198277205Y-102580256D01*
X198355226Y-102391898D01*
X198395000Y-102191939D01*
X198395000Y-101988061D01*
X198355226Y-101788102D01*
X198277205Y-101599744D01*
X198163937Y-101430226D01*
X198019774Y-101286063D01*
X197850256Y-101172795D01*
X197814017Y-101157784D01*
X197819774Y-101153937D01*
X197963937Y-101009774D01*
X198077205Y-100840256D01*
X198155226Y-100651898D01*
X198195000Y-100451939D01*
X198195000Y-100248061D01*
X198155226Y-100048102D01*
X198077205Y-99859744D01*
X197963937Y-99690226D01*
X197819774Y-99546063D01*
X197650256Y-99432795D01*
X197461898Y-99354774D01*
X197261939Y-99315000D01*
X197058061Y-99315000D01*
X196858102Y-99354774D01*
X196669744Y-99432795D01*
X196500226Y-99546063D01*
X196356063Y-99690226D01*
X196242795Y-99859744D01*
X196164774Y-100048102D01*
X196125000Y-100248061D01*
X190176605Y-100248061D01*
X190207000Y-100095260D01*
X190207000Y-99802740D01*
X190149932Y-99515842D01*
X190037990Y-99245589D01*
X189875475Y-99002368D01*
X189668632Y-98795525D01*
X189494240Y-98679000D01*
X189668632Y-98562475D01*
X189875475Y-98355632D01*
X190037990Y-98112411D01*
X190149932Y-97842158D01*
X190207000Y-97555260D01*
X190207000Y-97262740D01*
X190149932Y-96975842D01*
X190037990Y-96705589D01*
X189875475Y-96462368D01*
X189668632Y-96255525D01*
X189494240Y-96139000D01*
X189668632Y-96022475D01*
X189875475Y-95815632D01*
X190037990Y-95572411D01*
X190149932Y-95302158D01*
X190207000Y-95015260D01*
X190207000Y-94722740D01*
X190149932Y-94435842D01*
X190037990Y-94165589D01*
X189875475Y-93922368D01*
X189743620Y-93790513D01*
X189816180Y-93768502D01*
X189926494Y-93709537D01*
X190023185Y-93630185D01*
X190102537Y-93533494D01*
X190161502Y-93423180D01*
X190197812Y-93303482D01*
X190210072Y-93179000D01*
X190207000Y-92614750D01*
X190048250Y-92456000D01*
X188849000Y-92456000D01*
X188849000Y-92476000D01*
X188595000Y-92476000D01*
X188595000Y-92456000D01*
X188575000Y-92456000D01*
X188575000Y-92202000D01*
X188595000Y-92202000D01*
X188595000Y-92182000D01*
X188849000Y-92182000D01*
X188849000Y-92202000D01*
X190048250Y-92202000D01*
X190207000Y-92043250D01*
X190208760Y-91720000D01*
X192875567Y-91720000D01*
X192758168Y-91863051D01*
G37*
%TD.AperFunction*%
%TD*%
M02*
