%TF.GenerationSoftware,KiCad,Pcbnew,5.1.9-73d0e3b20d~88~ubuntu20.10.1*%
%TF.CreationDate,2021-03-03T18:54:08-06:00*%
%TF.ProjectId,serafino l432kc,73657261-6669-46e6-9f20-6c3433326b63,rev?*%
%TF.SameCoordinates,Original*%
%TF.FileFunction,Copper,L4,Bot*%
%TF.FilePolarity,Positive*%
%FSLAX46Y46*%
G04 Gerber Fmt 4.6, Leading zero omitted, Abs format (unit mm)*
G04 Created by KiCad (PCBNEW 5.1.9-73d0e3b20d~88~ubuntu20.10.1) date 2021-03-03 18:54:08*
%MOMM*%
%LPD*%
G01*
G04 APERTURE LIST*
%TA.AperFunction,ComponentPad*%
%ADD10O,1.700000X1.700000*%
%TD*%
%TA.AperFunction,ComponentPad*%
%ADD11R,1.700000X1.700000*%
%TD*%
%TA.AperFunction,ComponentPad*%
%ADD12C,1.450000*%
%TD*%
%TA.AperFunction,ComponentPad*%
%ADD13O,1.200000X1.900000*%
%TD*%
%TA.AperFunction,ViaPad*%
%ADD14C,0.800000*%
%TD*%
%TA.AperFunction,Conductor*%
%ADD15C,0.250000*%
%TD*%
%TA.AperFunction,Conductor*%
%ADD16C,0.300000*%
%TD*%
G04 APERTURE END LIST*
D10*
%TO.P,J3,14*%
%TO.N,PA0*%
X203962000Y-125349000D03*
%TO.P,J3,13*%
%TO.N,PA1*%
X203962000Y-122809000D03*
%TO.P,J3,12*%
%TO.N,PA2*%
X203962000Y-120269000D03*
%TO.P,J3,11*%
%TO.N,PA3*%
X203962000Y-117729000D03*
%TO.P,J3,10*%
%TO.N,SAI1_FS_B*%
X203962000Y-115189000D03*
%TO.P,J3,9*%
%TO.N,SPI1_SCK*%
X203962000Y-112649000D03*
%TO.P,J3,8*%
%TO.N,SPI1_MISO*%
X203962000Y-110109000D03*
%TO.P,J3,7*%
%TO.N,SPI1_MOSI*%
X203962000Y-107569000D03*
%TO.P,J3,6*%
%TO.N,SPI1_SS*%
X203962000Y-105029000D03*
%TO.P,J3,5*%
%TO.N,PB1*%
X203962000Y-102489000D03*
%TO.P,J3,4*%
%TO.N,CAN_RD*%
X203962000Y-99949000D03*
%TO.P,J3,3*%
%TO.N,I2C1_SCL*%
X203962000Y-97409000D03*
%TO.P,J3,2*%
%TO.N,I2C1_SDA*%
X203962000Y-94869000D03*
D11*
%TO.P,J3,1*%
%TO.N,+3V3*%
X203962000Y-92329000D03*
%TD*%
%TO.P,J2,1*%
%TO.N,GND*%
X188722000Y-92329000D03*
D10*
%TO.P,J2,2*%
%TO.N,VHIGH*%
X188722000Y-94869000D03*
%TO.P,J2,3*%
%TO.N,CAN_TD*%
X188722000Y-97409000D03*
%TO.P,J2,4*%
%TO.N,+VIN*%
X188722000Y-99949000D03*
%TO.P,J2,5*%
%TO.N,SWDIO*%
X188722000Y-102489000D03*
%TO.P,J2,6*%
%TO.N,SWCLK*%
X188722000Y-105029000D03*
%TO.P,J2,7*%
%TO.N,PA15*%
X188722000Y-107569000D03*
%TO.P,J2,8*%
%TO.N,SAI1_SCK_B*%
X188722000Y-110109000D03*
%TO.P,J2,9*%
%TO.N,PB4*%
X188722000Y-112649000D03*
%TO.P,J2,10*%
%TO.N,SAI1_SD_B*%
X188722000Y-115189000D03*
%TO.P,J2,11*%
%TO.N,USART1_TX*%
X188722000Y-117729000D03*
%TO.P,J2,12*%
%TO.N,USART1_RX*%
X188722000Y-120269000D03*
%TO.P,J2,13*%
%TO.N,PA8*%
X188722000Y-122809000D03*
%TO.P,J2,14*%
%TO.N,NRST*%
X188722000Y-125349000D03*
%TD*%
D12*
%TO.P,J1,6*%
%TO.N,Net-(J1-Pad6)*%
X199790000Y-95602500D03*
X194790000Y-95602500D03*
D13*
X200790000Y-92902500D03*
X193790000Y-92902500D03*
%TD*%
D14*
%TO.N,GND*%
X196469000Y-110236000D03*
X195326000Y-111379000D03*
X197612000Y-111379000D03*
X197612000Y-109220000D03*
X195326000Y-109220000D03*
X199245903Y-107860403D03*
X193392918Y-114877116D03*
X192087500Y-118491000D03*
X193040000Y-124587000D03*
X194530000Y-98640000D03*
X192180000Y-103770000D03*
X198160000Y-97750000D03*
X201830000Y-117780000D03*
%TO.N,NRST*%
X196574153Y-114804847D03*
X195199000Y-124714000D03*
%TO.N,+3V3*%
X194373500Y-114681000D03*
X202057000Y-116332000D03*
X192405000Y-121031000D03*
X197160000Y-100350000D03*
X200100000Y-106140000D03*
X203244165Y-93609151D03*
%TO.N,PA0*%
X198496347Y-114224510D03*
%TO.N,I2C1_SCL*%
X201640173Y-103267259D03*
%TO.N,I2C1_SDA*%
X201029842Y-102475110D03*
%TO.N,PB1*%
X201803000Y-108775500D03*
%TO.N,PA8*%
X201078000Y-104770900D03*
%TO.N,PA1*%
X199517000Y-114173000D03*
%TO.N,PA2*%
X200469500Y-113538000D03*
%TO.N,CAN_TD*%
X197360000Y-102090000D03*
%TD*%
D15*
%TO.N,NRST*%
X194600999Y-124115999D02*
X195199000Y-124714000D01*
X194600999Y-116778001D02*
X194600999Y-124115999D01*
X196574153Y-114804847D02*
X194600999Y-116778001D01*
D16*
%TO.N,Net-(J1-Pad6)*%
X194790000Y-93902500D02*
X193790000Y-92902500D01*
X194790000Y-95602500D02*
X194790000Y-93902500D01*
X199790000Y-93902500D02*
X200790000Y-92902500D01*
X199790000Y-95602500D02*
X199790000Y-93902500D01*
D15*
%TO.N,PA0*%
X198496347Y-119883347D02*
X203962000Y-125349000D01*
X198496347Y-114224510D02*
X198496347Y-119883347D01*
%TO.N,I2C1_SCL*%
X202040172Y-102867260D02*
X202040172Y-99330828D01*
X202040172Y-99330828D02*
X203962000Y-97409000D01*
X201640173Y-103267259D02*
X202040172Y-102867260D01*
%TO.N,I2C1_SDA*%
X201029842Y-97801158D02*
X203962000Y-94869000D01*
X201029842Y-102475110D02*
X201029842Y-97801158D01*
%TO.N,PB1*%
X201803000Y-104648000D02*
X203962000Y-102489000D01*
X201803000Y-108775500D02*
X201803000Y-104648000D01*
%TO.N,PA8*%
X198702098Y-104770900D02*
X191050000Y-112422998D01*
X201078000Y-104770900D02*
X198702098Y-104770900D01*
X191050000Y-120481000D02*
X188722000Y-122809000D01*
X191050000Y-112422998D02*
X191050000Y-120481000D01*
%TO.N,PA1*%
X199517000Y-118364000D02*
X203962000Y-122809000D01*
X199517000Y-114173000D02*
X199517000Y-118364000D01*
%TO.N,PA2*%
X202982545Y-120269000D02*
X203962000Y-120269000D01*
X200469500Y-117755955D02*
X202982545Y-120269000D01*
X200469500Y-113538000D02*
X200469500Y-117755955D01*
%TO.N,CAN_TD*%
X193403000Y-102090000D02*
X188722000Y-97409000D01*
X197360000Y-102090000D02*
X193403000Y-102090000D01*
%TD*%
M02*
