M48
; DRILL file {KiCad 5.1.9-73d0e3b20d~88~ubuntu20.10.1} date Wed Mar  3 18:54:06 2021
; FORMAT={-:-/ absolute / inch / decimal}
; #@! TF.CreationDate,2021-03-03T18:54:06-06:00
; #@! TF.GenerationSoftware,Kicad,Pcbnew,5.1.9-73d0e3b20d~88~ubuntu20.10.1
; #@! TF.FileFunction,Plated,1,4,PTH
FMAT,2
INCH
T1C0.0157
T2C0.0236
T3C0.0335
T4C0.0394
%
G90
G05
T1
X7.5625Y-4.665
X7.5661Y-4.0854
X7.575Y-4.765
X7.6Y-4.905
X7.6139Y-4.5227
X7.6525Y-4.515
X7.6587Y-3.8835
X7.685Y-4.91
X7.69Y-4.3
X7.69Y-4.385
X7.735Y-4.34
X7.7391Y-4.5199
X7.7622Y-3.9508
X7.7701Y-4.0193
X7.78Y-4.3
X7.78Y-4.385
X7.8016Y-3.8484
X7.8148Y-4.497
X7.8443Y-4.2465
X7.855Y-4.495
X7.878Y-4.1787
X7.8925Y-4.47
X7.9146Y-4.0345
X7.9165Y-4.1248
X7.9386Y-4.0656
X7.945Y-4.2825
X7.9461Y-4.637
X7.955Y-4.58
X8.0017Y-3.6854
T3
X7.6689Y-3.7639
X7.8657Y-3.7639
T4
X7.43Y-3.635
X7.43Y-3.735
X7.43Y-3.835
X7.43Y-3.935
X7.43Y-4.035
X7.43Y-4.135
X7.43Y-4.235
X7.43Y-4.335
X7.43Y-4.435
X7.43Y-4.535
X7.43Y-4.635
X7.43Y-4.735
X7.43Y-4.835
X7.43Y-4.935
X8.03Y-3.635
X8.03Y-3.735
X8.03Y-3.835
X8.03Y-3.935
X8.03Y-4.035
X8.03Y-4.135
X8.03Y-4.235
X8.03Y-4.335
X8.03Y-4.435
X8.03Y-4.535
X8.03Y-4.635
X8.03Y-4.735
X8.03Y-4.835
X8.03Y-4.935
T2
G00X7.6295Y-3.6714
M15
G01X7.6295Y-3.6438
M16
G05
G00X7.9051Y-3.6438
M15
G01X7.9051Y-3.6714
M16
G05
T0
M30
