M48
; DRILL file {KiCad 5.1.9-73d0e3b20d~88~ubuntu20.10.1} date Fri Jan  8 13:25:00 2021
; FORMAT={-:-/ absolute / inch / decimal}
; #@! TF.CreationDate,2021-01-08T13:25:00-06:00
; #@! TF.GenerationSoftware,Kicad,Pcbnew,5.1.9-73d0e3b20d~88~ubuntu20.10.1
; #@! TF.FileFunction,Plated,1,4,PTH
FMAT,2
INCH
T1C0.0157
T2C0.0236
T3C0.0335
T4C0.0394
%
G90
G05
T1
X7.4046Y-4.59
X7.525Y-4.0975
X7.555Y-4.145
X7.5625Y-4.665
X7.5703Y-4.4103
X7.5847Y-4.0541
X7.595Y-3.825
X7.6139Y-4.5227
X7.6525Y-4.515
X7.6606Y-3.9017
X7.69Y-4.3
X7.69Y-4.385
X7.6925Y-3.765
X7.7325Y-3.99
X7.735Y-4.34
X7.7353Y-3.925
X7.7402Y-4.5048
X7.755Y-3.75
X7.76Y-4.061
X7.78Y-4.3
X7.78Y-4.385
X7.8Y-4.77
X7.8072Y-4.61
X7.82Y-4.92
X7.83Y-4.5
X7.8413Y-4.7158
X7.8443Y-4.2465
X7.8705Y-4.5001
X7.8784Y-4.4616
X7.883Y-4.0916
X7.8902Y-4.1902
X7.905Y-3.795
X7.93Y-3.615
X7.945Y-4.2825
T3
X7.6566Y-3.8076
X7.8534Y-3.8076
T4
X7.43Y-3.635
X7.43Y-3.735
X7.43Y-3.835
X7.43Y-3.935
X7.43Y-4.035
X7.43Y-4.135
X7.43Y-4.235
X7.43Y-4.335
X7.43Y-4.435
X7.43Y-4.535
X7.43Y-4.635
X7.43Y-4.735
X7.43Y-4.835
X7.43Y-4.935
X8.03Y-3.635
X8.03Y-3.735
X8.03Y-3.835
X8.03Y-3.935
X8.03Y-4.035
X8.03Y-4.135
X8.03Y-4.235
X8.03Y-4.335
X8.03Y-4.435
X8.03Y-4.535
X8.03Y-4.635
X8.03Y-4.735
X8.03Y-4.835
X8.03Y-4.935
T2
G00X7.6172Y-3.7151
M15
G01X7.6172Y-3.6875
M16
G05
G00X7.8928Y-3.6875
M15
G01X7.8928Y-3.7151
M16
G05
T0
M30
