%TF.GenerationSoftware,KiCad,Pcbnew,(5.1.8-0-10_14)*%
%TF.CreationDate,2021-01-29T20:55:06-06:00*%
%TF.ProjectId,serafino l432kc,73657261-6669-46e6-9f20-6c3433326b63,rev?*%
%TF.SameCoordinates,Original*%
%TF.FileFunction,Copper,L4,Bot*%
%TF.FilePolarity,Positive*%
%FSLAX46Y46*%
G04 Gerber Fmt 4.6, Leading zero omitted, Abs format (unit mm)*
G04 Created by KiCad (PCBNEW (5.1.8-0-10_14)) date 2021-01-29 20:55:06*
%MOMM*%
%LPD*%
G01*
G04 APERTURE LIST*
%TA.AperFunction,ComponentPad*%
%ADD10O,1.700000X1.700000*%
%TD*%
%TA.AperFunction,ComponentPad*%
%ADD11R,1.700000X1.700000*%
%TD*%
%TA.AperFunction,ComponentPad*%
%ADD12C,1.450000*%
%TD*%
%TA.AperFunction,ComponentPad*%
%ADD13O,1.200000X1.900000*%
%TD*%
%TA.AperFunction,ViaPad*%
%ADD14C,0.800000*%
%TD*%
%TA.AperFunction,Conductor*%
%ADD15C,0.250000*%
%TD*%
%TA.AperFunction,Conductor*%
%ADD16C,0.500000*%
%TD*%
%TA.AperFunction,Conductor*%
%ADD17C,0.300000*%
%TD*%
G04 APERTURE END LIST*
D10*
%TO.P,J3,14*%
%TO.N,PA0*%
X203962000Y-125349000D03*
%TO.P,J3,13*%
%TO.N,LED0*%
X203962000Y-122809000D03*
%TO.P,J3,12*%
%TO.N,LED1*%
X203962000Y-120269000D03*
%TO.P,J3,11*%
%TO.N,LED2*%
X203962000Y-117729000D03*
%TO.P,J3,10*%
%TO.N,SAI1_FS_B*%
X203962000Y-115189000D03*
%TO.P,J3,9*%
%TO.N,SPI1_SCK*%
X203962000Y-112649000D03*
%TO.P,J3,8*%
%TO.N,SPI1_MISO*%
X203962000Y-110109000D03*
%TO.P,J3,7*%
%TO.N,SPI1_MOSI*%
X203962000Y-107569000D03*
%TO.P,J3,6*%
%TO.N,SPI1_SS*%
X203962000Y-105029000D03*
%TO.P,J3,5*%
%TO.N,PB1*%
X203962000Y-102489000D03*
%TO.P,J3,4*%
%TO.N,PA8*%
X203962000Y-99949000D03*
%TO.P,J3,3*%
%TO.N,I2C1_SCL*%
X203962000Y-97409000D03*
%TO.P,J3,2*%
%TO.N,I2C1_SDA*%
X203962000Y-94869000D03*
D11*
%TO.P,J3,1*%
%TO.N,+3V3*%
X203962000Y-92329000D03*
%TD*%
%TO.P,J2,1*%
%TO.N,GND*%
X188722000Y-92329000D03*
D10*
%TO.P,J2,2*%
%TO.N,EN*%
X188722000Y-94869000D03*
%TO.P,J2,3*%
%TO.N,VHIGH*%
X188722000Y-97409000D03*
%TO.P,J2,4*%
%TO.N,+VIN*%
X188722000Y-99949000D03*
%TO.P,J2,5*%
%TO.N,SWDIO*%
X188722000Y-102489000D03*
%TO.P,J2,6*%
%TO.N,SWCLK*%
X188722000Y-105029000D03*
%TO.P,J2,7*%
%TO.N,PA15*%
X188722000Y-107569000D03*
%TO.P,J2,8*%
%TO.N,SAI1_SCK_B*%
X188722000Y-110109000D03*
%TO.P,J2,9*%
%TO.N,PB4*%
X188722000Y-112649000D03*
%TO.P,J2,10*%
%TO.N,SAI1_SD_B*%
X188722000Y-115189000D03*
%TO.P,J2,11*%
%TO.N,USART1_TX*%
X188722000Y-117729000D03*
%TO.P,J2,12*%
%TO.N,USART1_RX*%
X188722000Y-120269000D03*
%TO.P,J2,13*%
%TO.N,BOOT0*%
X188722000Y-122809000D03*
%TO.P,J2,14*%
%TO.N,NRST*%
X188722000Y-125349000D03*
%TD*%
D12*
%TO.P,J1,6*%
%TO.N,Net-(J1-Pad6)*%
X199477000Y-96712500D03*
X194477000Y-96712500D03*
D13*
X200477000Y-94012500D03*
X193477000Y-94012500D03*
%TD*%
D14*
%TO.N,GND*%
X196469000Y-110236000D03*
X195326000Y-111379000D03*
X197612000Y-111379000D03*
X197612000Y-109220000D03*
X195326000Y-109220000D03*
X196476500Y-99695000D03*
X195389500Y-95631000D03*
X194578577Y-99104007D03*
X191135000Y-104076500D03*
X199245903Y-107860403D03*
X193392918Y-114877116D03*
X192087500Y-118491000D03*
X202438000Y-117602000D03*
X193040000Y-124587000D03*
%TO.N,NRST*%
X196574153Y-114804847D03*
X195199000Y-124714000D03*
%TO.N,+3V3*%
X197104000Y-103148998D03*
X196405500Y-101346000D03*
X200410814Y-106430814D03*
X194373500Y-114681000D03*
X201422000Y-91821000D03*
X202057000Y-116332000D03*
%TO.N,LED0*%
X199517000Y-114173000D03*
%TO.N,Net-(D2-Pad1)*%
X192913000Y-97155000D03*
X192651768Y-102973464D03*
%TO.N,Net-(J1-Pad6)*%
X200787000Y-96393000D03*
X196977000Y-95250000D03*
%TO.N,PA0*%
X198498124Y-114224510D03*
X195325999Y-120904000D03*
%TO.N,I2C1_SDA*%
X200227303Y-103927303D03*
%TO.N,LED1*%
X199458153Y-113088847D03*
%TO.N,EN*%
X191897000Y-105283000D03*
%TO.N,PB1*%
X201803000Y-108775500D03*
%TD*%
D15*
%TO.N,NRST*%
X194600999Y-124115999D02*
X195199000Y-124714000D01*
X194600999Y-116778001D02*
X194600999Y-124115999D01*
X196574153Y-114804847D02*
X194600999Y-116778001D01*
%TO.N,LED0*%
X199517000Y-118364000D02*
X203962000Y-122809000D01*
X199517000Y-114173000D02*
X199517000Y-118364000D01*
D16*
%TO.N,Net-(D2-Pad1)*%
X192913000Y-102712232D02*
X192651768Y-102973464D01*
X192913000Y-97155000D02*
X192913000Y-102712232D01*
D17*
%TO.N,Net-(J1-Pad6)*%
X199644000Y-95250000D02*
X196977000Y-95250000D01*
X200787000Y-96393000D02*
X199644000Y-95250000D01*
D15*
%TO.N,PA0*%
X198498124Y-117731875D02*
X195325999Y-120904000D01*
X198498124Y-114224510D02*
X198498124Y-117731875D01*
%TO.N,I2C1_SDA*%
X200227303Y-98603697D02*
X203962000Y-94869000D01*
X200227303Y-103927303D02*
X200227303Y-98603697D01*
%TO.N,LED1*%
X200242001Y-116549001D02*
X203962000Y-120269000D01*
X200242001Y-113872695D02*
X200242001Y-116549001D01*
X199458153Y-113088847D02*
X200242001Y-113872695D01*
%TO.N,EN*%
X191897000Y-98044000D02*
X188722000Y-94869000D01*
X191897000Y-105283000D02*
X191897000Y-98044000D01*
%TO.N,PB1*%
X201803000Y-104648000D02*
X203962000Y-102489000D01*
X201803000Y-108775500D02*
X201803000Y-104648000D01*
%TD*%
M02*
