%TF.GenerationSoftware,KiCad,Pcbnew,(5.1.8-0-10_14)*%
%TF.CreationDate,2021-01-29T20:55:06-06:00*%
%TF.ProjectId,serafino l432kc,73657261-6669-46e6-9f20-6c3433326b63,rev?*%
%TF.SameCoordinates,Original*%
%TF.FileFunction,Copper,L2,Inr*%
%TF.FilePolarity,Positive*%
%FSLAX46Y46*%
G04 Gerber Fmt 4.6, Leading zero omitted, Abs format (unit mm)*
G04 Created by KiCad (PCBNEW (5.1.8-0-10_14)) date 2021-01-29 20:55:06*
%MOMM*%
%LPD*%
G01*
G04 APERTURE LIST*
%TA.AperFunction,ComponentPad*%
%ADD10O,1.700000X1.700000*%
%TD*%
%TA.AperFunction,ComponentPad*%
%ADD11R,1.700000X1.700000*%
%TD*%
%TA.AperFunction,ComponentPad*%
%ADD12C,1.450000*%
%TD*%
%TA.AperFunction,ComponentPad*%
%ADD13O,1.200000X1.900000*%
%TD*%
%TA.AperFunction,ViaPad*%
%ADD14C,0.800000*%
%TD*%
%TA.AperFunction,Conductor*%
%ADD15C,0.254000*%
%TD*%
%TA.AperFunction,Conductor*%
%ADD16C,0.100000*%
%TD*%
G04 APERTURE END LIST*
D10*
%TO.N,PA0*%
%TO.C,J3*%
X203962000Y-125349000D03*
%TO.N,LED0*%
X203962000Y-122809000D03*
%TO.N,LED1*%
X203962000Y-120269000D03*
%TO.N,LED2*%
X203962000Y-117729000D03*
%TO.N,SAI1_FS_B*%
X203962000Y-115189000D03*
%TO.N,SPI1_SCK*%
X203962000Y-112649000D03*
%TO.N,SPI1_MISO*%
X203962000Y-110109000D03*
%TO.N,SPI1_MOSI*%
X203962000Y-107569000D03*
%TO.N,SPI1_SS*%
X203962000Y-105029000D03*
%TO.N,PB1*%
X203962000Y-102489000D03*
%TO.N,PA8*%
X203962000Y-99949000D03*
%TO.N,I2C1_SCL*%
X203962000Y-97409000D03*
%TO.N,I2C1_SDA*%
X203962000Y-94869000D03*
D11*
%TO.N,+3V3*%
X203962000Y-92329000D03*
%TD*%
%TO.N,GND*%
%TO.C,J2*%
X188722000Y-92329000D03*
D10*
%TO.N,EN*%
X188722000Y-94869000D03*
%TO.N,VHIGH*%
X188722000Y-97409000D03*
%TO.N,+VIN*%
X188722000Y-99949000D03*
%TO.N,SWDIO*%
X188722000Y-102489000D03*
%TO.N,SWCLK*%
X188722000Y-105029000D03*
%TO.N,PA15*%
X188722000Y-107569000D03*
%TO.N,SAI1_SCK_B*%
X188722000Y-110109000D03*
%TO.N,PB4*%
X188722000Y-112649000D03*
%TO.N,SAI1_SD_B*%
X188722000Y-115189000D03*
%TO.N,USART1_TX*%
X188722000Y-117729000D03*
%TO.N,USART1_RX*%
X188722000Y-120269000D03*
%TO.N,BOOT0*%
X188722000Y-122809000D03*
%TO.N,NRST*%
X188722000Y-125349000D03*
%TD*%
D12*
%TO.N,Net-(J1-Pad6)*%
%TO.C,J1*%
X199477000Y-96712500D03*
X194477000Y-96712500D03*
D13*
X200477000Y-94012500D03*
X193477000Y-94012500D03*
%TD*%
D14*
%TO.N,GND*%
X196469000Y-110236000D03*
X195326000Y-111379000D03*
X197612000Y-111379000D03*
X197612000Y-109220000D03*
X195326000Y-109220000D03*
X196476500Y-99695000D03*
X195389500Y-95631000D03*
X194578577Y-99104007D03*
X191135000Y-104076500D03*
X199245903Y-107860403D03*
X193392918Y-114877116D03*
X192087500Y-118491000D03*
X202438000Y-117602000D03*
X193040000Y-124587000D03*
%TO.N,NRST*%
X196574153Y-114804847D03*
X195199000Y-124714000D03*
%TO.N,+3V3*%
X197104000Y-103148998D03*
X196405500Y-101346000D03*
X200410814Y-106430814D03*
X194373500Y-114681000D03*
X201422000Y-91821000D03*
X202057000Y-116332000D03*
%TO.N,LED0*%
X199517000Y-114173000D03*
%TO.N,Net-(D2-Pad1)*%
X192913000Y-97155000D03*
X192651768Y-102973464D03*
%TO.N,Net-(J1-Pad6)*%
X200787000Y-96393000D03*
X196977000Y-95250000D03*
%TO.N,PA0*%
X198498124Y-114224510D03*
X195325999Y-120904000D03*
%TO.N,I2C1_SDA*%
X200227303Y-103927303D03*
%TO.N,LED1*%
X199458153Y-113088847D03*
%TO.N,EN*%
X191897000Y-105283000D03*
%TO.N,PB1*%
X201803000Y-108775500D03*
%TD*%
D15*
%TO.N,GND*%
X200387000Y-91719061D02*
X200387000Y-91922939D01*
X200426774Y-92122898D01*
X200504795Y-92311256D01*
X200585623Y-92432223D01*
X200477000Y-92421525D01*
X200234898Y-92445370D01*
X200002099Y-92515989D01*
X199787551Y-92630667D01*
X199599498Y-92784998D01*
X199445167Y-92973052D01*
X199330489Y-93187600D01*
X199259870Y-93420399D01*
X199242000Y-93601836D01*
X199242000Y-94423165D01*
X199259870Y-94604602D01*
X199330489Y-94837401D01*
X199445168Y-95051949D01*
X199599499Y-95240002D01*
X199776769Y-95385484D01*
X199610948Y-95352500D01*
X199343052Y-95352500D01*
X199080303Y-95404764D01*
X198832799Y-95507284D01*
X198610051Y-95656119D01*
X198420619Y-95845551D01*
X198271784Y-96068299D01*
X198169264Y-96315803D01*
X198117000Y-96578552D01*
X198117000Y-96846448D01*
X198169264Y-97109197D01*
X198271784Y-97356701D01*
X198420619Y-97579449D01*
X198610051Y-97768881D01*
X198832799Y-97917716D01*
X199080303Y-98020236D01*
X199343052Y-98072500D01*
X199610948Y-98072500D01*
X199873697Y-98020236D01*
X200121201Y-97917716D01*
X200343949Y-97768881D01*
X200533381Y-97579449D01*
X200640498Y-97419136D01*
X200685061Y-97428000D01*
X200888939Y-97428000D01*
X201088898Y-97388226D01*
X201277256Y-97310205D01*
X201446774Y-97196937D01*
X201590937Y-97052774D01*
X201704205Y-96883256D01*
X201782226Y-96694898D01*
X201822000Y-96494939D01*
X201822000Y-96291061D01*
X201782226Y-96091102D01*
X201704205Y-95902744D01*
X201590937Y-95733226D01*
X201446774Y-95589063D01*
X201277256Y-95475795D01*
X201128963Y-95414370D01*
X201166449Y-95394333D01*
X201354502Y-95240002D01*
X201508833Y-95051949D01*
X201623511Y-94837401D01*
X201694130Y-94604601D01*
X201712000Y-94423164D01*
X201712000Y-93601835D01*
X201694130Y-93420398D01*
X201623511Y-93187599D01*
X201508833Y-92973051D01*
X201412772Y-92856000D01*
X201523939Y-92856000D01*
X201723898Y-92816226D01*
X201912256Y-92738205D01*
X202081774Y-92624937D01*
X202225937Y-92480774D01*
X202339205Y-92311256D01*
X202417226Y-92122898D01*
X202457000Y-91922939D01*
X202457000Y-91719061D01*
X202456988Y-91719000D01*
X202473928Y-91719000D01*
X202473928Y-93179000D01*
X202486188Y-93303482D01*
X202522498Y-93423180D01*
X202581463Y-93533494D01*
X202660815Y-93630185D01*
X202757506Y-93709537D01*
X202867820Y-93768502D01*
X202940380Y-93790513D01*
X202808525Y-93922368D01*
X202646010Y-94165589D01*
X202534068Y-94435842D01*
X202477000Y-94722740D01*
X202477000Y-95015260D01*
X202534068Y-95302158D01*
X202646010Y-95572411D01*
X202808525Y-95815632D01*
X203015368Y-96022475D01*
X203189760Y-96139000D01*
X203015368Y-96255525D01*
X202808525Y-96462368D01*
X202646010Y-96705589D01*
X202534068Y-96975842D01*
X202477000Y-97262740D01*
X202477000Y-97555260D01*
X202534068Y-97842158D01*
X202646010Y-98112411D01*
X202808525Y-98355632D01*
X203015368Y-98562475D01*
X203189760Y-98679000D01*
X203015368Y-98795525D01*
X202808525Y-99002368D01*
X202646010Y-99245589D01*
X202534068Y-99515842D01*
X202477000Y-99802740D01*
X202477000Y-100095260D01*
X202534068Y-100382158D01*
X202646010Y-100652411D01*
X202808525Y-100895632D01*
X203015368Y-101102475D01*
X203189760Y-101219000D01*
X203015368Y-101335525D01*
X202808525Y-101542368D01*
X202646010Y-101785589D01*
X202534068Y-102055842D01*
X202477000Y-102342740D01*
X202477000Y-102635260D01*
X202534068Y-102922158D01*
X202646010Y-103192411D01*
X202808525Y-103435632D01*
X203015368Y-103642475D01*
X203189760Y-103759000D01*
X203015368Y-103875525D01*
X202808525Y-104082368D01*
X202646010Y-104325589D01*
X202534068Y-104595842D01*
X202477000Y-104882740D01*
X202477000Y-105175260D01*
X202534068Y-105462158D01*
X202646010Y-105732411D01*
X202808525Y-105975632D01*
X203015368Y-106182475D01*
X203189760Y-106299000D01*
X203015368Y-106415525D01*
X202808525Y-106622368D01*
X202646010Y-106865589D01*
X202534068Y-107135842D01*
X202477000Y-107422740D01*
X202477000Y-107715260D01*
X202534068Y-108002158D01*
X202562846Y-108071635D01*
X202462774Y-107971563D01*
X202293256Y-107858295D01*
X202104898Y-107780274D01*
X201904939Y-107740500D01*
X201701061Y-107740500D01*
X201501102Y-107780274D01*
X201312744Y-107858295D01*
X201143226Y-107971563D01*
X200999063Y-108115726D01*
X200885795Y-108285244D01*
X200807774Y-108473602D01*
X200768000Y-108673561D01*
X200768000Y-108877439D01*
X200807774Y-109077398D01*
X200885795Y-109265756D01*
X200999063Y-109435274D01*
X201143226Y-109579437D01*
X201312744Y-109692705D01*
X201501102Y-109770726D01*
X201701061Y-109810500D01*
X201904939Y-109810500D01*
X202104898Y-109770726D01*
X202293256Y-109692705D01*
X202462774Y-109579437D01*
X202606937Y-109435274D01*
X202720205Y-109265756D01*
X202798226Y-109077398D01*
X202838000Y-108877439D01*
X202838000Y-108673561D01*
X202805764Y-108511500D01*
X202808525Y-108515632D01*
X203015368Y-108722475D01*
X203189760Y-108839000D01*
X203015368Y-108955525D01*
X202808525Y-109162368D01*
X202646010Y-109405589D01*
X202534068Y-109675842D01*
X202477000Y-109962740D01*
X202477000Y-110255260D01*
X202534068Y-110542158D01*
X202646010Y-110812411D01*
X202808525Y-111055632D01*
X203015368Y-111262475D01*
X203189760Y-111379000D01*
X203015368Y-111495525D01*
X202808525Y-111702368D01*
X202646010Y-111945589D01*
X202534068Y-112215842D01*
X202477000Y-112502740D01*
X202477000Y-112795260D01*
X202534068Y-113082158D01*
X202646010Y-113352411D01*
X202808525Y-113595632D01*
X203015368Y-113802475D01*
X203189760Y-113919000D01*
X203015368Y-114035525D01*
X202808525Y-114242368D01*
X202646010Y-114485589D01*
X202534068Y-114755842D01*
X202477000Y-115042740D01*
X202477000Y-115335260D01*
X202487933Y-115390222D01*
X202358898Y-115336774D01*
X202158939Y-115297000D01*
X201955061Y-115297000D01*
X201755102Y-115336774D01*
X201566744Y-115414795D01*
X201397226Y-115528063D01*
X201253063Y-115672226D01*
X201139795Y-115841744D01*
X201061774Y-116030102D01*
X201022000Y-116230061D01*
X201022000Y-116433939D01*
X201061774Y-116633898D01*
X201139795Y-116822256D01*
X201253063Y-116991774D01*
X201397226Y-117135937D01*
X201566744Y-117249205D01*
X201755102Y-117327226D01*
X201955061Y-117367000D01*
X202158939Y-117367000D01*
X202358898Y-117327226D01*
X202547256Y-117249205D01*
X202555731Y-117243542D01*
X202534068Y-117295842D01*
X202477000Y-117582740D01*
X202477000Y-117875260D01*
X202534068Y-118162158D01*
X202646010Y-118432411D01*
X202808525Y-118675632D01*
X203015368Y-118882475D01*
X203189760Y-118999000D01*
X203015368Y-119115525D01*
X202808525Y-119322368D01*
X202646010Y-119565589D01*
X202534068Y-119835842D01*
X202477000Y-120122740D01*
X202477000Y-120415260D01*
X202534068Y-120702158D01*
X202646010Y-120972411D01*
X202808525Y-121215632D01*
X203015368Y-121422475D01*
X203189760Y-121539000D01*
X203015368Y-121655525D01*
X202808525Y-121862368D01*
X202646010Y-122105589D01*
X202534068Y-122375842D01*
X202477000Y-122662740D01*
X202477000Y-122955260D01*
X202534068Y-123242158D01*
X202646010Y-123512411D01*
X202808525Y-123755632D01*
X203015368Y-123962475D01*
X203189760Y-124079000D01*
X203015368Y-124195525D01*
X202808525Y-124402368D01*
X202646010Y-124645589D01*
X202534068Y-124915842D01*
X202477000Y-125202740D01*
X202477000Y-125495260D01*
X202534068Y-125782158D01*
X202607318Y-125959000D01*
X190076682Y-125959000D01*
X190149932Y-125782158D01*
X190207000Y-125495260D01*
X190207000Y-125202740D01*
X190149932Y-124915842D01*
X190037990Y-124645589D01*
X190015588Y-124612061D01*
X194164000Y-124612061D01*
X194164000Y-124815939D01*
X194203774Y-125015898D01*
X194281795Y-125204256D01*
X194395063Y-125373774D01*
X194539226Y-125517937D01*
X194708744Y-125631205D01*
X194897102Y-125709226D01*
X195097061Y-125749000D01*
X195300939Y-125749000D01*
X195500898Y-125709226D01*
X195689256Y-125631205D01*
X195858774Y-125517937D01*
X196002937Y-125373774D01*
X196116205Y-125204256D01*
X196194226Y-125015898D01*
X196234000Y-124815939D01*
X196234000Y-124612061D01*
X196194226Y-124412102D01*
X196116205Y-124223744D01*
X196002937Y-124054226D01*
X195858774Y-123910063D01*
X195689256Y-123796795D01*
X195500898Y-123718774D01*
X195300939Y-123679000D01*
X195097061Y-123679000D01*
X194897102Y-123718774D01*
X194708744Y-123796795D01*
X194539226Y-123910063D01*
X194395063Y-124054226D01*
X194281795Y-124223744D01*
X194203774Y-124412102D01*
X194164000Y-124612061D01*
X190015588Y-124612061D01*
X189875475Y-124402368D01*
X189668632Y-124195525D01*
X189494240Y-124079000D01*
X189668632Y-123962475D01*
X189875475Y-123755632D01*
X190037990Y-123512411D01*
X190149932Y-123242158D01*
X190207000Y-122955260D01*
X190207000Y-122662740D01*
X190149932Y-122375842D01*
X190037990Y-122105589D01*
X189875475Y-121862368D01*
X189668632Y-121655525D01*
X189494240Y-121539000D01*
X189668632Y-121422475D01*
X189875475Y-121215632D01*
X190037990Y-120972411D01*
X190108550Y-120802061D01*
X194290999Y-120802061D01*
X194290999Y-121005939D01*
X194330773Y-121205898D01*
X194408794Y-121394256D01*
X194522062Y-121563774D01*
X194666225Y-121707937D01*
X194835743Y-121821205D01*
X195024101Y-121899226D01*
X195224060Y-121939000D01*
X195427938Y-121939000D01*
X195627897Y-121899226D01*
X195816255Y-121821205D01*
X195985773Y-121707937D01*
X196129936Y-121563774D01*
X196243204Y-121394256D01*
X196321225Y-121205898D01*
X196360999Y-121005939D01*
X196360999Y-120802061D01*
X196321225Y-120602102D01*
X196243204Y-120413744D01*
X196129936Y-120244226D01*
X195985773Y-120100063D01*
X195816255Y-119986795D01*
X195627897Y-119908774D01*
X195427938Y-119869000D01*
X195224060Y-119869000D01*
X195024101Y-119908774D01*
X194835743Y-119986795D01*
X194666225Y-120100063D01*
X194522062Y-120244226D01*
X194408794Y-120413744D01*
X194330773Y-120602102D01*
X194290999Y-120802061D01*
X190108550Y-120802061D01*
X190149932Y-120702158D01*
X190207000Y-120415260D01*
X190207000Y-120122740D01*
X190149932Y-119835842D01*
X190037990Y-119565589D01*
X189875475Y-119322368D01*
X189668632Y-119115525D01*
X189494240Y-118999000D01*
X189668632Y-118882475D01*
X189875475Y-118675632D01*
X190037990Y-118432411D01*
X190149932Y-118162158D01*
X190207000Y-117875260D01*
X190207000Y-117582740D01*
X190149932Y-117295842D01*
X190037990Y-117025589D01*
X189875475Y-116782368D01*
X189668632Y-116575525D01*
X189494240Y-116459000D01*
X189668632Y-116342475D01*
X189875475Y-116135632D01*
X190037990Y-115892411D01*
X190149932Y-115622158D01*
X190207000Y-115335260D01*
X190207000Y-115042740D01*
X190149932Y-114755842D01*
X190076708Y-114579061D01*
X193338500Y-114579061D01*
X193338500Y-114782939D01*
X193378274Y-114982898D01*
X193456295Y-115171256D01*
X193569563Y-115340774D01*
X193713726Y-115484937D01*
X193883244Y-115598205D01*
X194071602Y-115676226D01*
X194271561Y-115716000D01*
X194475439Y-115716000D01*
X194675398Y-115676226D01*
X194863756Y-115598205D01*
X195033274Y-115484937D01*
X195177437Y-115340774D01*
X195290705Y-115171256D01*
X195368726Y-114982898D01*
X195408500Y-114782939D01*
X195408500Y-114702908D01*
X195539153Y-114702908D01*
X195539153Y-114906786D01*
X195578927Y-115106745D01*
X195656948Y-115295103D01*
X195770216Y-115464621D01*
X195914379Y-115608784D01*
X196083897Y-115722052D01*
X196272255Y-115800073D01*
X196472214Y-115839847D01*
X196676092Y-115839847D01*
X196876051Y-115800073D01*
X197064409Y-115722052D01*
X197233927Y-115608784D01*
X197378090Y-115464621D01*
X197491358Y-115295103D01*
X197569379Y-115106745D01*
X197609153Y-114906786D01*
X197609153Y-114757021D01*
X197694187Y-114884284D01*
X197838350Y-115028447D01*
X198007868Y-115141715D01*
X198196226Y-115219736D01*
X198396185Y-115259510D01*
X198600063Y-115259510D01*
X198800022Y-115219736D01*
X198988380Y-115141715D01*
X199050650Y-115100107D01*
X199215102Y-115168226D01*
X199415061Y-115208000D01*
X199618939Y-115208000D01*
X199818898Y-115168226D01*
X200007256Y-115090205D01*
X200176774Y-114976937D01*
X200320937Y-114832774D01*
X200434205Y-114663256D01*
X200512226Y-114474898D01*
X200552000Y-114274939D01*
X200552000Y-114071061D01*
X200512226Y-113871102D01*
X200434205Y-113682744D01*
X200370156Y-113586888D01*
X200375358Y-113579103D01*
X200453379Y-113390745D01*
X200493153Y-113190786D01*
X200493153Y-112986908D01*
X200453379Y-112786949D01*
X200375358Y-112598591D01*
X200262090Y-112429073D01*
X200117927Y-112284910D01*
X199948409Y-112171642D01*
X199760051Y-112093621D01*
X199560092Y-112053847D01*
X199356214Y-112053847D01*
X199156255Y-112093621D01*
X198967897Y-112171642D01*
X198798379Y-112284910D01*
X198654216Y-112429073D01*
X198540948Y-112598591D01*
X198462927Y-112786949D01*
X198423153Y-112986908D01*
X198423153Y-113189510D01*
X198396185Y-113189510D01*
X198196226Y-113229284D01*
X198007868Y-113307305D01*
X197838350Y-113420573D01*
X197694187Y-113564736D01*
X197580919Y-113734254D01*
X197502898Y-113922612D01*
X197463124Y-114122571D01*
X197463124Y-114272336D01*
X197378090Y-114145073D01*
X197233927Y-114000910D01*
X197064409Y-113887642D01*
X196876051Y-113809621D01*
X196676092Y-113769847D01*
X196472214Y-113769847D01*
X196272255Y-113809621D01*
X196083897Y-113887642D01*
X195914379Y-114000910D01*
X195770216Y-114145073D01*
X195656948Y-114314591D01*
X195578927Y-114502949D01*
X195539153Y-114702908D01*
X195408500Y-114702908D01*
X195408500Y-114579061D01*
X195368726Y-114379102D01*
X195290705Y-114190744D01*
X195177437Y-114021226D01*
X195033274Y-113877063D01*
X194863756Y-113763795D01*
X194675398Y-113685774D01*
X194475439Y-113646000D01*
X194271561Y-113646000D01*
X194071602Y-113685774D01*
X193883244Y-113763795D01*
X193713726Y-113877063D01*
X193569563Y-114021226D01*
X193456295Y-114190744D01*
X193378274Y-114379102D01*
X193338500Y-114579061D01*
X190076708Y-114579061D01*
X190037990Y-114485589D01*
X189875475Y-114242368D01*
X189668632Y-114035525D01*
X189494240Y-113919000D01*
X189668632Y-113802475D01*
X189875475Y-113595632D01*
X190037990Y-113352411D01*
X190149932Y-113082158D01*
X190207000Y-112795260D01*
X190207000Y-112502740D01*
X190149932Y-112215842D01*
X190037990Y-111945589D01*
X189875475Y-111702368D01*
X189668632Y-111495525D01*
X189494240Y-111379000D01*
X189668632Y-111262475D01*
X189875475Y-111055632D01*
X190037990Y-110812411D01*
X190149932Y-110542158D01*
X190207000Y-110255260D01*
X190207000Y-109962740D01*
X190149932Y-109675842D01*
X190037990Y-109405589D01*
X189875475Y-109162368D01*
X189668632Y-108955525D01*
X189494240Y-108839000D01*
X189668632Y-108722475D01*
X189875475Y-108515632D01*
X190037990Y-108272411D01*
X190149932Y-108002158D01*
X190207000Y-107715260D01*
X190207000Y-107422740D01*
X190149932Y-107135842D01*
X190037990Y-106865589D01*
X189875475Y-106622368D01*
X189668632Y-106415525D01*
X189538952Y-106328875D01*
X199375814Y-106328875D01*
X199375814Y-106532753D01*
X199415588Y-106732712D01*
X199493609Y-106921070D01*
X199606877Y-107090588D01*
X199751040Y-107234751D01*
X199920558Y-107348019D01*
X200108916Y-107426040D01*
X200308875Y-107465814D01*
X200512753Y-107465814D01*
X200712712Y-107426040D01*
X200901070Y-107348019D01*
X201070588Y-107234751D01*
X201214751Y-107090588D01*
X201328019Y-106921070D01*
X201406040Y-106732712D01*
X201445814Y-106532753D01*
X201445814Y-106328875D01*
X201406040Y-106128916D01*
X201328019Y-105940558D01*
X201214751Y-105771040D01*
X201070588Y-105626877D01*
X200901070Y-105513609D01*
X200712712Y-105435588D01*
X200512753Y-105395814D01*
X200308875Y-105395814D01*
X200108916Y-105435588D01*
X199920558Y-105513609D01*
X199751040Y-105626877D01*
X199606877Y-105771040D01*
X199493609Y-105940558D01*
X199415588Y-106128916D01*
X199375814Y-106328875D01*
X189538952Y-106328875D01*
X189494240Y-106299000D01*
X189668632Y-106182475D01*
X189875475Y-105975632D01*
X190037990Y-105732411D01*
X190149932Y-105462158D01*
X190205846Y-105181061D01*
X190862000Y-105181061D01*
X190862000Y-105384939D01*
X190901774Y-105584898D01*
X190979795Y-105773256D01*
X191093063Y-105942774D01*
X191237226Y-106086937D01*
X191406744Y-106200205D01*
X191595102Y-106278226D01*
X191795061Y-106318000D01*
X191998939Y-106318000D01*
X192198898Y-106278226D01*
X192387256Y-106200205D01*
X192556774Y-106086937D01*
X192700937Y-105942774D01*
X192814205Y-105773256D01*
X192892226Y-105584898D01*
X192932000Y-105384939D01*
X192932000Y-105181061D01*
X192892226Y-104981102D01*
X192814205Y-104792744D01*
X192700937Y-104623226D01*
X192556774Y-104479063D01*
X192387256Y-104365795D01*
X192198898Y-104287774D01*
X191998939Y-104248000D01*
X191795061Y-104248000D01*
X191595102Y-104287774D01*
X191406744Y-104365795D01*
X191237226Y-104479063D01*
X191093063Y-104623226D01*
X190979795Y-104792744D01*
X190901774Y-104981102D01*
X190862000Y-105181061D01*
X190205846Y-105181061D01*
X190207000Y-105175260D01*
X190207000Y-104882740D01*
X190149932Y-104595842D01*
X190037990Y-104325589D01*
X189875475Y-104082368D01*
X189668632Y-103875525D01*
X189494240Y-103759000D01*
X189668632Y-103642475D01*
X189875475Y-103435632D01*
X190037990Y-103192411D01*
X190149932Y-102922158D01*
X190160003Y-102871525D01*
X191616768Y-102871525D01*
X191616768Y-103075403D01*
X191656542Y-103275362D01*
X191734563Y-103463720D01*
X191847831Y-103633238D01*
X191991994Y-103777401D01*
X192161512Y-103890669D01*
X192349870Y-103968690D01*
X192549829Y-104008464D01*
X192753707Y-104008464D01*
X192953666Y-103968690D01*
X193142024Y-103890669D01*
X193311542Y-103777401D01*
X193455705Y-103633238D01*
X193568973Y-103463720D01*
X193646994Y-103275362D01*
X193686768Y-103075403D01*
X193686768Y-102871525D01*
X193646994Y-102671566D01*
X193568973Y-102483208D01*
X193455705Y-102313690D01*
X193311542Y-102169527D01*
X193142024Y-102056259D01*
X192953666Y-101978238D01*
X192753707Y-101938464D01*
X192549829Y-101938464D01*
X192349870Y-101978238D01*
X192161512Y-102056259D01*
X191991994Y-102169527D01*
X191847831Y-102313690D01*
X191734563Y-102483208D01*
X191656542Y-102671566D01*
X191616768Y-102871525D01*
X190160003Y-102871525D01*
X190207000Y-102635260D01*
X190207000Y-102342740D01*
X190149932Y-102055842D01*
X190037990Y-101785589D01*
X189875475Y-101542368D01*
X189668632Y-101335525D01*
X189531747Y-101244061D01*
X195370500Y-101244061D01*
X195370500Y-101447939D01*
X195410274Y-101647898D01*
X195488295Y-101836256D01*
X195601563Y-102005774D01*
X195745726Y-102149937D01*
X195915244Y-102263205D01*
X196103602Y-102341226D01*
X196303561Y-102381000D01*
X196408287Y-102381000D01*
X196300063Y-102489224D01*
X196186795Y-102658742D01*
X196108774Y-102847100D01*
X196069000Y-103047059D01*
X196069000Y-103250937D01*
X196108774Y-103450896D01*
X196186795Y-103639254D01*
X196300063Y-103808772D01*
X196444226Y-103952935D01*
X196613744Y-104066203D01*
X196802102Y-104144224D01*
X197002061Y-104183998D01*
X197205939Y-104183998D01*
X197405898Y-104144224D01*
X197594256Y-104066203D01*
X197763774Y-103952935D01*
X197891345Y-103825364D01*
X199192303Y-103825364D01*
X199192303Y-104029242D01*
X199232077Y-104229201D01*
X199310098Y-104417559D01*
X199423366Y-104587077D01*
X199567529Y-104731240D01*
X199737047Y-104844508D01*
X199925405Y-104922529D01*
X200125364Y-104962303D01*
X200329242Y-104962303D01*
X200529201Y-104922529D01*
X200717559Y-104844508D01*
X200887077Y-104731240D01*
X201031240Y-104587077D01*
X201144508Y-104417559D01*
X201222529Y-104229201D01*
X201262303Y-104029242D01*
X201262303Y-103825364D01*
X201222529Y-103625405D01*
X201144508Y-103437047D01*
X201031240Y-103267529D01*
X200887077Y-103123366D01*
X200717559Y-103010098D01*
X200529201Y-102932077D01*
X200329242Y-102892303D01*
X200125364Y-102892303D01*
X199925405Y-102932077D01*
X199737047Y-103010098D01*
X199567529Y-103123366D01*
X199423366Y-103267529D01*
X199310098Y-103437047D01*
X199232077Y-103625405D01*
X199192303Y-103825364D01*
X197891345Y-103825364D01*
X197907937Y-103808772D01*
X198021205Y-103639254D01*
X198099226Y-103450896D01*
X198139000Y-103250937D01*
X198139000Y-103047059D01*
X198099226Y-102847100D01*
X198021205Y-102658742D01*
X197907937Y-102489224D01*
X197763774Y-102345061D01*
X197594256Y-102231793D01*
X197405898Y-102153772D01*
X197205939Y-102113998D01*
X197101213Y-102113998D01*
X197209437Y-102005774D01*
X197322705Y-101836256D01*
X197400726Y-101647898D01*
X197440500Y-101447939D01*
X197440500Y-101244061D01*
X197400726Y-101044102D01*
X197322705Y-100855744D01*
X197209437Y-100686226D01*
X197065274Y-100542063D01*
X196895756Y-100428795D01*
X196707398Y-100350774D01*
X196507439Y-100311000D01*
X196303561Y-100311000D01*
X196103602Y-100350774D01*
X195915244Y-100428795D01*
X195745726Y-100542063D01*
X195601563Y-100686226D01*
X195488295Y-100855744D01*
X195410274Y-101044102D01*
X195370500Y-101244061D01*
X189531747Y-101244061D01*
X189494240Y-101219000D01*
X189668632Y-101102475D01*
X189875475Y-100895632D01*
X190037990Y-100652411D01*
X190149932Y-100382158D01*
X190207000Y-100095260D01*
X190207000Y-99802740D01*
X190149932Y-99515842D01*
X190037990Y-99245589D01*
X189875475Y-99002368D01*
X189668632Y-98795525D01*
X189494240Y-98679000D01*
X189668632Y-98562475D01*
X189875475Y-98355632D01*
X190037990Y-98112411D01*
X190149932Y-97842158D01*
X190207000Y-97555260D01*
X190207000Y-97262740D01*
X190165292Y-97053061D01*
X191878000Y-97053061D01*
X191878000Y-97256939D01*
X191917774Y-97456898D01*
X191995795Y-97645256D01*
X192109063Y-97814774D01*
X192253226Y-97958937D01*
X192422744Y-98072205D01*
X192611102Y-98150226D01*
X192811061Y-98190000D01*
X193014939Y-98190000D01*
X193214898Y-98150226D01*
X193403256Y-98072205D01*
X193572774Y-97958937D01*
X193701635Y-97830076D01*
X193832799Y-97917716D01*
X194080303Y-98020236D01*
X194343052Y-98072500D01*
X194610948Y-98072500D01*
X194873697Y-98020236D01*
X195121201Y-97917716D01*
X195343949Y-97768881D01*
X195533381Y-97579449D01*
X195682216Y-97356701D01*
X195784736Y-97109197D01*
X195837000Y-96846448D01*
X195837000Y-96578552D01*
X195784736Y-96315803D01*
X195682216Y-96068299D01*
X195533381Y-95845551D01*
X195343949Y-95656119D01*
X195121201Y-95507284D01*
X194873697Y-95404764D01*
X194610948Y-95352500D01*
X194343052Y-95352500D01*
X194177231Y-95385484D01*
X194354502Y-95240002D01*
X194429955Y-95148061D01*
X195942000Y-95148061D01*
X195942000Y-95351939D01*
X195981774Y-95551898D01*
X196059795Y-95740256D01*
X196173063Y-95909774D01*
X196317226Y-96053937D01*
X196486744Y-96167205D01*
X196675102Y-96245226D01*
X196875061Y-96285000D01*
X197078939Y-96285000D01*
X197278898Y-96245226D01*
X197467256Y-96167205D01*
X197636774Y-96053937D01*
X197780937Y-95909774D01*
X197894205Y-95740256D01*
X197972226Y-95551898D01*
X198012000Y-95351939D01*
X198012000Y-95148061D01*
X197972226Y-94948102D01*
X197894205Y-94759744D01*
X197780937Y-94590226D01*
X197636774Y-94446063D01*
X197467256Y-94332795D01*
X197278898Y-94254774D01*
X197078939Y-94215000D01*
X196875061Y-94215000D01*
X196675102Y-94254774D01*
X196486744Y-94332795D01*
X196317226Y-94446063D01*
X196173063Y-94590226D01*
X196059795Y-94759744D01*
X195981774Y-94948102D01*
X195942000Y-95148061D01*
X194429955Y-95148061D01*
X194508833Y-95051949D01*
X194623511Y-94837401D01*
X194694130Y-94604602D01*
X194712000Y-94423165D01*
X194712000Y-93601836D01*
X194694130Y-93420399D01*
X194623511Y-93187599D01*
X194508833Y-92973051D01*
X194354502Y-92784998D01*
X194166449Y-92630667D01*
X193951901Y-92515989D01*
X193719102Y-92445370D01*
X193477000Y-92421525D01*
X193234899Y-92445370D01*
X193002100Y-92515989D01*
X192787552Y-92630667D01*
X192599499Y-92784998D01*
X192445168Y-92973051D01*
X192330489Y-93187599D01*
X192259870Y-93420398D01*
X192242000Y-93601835D01*
X192242000Y-94423164D01*
X192259870Y-94604601D01*
X192330489Y-94837400D01*
X192445167Y-95051948D01*
X192599498Y-95240002D01*
X192787551Y-95394333D01*
X193002099Y-95509011D01*
X193234898Y-95579630D01*
X193477000Y-95603475D01*
X193719101Y-95579630D01*
X193729035Y-95576616D01*
X193610051Y-95656119D01*
X193420619Y-95845551D01*
X193271784Y-96068299D01*
X193231112Y-96166490D01*
X193214898Y-96159774D01*
X193014939Y-96120000D01*
X192811061Y-96120000D01*
X192611102Y-96159774D01*
X192422744Y-96237795D01*
X192253226Y-96351063D01*
X192109063Y-96495226D01*
X191995795Y-96664744D01*
X191917774Y-96853102D01*
X191878000Y-97053061D01*
X190165292Y-97053061D01*
X190149932Y-96975842D01*
X190037990Y-96705589D01*
X189875475Y-96462368D01*
X189668632Y-96255525D01*
X189494240Y-96139000D01*
X189668632Y-96022475D01*
X189875475Y-95815632D01*
X190037990Y-95572411D01*
X190149932Y-95302158D01*
X190207000Y-95015260D01*
X190207000Y-94722740D01*
X190149932Y-94435842D01*
X190037990Y-94165589D01*
X189875475Y-93922368D01*
X189743620Y-93790513D01*
X189816180Y-93768502D01*
X189926494Y-93709537D01*
X190023185Y-93630185D01*
X190102537Y-93533494D01*
X190161502Y-93423180D01*
X190197812Y-93303482D01*
X190210072Y-93179000D01*
X190207000Y-92614750D01*
X190048250Y-92456000D01*
X188849000Y-92456000D01*
X188849000Y-92476000D01*
X188595000Y-92476000D01*
X188595000Y-92456000D01*
X188575000Y-92456000D01*
X188575000Y-92202000D01*
X188595000Y-92202000D01*
X188595000Y-92182000D01*
X188849000Y-92182000D01*
X188849000Y-92202000D01*
X190048250Y-92202000D01*
X190207000Y-92043250D01*
X190208765Y-91719000D01*
X200387012Y-91719000D01*
X200387000Y-91719061D01*
%TA.AperFunction,Conductor*%
D16*
G36*
X200387000Y-91719061D02*
G01*
X200387000Y-91922939D01*
X200426774Y-92122898D01*
X200504795Y-92311256D01*
X200585623Y-92432223D01*
X200477000Y-92421525D01*
X200234898Y-92445370D01*
X200002099Y-92515989D01*
X199787551Y-92630667D01*
X199599498Y-92784998D01*
X199445167Y-92973052D01*
X199330489Y-93187600D01*
X199259870Y-93420399D01*
X199242000Y-93601836D01*
X199242000Y-94423165D01*
X199259870Y-94604602D01*
X199330489Y-94837401D01*
X199445168Y-95051949D01*
X199599499Y-95240002D01*
X199776769Y-95385484D01*
X199610948Y-95352500D01*
X199343052Y-95352500D01*
X199080303Y-95404764D01*
X198832799Y-95507284D01*
X198610051Y-95656119D01*
X198420619Y-95845551D01*
X198271784Y-96068299D01*
X198169264Y-96315803D01*
X198117000Y-96578552D01*
X198117000Y-96846448D01*
X198169264Y-97109197D01*
X198271784Y-97356701D01*
X198420619Y-97579449D01*
X198610051Y-97768881D01*
X198832799Y-97917716D01*
X199080303Y-98020236D01*
X199343052Y-98072500D01*
X199610948Y-98072500D01*
X199873697Y-98020236D01*
X200121201Y-97917716D01*
X200343949Y-97768881D01*
X200533381Y-97579449D01*
X200640498Y-97419136D01*
X200685061Y-97428000D01*
X200888939Y-97428000D01*
X201088898Y-97388226D01*
X201277256Y-97310205D01*
X201446774Y-97196937D01*
X201590937Y-97052774D01*
X201704205Y-96883256D01*
X201782226Y-96694898D01*
X201822000Y-96494939D01*
X201822000Y-96291061D01*
X201782226Y-96091102D01*
X201704205Y-95902744D01*
X201590937Y-95733226D01*
X201446774Y-95589063D01*
X201277256Y-95475795D01*
X201128963Y-95414370D01*
X201166449Y-95394333D01*
X201354502Y-95240002D01*
X201508833Y-95051949D01*
X201623511Y-94837401D01*
X201694130Y-94604601D01*
X201712000Y-94423164D01*
X201712000Y-93601835D01*
X201694130Y-93420398D01*
X201623511Y-93187599D01*
X201508833Y-92973051D01*
X201412772Y-92856000D01*
X201523939Y-92856000D01*
X201723898Y-92816226D01*
X201912256Y-92738205D01*
X202081774Y-92624937D01*
X202225937Y-92480774D01*
X202339205Y-92311256D01*
X202417226Y-92122898D01*
X202457000Y-91922939D01*
X202457000Y-91719061D01*
X202456988Y-91719000D01*
X202473928Y-91719000D01*
X202473928Y-93179000D01*
X202486188Y-93303482D01*
X202522498Y-93423180D01*
X202581463Y-93533494D01*
X202660815Y-93630185D01*
X202757506Y-93709537D01*
X202867820Y-93768502D01*
X202940380Y-93790513D01*
X202808525Y-93922368D01*
X202646010Y-94165589D01*
X202534068Y-94435842D01*
X202477000Y-94722740D01*
X202477000Y-95015260D01*
X202534068Y-95302158D01*
X202646010Y-95572411D01*
X202808525Y-95815632D01*
X203015368Y-96022475D01*
X203189760Y-96139000D01*
X203015368Y-96255525D01*
X202808525Y-96462368D01*
X202646010Y-96705589D01*
X202534068Y-96975842D01*
X202477000Y-97262740D01*
X202477000Y-97555260D01*
X202534068Y-97842158D01*
X202646010Y-98112411D01*
X202808525Y-98355632D01*
X203015368Y-98562475D01*
X203189760Y-98679000D01*
X203015368Y-98795525D01*
X202808525Y-99002368D01*
X202646010Y-99245589D01*
X202534068Y-99515842D01*
X202477000Y-99802740D01*
X202477000Y-100095260D01*
X202534068Y-100382158D01*
X202646010Y-100652411D01*
X202808525Y-100895632D01*
X203015368Y-101102475D01*
X203189760Y-101219000D01*
X203015368Y-101335525D01*
X202808525Y-101542368D01*
X202646010Y-101785589D01*
X202534068Y-102055842D01*
X202477000Y-102342740D01*
X202477000Y-102635260D01*
X202534068Y-102922158D01*
X202646010Y-103192411D01*
X202808525Y-103435632D01*
X203015368Y-103642475D01*
X203189760Y-103759000D01*
X203015368Y-103875525D01*
X202808525Y-104082368D01*
X202646010Y-104325589D01*
X202534068Y-104595842D01*
X202477000Y-104882740D01*
X202477000Y-105175260D01*
X202534068Y-105462158D01*
X202646010Y-105732411D01*
X202808525Y-105975632D01*
X203015368Y-106182475D01*
X203189760Y-106299000D01*
X203015368Y-106415525D01*
X202808525Y-106622368D01*
X202646010Y-106865589D01*
X202534068Y-107135842D01*
X202477000Y-107422740D01*
X202477000Y-107715260D01*
X202534068Y-108002158D01*
X202562846Y-108071635D01*
X202462774Y-107971563D01*
X202293256Y-107858295D01*
X202104898Y-107780274D01*
X201904939Y-107740500D01*
X201701061Y-107740500D01*
X201501102Y-107780274D01*
X201312744Y-107858295D01*
X201143226Y-107971563D01*
X200999063Y-108115726D01*
X200885795Y-108285244D01*
X200807774Y-108473602D01*
X200768000Y-108673561D01*
X200768000Y-108877439D01*
X200807774Y-109077398D01*
X200885795Y-109265756D01*
X200999063Y-109435274D01*
X201143226Y-109579437D01*
X201312744Y-109692705D01*
X201501102Y-109770726D01*
X201701061Y-109810500D01*
X201904939Y-109810500D01*
X202104898Y-109770726D01*
X202293256Y-109692705D01*
X202462774Y-109579437D01*
X202606937Y-109435274D01*
X202720205Y-109265756D01*
X202798226Y-109077398D01*
X202838000Y-108877439D01*
X202838000Y-108673561D01*
X202805764Y-108511500D01*
X202808525Y-108515632D01*
X203015368Y-108722475D01*
X203189760Y-108839000D01*
X203015368Y-108955525D01*
X202808525Y-109162368D01*
X202646010Y-109405589D01*
X202534068Y-109675842D01*
X202477000Y-109962740D01*
X202477000Y-110255260D01*
X202534068Y-110542158D01*
X202646010Y-110812411D01*
X202808525Y-111055632D01*
X203015368Y-111262475D01*
X203189760Y-111379000D01*
X203015368Y-111495525D01*
X202808525Y-111702368D01*
X202646010Y-111945589D01*
X202534068Y-112215842D01*
X202477000Y-112502740D01*
X202477000Y-112795260D01*
X202534068Y-113082158D01*
X202646010Y-113352411D01*
X202808525Y-113595632D01*
X203015368Y-113802475D01*
X203189760Y-113919000D01*
X203015368Y-114035525D01*
X202808525Y-114242368D01*
X202646010Y-114485589D01*
X202534068Y-114755842D01*
X202477000Y-115042740D01*
X202477000Y-115335260D01*
X202487933Y-115390222D01*
X202358898Y-115336774D01*
X202158939Y-115297000D01*
X201955061Y-115297000D01*
X201755102Y-115336774D01*
X201566744Y-115414795D01*
X201397226Y-115528063D01*
X201253063Y-115672226D01*
X201139795Y-115841744D01*
X201061774Y-116030102D01*
X201022000Y-116230061D01*
X201022000Y-116433939D01*
X201061774Y-116633898D01*
X201139795Y-116822256D01*
X201253063Y-116991774D01*
X201397226Y-117135937D01*
X201566744Y-117249205D01*
X201755102Y-117327226D01*
X201955061Y-117367000D01*
X202158939Y-117367000D01*
X202358898Y-117327226D01*
X202547256Y-117249205D01*
X202555731Y-117243542D01*
X202534068Y-117295842D01*
X202477000Y-117582740D01*
X202477000Y-117875260D01*
X202534068Y-118162158D01*
X202646010Y-118432411D01*
X202808525Y-118675632D01*
X203015368Y-118882475D01*
X203189760Y-118999000D01*
X203015368Y-119115525D01*
X202808525Y-119322368D01*
X202646010Y-119565589D01*
X202534068Y-119835842D01*
X202477000Y-120122740D01*
X202477000Y-120415260D01*
X202534068Y-120702158D01*
X202646010Y-120972411D01*
X202808525Y-121215632D01*
X203015368Y-121422475D01*
X203189760Y-121539000D01*
X203015368Y-121655525D01*
X202808525Y-121862368D01*
X202646010Y-122105589D01*
X202534068Y-122375842D01*
X202477000Y-122662740D01*
X202477000Y-122955260D01*
X202534068Y-123242158D01*
X202646010Y-123512411D01*
X202808525Y-123755632D01*
X203015368Y-123962475D01*
X203189760Y-124079000D01*
X203015368Y-124195525D01*
X202808525Y-124402368D01*
X202646010Y-124645589D01*
X202534068Y-124915842D01*
X202477000Y-125202740D01*
X202477000Y-125495260D01*
X202534068Y-125782158D01*
X202607318Y-125959000D01*
X190076682Y-125959000D01*
X190149932Y-125782158D01*
X190207000Y-125495260D01*
X190207000Y-125202740D01*
X190149932Y-124915842D01*
X190037990Y-124645589D01*
X190015588Y-124612061D01*
X194164000Y-124612061D01*
X194164000Y-124815939D01*
X194203774Y-125015898D01*
X194281795Y-125204256D01*
X194395063Y-125373774D01*
X194539226Y-125517937D01*
X194708744Y-125631205D01*
X194897102Y-125709226D01*
X195097061Y-125749000D01*
X195300939Y-125749000D01*
X195500898Y-125709226D01*
X195689256Y-125631205D01*
X195858774Y-125517937D01*
X196002937Y-125373774D01*
X196116205Y-125204256D01*
X196194226Y-125015898D01*
X196234000Y-124815939D01*
X196234000Y-124612061D01*
X196194226Y-124412102D01*
X196116205Y-124223744D01*
X196002937Y-124054226D01*
X195858774Y-123910063D01*
X195689256Y-123796795D01*
X195500898Y-123718774D01*
X195300939Y-123679000D01*
X195097061Y-123679000D01*
X194897102Y-123718774D01*
X194708744Y-123796795D01*
X194539226Y-123910063D01*
X194395063Y-124054226D01*
X194281795Y-124223744D01*
X194203774Y-124412102D01*
X194164000Y-124612061D01*
X190015588Y-124612061D01*
X189875475Y-124402368D01*
X189668632Y-124195525D01*
X189494240Y-124079000D01*
X189668632Y-123962475D01*
X189875475Y-123755632D01*
X190037990Y-123512411D01*
X190149932Y-123242158D01*
X190207000Y-122955260D01*
X190207000Y-122662740D01*
X190149932Y-122375842D01*
X190037990Y-122105589D01*
X189875475Y-121862368D01*
X189668632Y-121655525D01*
X189494240Y-121539000D01*
X189668632Y-121422475D01*
X189875475Y-121215632D01*
X190037990Y-120972411D01*
X190108550Y-120802061D01*
X194290999Y-120802061D01*
X194290999Y-121005939D01*
X194330773Y-121205898D01*
X194408794Y-121394256D01*
X194522062Y-121563774D01*
X194666225Y-121707937D01*
X194835743Y-121821205D01*
X195024101Y-121899226D01*
X195224060Y-121939000D01*
X195427938Y-121939000D01*
X195627897Y-121899226D01*
X195816255Y-121821205D01*
X195985773Y-121707937D01*
X196129936Y-121563774D01*
X196243204Y-121394256D01*
X196321225Y-121205898D01*
X196360999Y-121005939D01*
X196360999Y-120802061D01*
X196321225Y-120602102D01*
X196243204Y-120413744D01*
X196129936Y-120244226D01*
X195985773Y-120100063D01*
X195816255Y-119986795D01*
X195627897Y-119908774D01*
X195427938Y-119869000D01*
X195224060Y-119869000D01*
X195024101Y-119908774D01*
X194835743Y-119986795D01*
X194666225Y-120100063D01*
X194522062Y-120244226D01*
X194408794Y-120413744D01*
X194330773Y-120602102D01*
X194290999Y-120802061D01*
X190108550Y-120802061D01*
X190149932Y-120702158D01*
X190207000Y-120415260D01*
X190207000Y-120122740D01*
X190149932Y-119835842D01*
X190037990Y-119565589D01*
X189875475Y-119322368D01*
X189668632Y-119115525D01*
X189494240Y-118999000D01*
X189668632Y-118882475D01*
X189875475Y-118675632D01*
X190037990Y-118432411D01*
X190149932Y-118162158D01*
X190207000Y-117875260D01*
X190207000Y-117582740D01*
X190149932Y-117295842D01*
X190037990Y-117025589D01*
X189875475Y-116782368D01*
X189668632Y-116575525D01*
X189494240Y-116459000D01*
X189668632Y-116342475D01*
X189875475Y-116135632D01*
X190037990Y-115892411D01*
X190149932Y-115622158D01*
X190207000Y-115335260D01*
X190207000Y-115042740D01*
X190149932Y-114755842D01*
X190076708Y-114579061D01*
X193338500Y-114579061D01*
X193338500Y-114782939D01*
X193378274Y-114982898D01*
X193456295Y-115171256D01*
X193569563Y-115340774D01*
X193713726Y-115484937D01*
X193883244Y-115598205D01*
X194071602Y-115676226D01*
X194271561Y-115716000D01*
X194475439Y-115716000D01*
X194675398Y-115676226D01*
X194863756Y-115598205D01*
X195033274Y-115484937D01*
X195177437Y-115340774D01*
X195290705Y-115171256D01*
X195368726Y-114982898D01*
X195408500Y-114782939D01*
X195408500Y-114702908D01*
X195539153Y-114702908D01*
X195539153Y-114906786D01*
X195578927Y-115106745D01*
X195656948Y-115295103D01*
X195770216Y-115464621D01*
X195914379Y-115608784D01*
X196083897Y-115722052D01*
X196272255Y-115800073D01*
X196472214Y-115839847D01*
X196676092Y-115839847D01*
X196876051Y-115800073D01*
X197064409Y-115722052D01*
X197233927Y-115608784D01*
X197378090Y-115464621D01*
X197491358Y-115295103D01*
X197569379Y-115106745D01*
X197609153Y-114906786D01*
X197609153Y-114757021D01*
X197694187Y-114884284D01*
X197838350Y-115028447D01*
X198007868Y-115141715D01*
X198196226Y-115219736D01*
X198396185Y-115259510D01*
X198600063Y-115259510D01*
X198800022Y-115219736D01*
X198988380Y-115141715D01*
X199050650Y-115100107D01*
X199215102Y-115168226D01*
X199415061Y-115208000D01*
X199618939Y-115208000D01*
X199818898Y-115168226D01*
X200007256Y-115090205D01*
X200176774Y-114976937D01*
X200320937Y-114832774D01*
X200434205Y-114663256D01*
X200512226Y-114474898D01*
X200552000Y-114274939D01*
X200552000Y-114071061D01*
X200512226Y-113871102D01*
X200434205Y-113682744D01*
X200370156Y-113586888D01*
X200375358Y-113579103D01*
X200453379Y-113390745D01*
X200493153Y-113190786D01*
X200493153Y-112986908D01*
X200453379Y-112786949D01*
X200375358Y-112598591D01*
X200262090Y-112429073D01*
X200117927Y-112284910D01*
X199948409Y-112171642D01*
X199760051Y-112093621D01*
X199560092Y-112053847D01*
X199356214Y-112053847D01*
X199156255Y-112093621D01*
X198967897Y-112171642D01*
X198798379Y-112284910D01*
X198654216Y-112429073D01*
X198540948Y-112598591D01*
X198462927Y-112786949D01*
X198423153Y-112986908D01*
X198423153Y-113189510D01*
X198396185Y-113189510D01*
X198196226Y-113229284D01*
X198007868Y-113307305D01*
X197838350Y-113420573D01*
X197694187Y-113564736D01*
X197580919Y-113734254D01*
X197502898Y-113922612D01*
X197463124Y-114122571D01*
X197463124Y-114272336D01*
X197378090Y-114145073D01*
X197233927Y-114000910D01*
X197064409Y-113887642D01*
X196876051Y-113809621D01*
X196676092Y-113769847D01*
X196472214Y-113769847D01*
X196272255Y-113809621D01*
X196083897Y-113887642D01*
X195914379Y-114000910D01*
X195770216Y-114145073D01*
X195656948Y-114314591D01*
X195578927Y-114502949D01*
X195539153Y-114702908D01*
X195408500Y-114702908D01*
X195408500Y-114579061D01*
X195368726Y-114379102D01*
X195290705Y-114190744D01*
X195177437Y-114021226D01*
X195033274Y-113877063D01*
X194863756Y-113763795D01*
X194675398Y-113685774D01*
X194475439Y-113646000D01*
X194271561Y-113646000D01*
X194071602Y-113685774D01*
X193883244Y-113763795D01*
X193713726Y-113877063D01*
X193569563Y-114021226D01*
X193456295Y-114190744D01*
X193378274Y-114379102D01*
X193338500Y-114579061D01*
X190076708Y-114579061D01*
X190037990Y-114485589D01*
X189875475Y-114242368D01*
X189668632Y-114035525D01*
X189494240Y-113919000D01*
X189668632Y-113802475D01*
X189875475Y-113595632D01*
X190037990Y-113352411D01*
X190149932Y-113082158D01*
X190207000Y-112795260D01*
X190207000Y-112502740D01*
X190149932Y-112215842D01*
X190037990Y-111945589D01*
X189875475Y-111702368D01*
X189668632Y-111495525D01*
X189494240Y-111379000D01*
X189668632Y-111262475D01*
X189875475Y-111055632D01*
X190037990Y-110812411D01*
X190149932Y-110542158D01*
X190207000Y-110255260D01*
X190207000Y-109962740D01*
X190149932Y-109675842D01*
X190037990Y-109405589D01*
X189875475Y-109162368D01*
X189668632Y-108955525D01*
X189494240Y-108839000D01*
X189668632Y-108722475D01*
X189875475Y-108515632D01*
X190037990Y-108272411D01*
X190149932Y-108002158D01*
X190207000Y-107715260D01*
X190207000Y-107422740D01*
X190149932Y-107135842D01*
X190037990Y-106865589D01*
X189875475Y-106622368D01*
X189668632Y-106415525D01*
X189538952Y-106328875D01*
X199375814Y-106328875D01*
X199375814Y-106532753D01*
X199415588Y-106732712D01*
X199493609Y-106921070D01*
X199606877Y-107090588D01*
X199751040Y-107234751D01*
X199920558Y-107348019D01*
X200108916Y-107426040D01*
X200308875Y-107465814D01*
X200512753Y-107465814D01*
X200712712Y-107426040D01*
X200901070Y-107348019D01*
X201070588Y-107234751D01*
X201214751Y-107090588D01*
X201328019Y-106921070D01*
X201406040Y-106732712D01*
X201445814Y-106532753D01*
X201445814Y-106328875D01*
X201406040Y-106128916D01*
X201328019Y-105940558D01*
X201214751Y-105771040D01*
X201070588Y-105626877D01*
X200901070Y-105513609D01*
X200712712Y-105435588D01*
X200512753Y-105395814D01*
X200308875Y-105395814D01*
X200108916Y-105435588D01*
X199920558Y-105513609D01*
X199751040Y-105626877D01*
X199606877Y-105771040D01*
X199493609Y-105940558D01*
X199415588Y-106128916D01*
X199375814Y-106328875D01*
X189538952Y-106328875D01*
X189494240Y-106299000D01*
X189668632Y-106182475D01*
X189875475Y-105975632D01*
X190037990Y-105732411D01*
X190149932Y-105462158D01*
X190205846Y-105181061D01*
X190862000Y-105181061D01*
X190862000Y-105384939D01*
X190901774Y-105584898D01*
X190979795Y-105773256D01*
X191093063Y-105942774D01*
X191237226Y-106086937D01*
X191406744Y-106200205D01*
X191595102Y-106278226D01*
X191795061Y-106318000D01*
X191998939Y-106318000D01*
X192198898Y-106278226D01*
X192387256Y-106200205D01*
X192556774Y-106086937D01*
X192700937Y-105942774D01*
X192814205Y-105773256D01*
X192892226Y-105584898D01*
X192932000Y-105384939D01*
X192932000Y-105181061D01*
X192892226Y-104981102D01*
X192814205Y-104792744D01*
X192700937Y-104623226D01*
X192556774Y-104479063D01*
X192387256Y-104365795D01*
X192198898Y-104287774D01*
X191998939Y-104248000D01*
X191795061Y-104248000D01*
X191595102Y-104287774D01*
X191406744Y-104365795D01*
X191237226Y-104479063D01*
X191093063Y-104623226D01*
X190979795Y-104792744D01*
X190901774Y-104981102D01*
X190862000Y-105181061D01*
X190205846Y-105181061D01*
X190207000Y-105175260D01*
X190207000Y-104882740D01*
X190149932Y-104595842D01*
X190037990Y-104325589D01*
X189875475Y-104082368D01*
X189668632Y-103875525D01*
X189494240Y-103759000D01*
X189668632Y-103642475D01*
X189875475Y-103435632D01*
X190037990Y-103192411D01*
X190149932Y-102922158D01*
X190160003Y-102871525D01*
X191616768Y-102871525D01*
X191616768Y-103075403D01*
X191656542Y-103275362D01*
X191734563Y-103463720D01*
X191847831Y-103633238D01*
X191991994Y-103777401D01*
X192161512Y-103890669D01*
X192349870Y-103968690D01*
X192549829Y-104008464D01*
X192753707Y-104008464D01*
X192953666Y-103968690D01*
X193142024Y-103890669D01*
X193311542Y-103777401D01*
X193455705Y-103633238D01*
X193568973Y-103463720D01*
X193646994Y-103275362D01*
X193686768Y-103075403D01*
X193686768Y-102871525D01*
X193646994Y-102671566D01*
X193568973Y-102483208D01*
X193455705Y-102313690D01*
X193311542Y-102169527D01*
X193142024Y-102056259D01*
X192953666Y-101978238D01*
X192753707Y-101938464D01*
X192549829Y-101938464D01*
X192349870Y-101978238D01*
X192161512Y-102056259D01*
X191991994Y-102169527D01*
X191847831Y-102313690D01*
X191734563Y-102483208D01*
X191656542Y-102671566D01*
X191616768Y-102871525D01*
X190160003Y-102871525D01*
X190207000Y-102635260D01*
X190207000Y-102342740D01*
X190149932Y-102055842D01*
X190037990Y-101785589D01*
X189875475Y-101542368D01*
X189668632Y-101335525D01*
X189531747Y-101244061D01*
X195370500Y-101244061D01*
X195370500Y-101447939D01*
X195410274Y-101647898D01*
X195488295Y-101836256D01*
X195601563Y-102005774D01*
X195745726Y-102149937D01*
X195915244Y-102263205D01*
X196103602Y-102341226D01*
X196303561Y-102381000D01*
X196408287Y-102381000D01*
X196300063Y-102489224D01*
X196186795Y-102658742D01*
X196108774Y-102847100D01*
X196069000Y-103047059D01*
X196069000Y-103250937D01*
X196108774Y-103450896D01*
X196186795Y-103639254D01*
X196300063Y-103808772D01*
X196444226Y-103952935D01*
X196613744Y-104066203D01*
X196802102Y-104144224D01*
X197002061Y-104183998D01*
X197205939Y-104183998D01*
X197405898Y-104144224D01*
X197594256Y-104066203D01*
X197763774Y-103952935D01*
X197891345Y-103825364D01*
X199192303Y-103825364D01*
X199192303Y-104029242D01*
X199232077Y-104229201D01*
X199310098Y-104417559D01*
X199423366Y-104587077D01*
X199567529Y-104731240D01*
X199737047Y-104844508D01*
X199925405Y-104922529D01*
X200125364Y-104962303D01*
X200329242Y-104962303D01*
X200529201Y-104922529D01*
X200717559Y-104844508D01*
X200887077Y-104731240D01*
X201031240Y-104587077D01*
X201144508Y-104417559D01*
X201222529Y-104229201D01*
X201262303Y-104029242D01*
X201262303Y-103825364D01*
X201222529Y-103625405D01*
X201144508Y-103437047D01*
X201031240Y-103267529D01*
X200887077Y-103123366D01*
X200717559Y-103010098D01*
X200529201Y-102932077D01*
X200329242Y-102892303D01*
X200125364Y-102892303D01*
X199925405Y-102932077D01*
X199737047Y-103010098D01*
X199567529Y-103123366D01*
X199423366Y-103267529D01*
X199310098Y-103437047D01*
X199232077Y-103625405D01*
X199192303Y-103825364D01*
X197891345Y-103825364D01*
X197907937Y-103808772D01*
X198021205Y-103639254D01*
X198099226Y-103450896D01*
X198139000Y-103250937D01*
X198139000Y-103047059D01*
X198099226Y-102847100D01*
X198021205Y-102658742D01*
X197907937Y-102489224D01*
X197763774Y-102345061D01*
X197594256Y-102231793D01*
X197405898Y-102153772D01*
X197205939Y-102113998D01*
X197101213Y-102113998D01*
X197209437Y-102005774D01*
X197322705Y-101836256D01*
X197400726Y-101647898D01*
X197440500Y-101447939D01*
X197440500Y-101244061D01*
X197400726Y-101044102D01*
X197322705Y-100855744D01*
X197209437Y-100686226D01*
X197065274Y-100542063D01*
X196895756Y-100428795D01*
X196707398Y-100350774D01*
X196507439Y-100311000D01*
X196303561Y-100311000D01*
X196103602Y-100350774D01*
X195915244Y-100428795D01*
X195745726Y-100542063D01*
X195601563Y-100686226D01*
X195488295Y-100855744D01*
X195410274Y-101044102D01*
X195370500Y-101244061D01*
X189531747Y-101244061D01*
X189494240Y-101219000D01*
X189668632Y-101102475D01*
X189875475Y-100895632D01*
X190037990Y-100652411D01*
X190149932Y-100382158D01*
X190207000Y-100095260D01*
X190207000Y-99802740D01*
X190149932Y-99515842D01*
X190037990Y-99245589D01*
X189875475Y-99002368D01*
X189668632Y-98795525D01*
X189494240Y-98679000D01*
X189668632Y-98562475D01*
X189875475Y-98355632D01*
X190037990Y-98112411D01*
X190149932Y-97842158D01*
X190207000Y-97555260D01*
X190207000Y-97262740D01*
X190165292Y-97053061D01*
X191878000Y-97053061D01*
X191878000Y-97256939D01*
X191917774Y-97456898D01*
X191995795Y-97645256D01*
X192109063Y-97814774D01*
X192253226Y-97958937D01*
X192422744Y-98072205D01*
X192611102Y-98150226D01*
X192811061Y-98190000D01*
X193014939Y-98190000D01*
X193214898Y-98150226D01*
X193403256Y-98072205D01*
X193572774Y-97958937D01*
X193701635Y-97830076D01*
X193832799Y-97917716D01*
X194080303Y-98020236D01*
X194343052Y-98072500D01*
X194610948Y-98072500D01*
X194873697Y-98020236D01*
X195121201Y-97917716D01*
X195343949Y-97768881D01*
X195533381Y-97579449D01*
X195682216Y-97356701D01*
X195784736Y-97109197D01*
X195837000Y-96846448D01*
X195837000Y-96578552D01*
X195784736Y-96315803D01*
X195682216Y-96068299D01*
X195533381Y-95845551D01*
X195343949Y-95656119D01*
X195121201Y-95507284D01*
X194873697Y-95404764D01*
X194610948Y-95352500D01*
X194343052Y-95352500D01*
X194177231Y-95385484D01*
X194354502Y-95240002D01*
X194429955Y-95148061D01*
X195942000Y-95148061D01*
X195942000Y-95351939D01*
X195981774Y-95551898D01*
X196059795Y-95740256D01*
X196173063Y-95909774D01*
X196317226Y-96053937D01*
X196486744Y-96167205D01*
X196675102Y-96245226D01*
X196875061Y-96285000D01*
X197078939Y-96285000D01*
X197278898Y-96245226D01*
X197467256Y-96167205D01*
X197636774Y-96053937D01*
X197780937Y-95909774D01*
X197894205Y-95740256D01*
X197972226Y-95551898D01*
X198012000Y-95351939D01*
X198012000Y-95148061D01*
X197972226Y-94948102D01*
X197894205Y-94759744D01*
X197780937Y-94590226D01*
X197636774Y-94446063D01*
X197467256Y-94332795D01*
X197278898Y-94254774D01*
X197078939Y-94215000D01*
X196875061Y-94215000D01*
X196675102Y-94254774D01*
X196486744Y-94332795D01*
X196317226Y-94446063D01*
X196173063Y-94590226D01*
X196059795Y-94759744D01*
X195981774Y-94948102D01*
X195942000Y-95148061D01*
X194429955Y-95148061D01*
X194508833Y-95051949D01*
X194623511Y-94837401D01*
X194694130Y-94604602D01*
X194712000Y-94423165D01*
X194712000Y-93601836D01*
X194694130Y-93420399D01*
X194623511Y-93187599D01*
X194508833Y-92973051D01*
X194354502Y-92784998D01*
X194166449Y-92630667D01*
X193951901Y-92515989D01*
X193719102Y-92445370D01*
X193477000Y-92421525D01*
X193234899Y-92445370D01*
X193002100Y-92515989D01*
X192787552Y-92630667D01*
X192599499Y-92784998D01*
X192445168Y-92973051D01*
X192330489Y-93187599D01*
X192259870Y-93420398D01*
X192242000Y-93601835D01*
X192242000Y-94423164D01*
X192259870Y-94604601D01*
X192330489Y-94837400D01*
X192445167Y-95051948D01*
X192599498Y-95240002D01*
X192787551Y-95394333D01*
X193002099Y-95509011D01*
X193234898Y-95579630D01*
X193477000Y-95603475D01*
X193719101Y-95579630D01*
X193729035Y-95576616D01*
X193610051Y-95656119D01*
X193420619Y-95845551D01*
X193271784Y-96068299D01*
X193231112Y-96166490D01*
X193214898Y-96159774D01*
X193014939Y-96120000D01*
X192811061Y-96120000D01*
X192611102Y-96159774D01*
X192422744Y-96237795D01*
X192253226Y-96351063D01*
X192109063Y-96495226D01*
X191995795Y-96664744D01*
X191917774Y-96853102D01*
X191878000Y-97053061D01*
X190165292Y-97053061D01*
X190149932Y-96975842D01*
X190037990Y-96705589D01*
X189875475Y-96462368D01*
X189668632Y-96255525D01*
X189494240Y-96139000D01*
X189668632Y-96022475D01*
X189875475Y-95815632D01*
X190037990Y-95572411D01*
X190149932Y-95302158D01*
X190207000Y-95015260D01*
X190207000Y-94722740D01*
X190149932Y-94435842D01*
X190037990Y-94165589D01*
X189875475Y-93922368D01*
X189743620Y-93790513D01*
X189816180Y-93768502D01*
X189926494Y-93709537D01*
X190023185Y-93630185D01*
X190102537Y-93533494D01*
X190161502Y-93423180D01*
X190197812Y-93303482D01*
X190210072Y-93179000D01*
X190207000Y-92614750D01*
X190048250Y-92456000D01*
X188849000Y-92456000D01*
X188849000Y-92476000D01*
X188595000Y-92476000D01*
X188595000Y-92456000D01*
X188575000Y-92456000D01*
X188575000Y-92202000D01*
X188595000Y-92202000D01*
X188595000Y-92182000D01*
X188849000Y-92182000D01*
X188849000Y-92202000D01*
X190048250Y-92202000D01*
X190207000Y-92043250D01*
X190208765Y-91719000D01*
X200387012Y-91719000D01*
X200387000Y-91719061D01*
G37*
%TD.AperFunction*%
%TD*%
M02*
